{
.appVersion = "3151";
DisplayStrings = (
"/i_j.liga k",
"0123456789ABCDEFGHIJKLMNOPQRSTUVWXYZ[/backslash ]^_`abcdefghijklmnopqrstuvwxyzÀ/uni0190/uni0193/uni0194/uni019D/uni01BD/uni0293/uni0466/uni04A8/uni20B0/infinity/radical/arrowup/arrowright/arrowdown/arrowleft/uni2194/arrowupdn/arrowupdnbse/dottedcircle/lozenge/smileface/uni2116/dagger/daggerdbl/section.001/thousandcyrillic/uni0488/uni0489/meme/micromeme/troll/D_A_N_K.liga/M_E_M_E.liga/e_a.liga/f_i.liga/f_l.liga/i_j.liga/m_e_m_e.liga/s_t.liga",
"/c_t.liga sb/s_t.liga"
);
copyright = DWTFYW;
customParameters = (
{
name = panose;
value = (
0,
0,
5,
0,
0,
0,
0,
0,
0,
0
);
},
{
name = unicodeRanges;
value = (
0,
1
);
},
{
name = codePageRanges;
value = (
1252
);
},
{
name = glyphOrder;
value = (
.notdef,
space,
glyph1,
glyph2,
exclam,
quotedbl,
numbersign,
dollar,
percent,
ampersand,
quotesingle,
parenleft,
parenright,
asterisk,
plus,
comma,
hyphen,
period,
slash,
zero,
one,
two,
three,
four,
five,
six,
seven,
eight,
nine,
colon,
semicolon,
less,
equal,
greater,
question,
at,
A,
B,
C,
D,
E,
F,
G,
H,
I,
J,
K,
L,
M,
N,
O,
P,
Q,
R,
S,
T,
U,
V,
W,
X,
Y,
Z,
bracketleft,
backslash,
bracketright,
asciicircum,
underscore,
grave,
a,
b,
c,
d,
e,
f,
g,
h,
i,
j,
k,
l,
m,
n,
o,
p,
q,
r,
s,
t,
u,
v,
w,
x,
y,
z,
braceleft,
bar,
braceright,
asciitilde,
uni00A0,
exclamdown,
cent,
sterling,
currency,
yen,
brokenbar,
section,
dieresis,
copyright,
ordfeminine,
guillemotleft,
logicalnot,
uni00AD,
registered,
macron,
degree,
plusminus,
uni00B2,
uni00B3,
acute,
paragraph,
periodcentered,
cedilla,
uni00B9,
ordmasculine,
guillemotright,
onequarter,
onehalf,
threequarters,
questiondown,
Agrave,
Aacute,
Acircumflex,
Atilde,
Adieresis,
Aring,
AE,
Ccedilla,
Egrave,
Eacute,
Ecircumflex,
Edieresis,
Igrave,
Iacute,
Icircumflex,
Idieresis,
Eth,
Ntilde,
Ograve,
Oacute,
Ocircumflex,
Otilde,
Odieresis,
multiply,
Oslash,
Ugrave,
Uacute,
Ucircumflex,
Udieresis,
Yacute,
Thorn,
germandbls,
agrave,
aacute,
acircumflex,
atilde,
adieresis,
aring,
ae,

glyphs = (
{
glyphname = .notdef;
lastChange = "2019-03-06 15:03:57 +0000";
layers = (
{
layerId = "500BB636-1048-4D7F-B62E-A2796C57CEF4";
paths = (
{
closed = 1;
nodes = (
"1132 862 OFFCURVE",
"1131 861 OFFCURVE",
"1130 862 CURVE",
"1122 855 LINE",
"1107 845 LINE",
"1119 862 LINE",
"1120 863 OFFCURVE",
"1122 865 OFFCURVE",
"1124 868 CURVE SMOOTH",
"1129 876 OFFCURVE",
"1130 882 OFFCURVE",
"1132 884 CURVE SMOOTH",
"1133 885 OFFCURVE",
"1134 886 OFFCURVE",
"1134 887 CURVE SMOOTH",
"1134 890 OFFCURVE",
"1132 892 OFFCURVE",
"1130 892 CURVE SMOOTH",
"1129 892 OFFCURVE",
"1127 892 OFFCURVE",
"1125 890 CURVE",
"1103 860 LINE",
"1097 855 LINE",
"1099 861 OFFCURVE",
"1101 865 OFFCURVE",
"1101 868 CURVE",
"1103 871 OFFCURVE",
"1104 874 OFFCURVE",
"1101 875 CURVE",
"1099 876 OFFCURVE",
"1096 881 OFFCURVE",
"1090 886 CURVE",
"1090 889 OFFCURVE",
"1086 887 OFFCURVE",
"1084 889 CURVE SMOOTH",
"1082 891 OFFCURVE",
"1078 890 OFFCURVE",
"1072 887 CURVE",
"1071 891 OFFCURVE",
"1070 892 OFFCURVE",
"1069 892 CURVE SMOOTH",
"1067 892 OFFCURVE",
"1067 892 OFFCURVE",
"1066 891 CURVE SMOOTH",
"1065 890 OFFCURVE",
"1065 891 OFFCURVE",
"1064 891 CURVE SMOOTH",
"1061 891 OFFCURVE",
"1060 888 OFFCURVE",
"1060 888 CURVE",
"1056 889 OFFCURVE",
"1056 889 OFFCURVE",
"1054 885 CURVE",
"1044 873 OFFCURVE",
"1041 863 OFFCURVE",
"1027 836 CURVE SMOOTH",
"1021 824 LINE SMOOTH",
"1014 810 OFFCURVE",
"1009 811 OFFCURVE",
"984 811 CURVE SMOOTH",
"889 811 OFFCURVE",
"811 843 OFFCURVE",
"745 908 CURVE",
"705 955 OFFCURVE",
"725 967 OFFCURVE",
"667 1014 CURVE",
"664 1068 OFFCURVE",
"697 1094 OFFCURVE",
"759 1153 CURVE SMOOTH",
"797 1189 LINE",
"804 1216 OFFCURVE",
"799 1223 OFFCURVE",
"797 1232 CURVE",
"757 1216 OFFCURVE",
"712 1212 OFFCURVE",
"658 1212 CURVE SMOOTH",
"624 1212 OFFCURVE",
"581 1216 OFFCURVE",
"527 1223 CURVE SMOOTH",
"442 1234 OFFCURVE",
"417 1167 OFFCURVE",
"408 1104 CURVE SMOOTH",
"392 989 OFFCURVE",
"379 919 OFFCURVE",
"345 870 CURVE",
"300 870 OFFCURVE",
"275 935 OFFCURVE",
"275 1005 CURVE SMOOTH",
"277 1090 LINE",
"316 1135 OFFCURVE",
"340 1167 OFFCURVE",
"356 1189 CURVE SMOOTH",
"388 1232 OFFCURVE",
"394 1252 OFFCURVE",
"394 1293 CURVE SMOOTH",
"394 1300 LINE SMOOTH",
"394 1315 OFFCURVE",
"385 1323 OFFCURVE",
"372 1322 CURVE SMOOTH",
"350 1320 OFFCURVE",
"349 1311 OFFCURVE",
"322 1277 CURVE",
"277 1296 OFFCURVE",
"246 1338 OFFCURVE",
"246 1356 CURVE SMOOTH",
"246 1378 OFFCURVE",
"265 1411 OFFCURVE",
"237 1401 CURVE",
"158 1369 OFFCURVE",
"73 1300 OFFCURVE",
"43 1212 CURVE",
"40 1202 OFFCURVE",
"47 1193 OFFCURVE",
"57 1196 CURVE SMOOTH",
"72 1203 OFFCURVE",
"159 1205 OFFCURVE",
"190 1120 CURVE SMOOTH",
"206 1076 OFFCURVE",
"160 1094 OFFCURVE",
"160 1057 CURVE SMOOTH",
"160 1045 OFFCURVE",
"167 1043 OFFCURVE",
"176 1043 CURVE SMOOTH",
"207 1043 OFFCURVE",
"233 1057 OFFCURVE",
"259 1075 CURVE",
"224 1015 OFFCURVE",
"266 745 OFFCURVE",
"325 694 CURVE",
"316 654 OFFCURVE",
"304 584 OFFCURVE",
"300 476 CURVE SMOOTH",
"295 343 OFFCURVE",
"259 217 OFFCURVE",
"154 217 CURVE SMOOTH",
"138 217 OFFCURVE",
"136 229 OFFCURVE",
"120 220 CURVE",
"136 195 OFFCURVE",
"149 193 OFFCURVE",
"196 186 CURVE",
"230 172 OFFCURVE",
"111 127 OFFCURVE",
"91 127 CURVE",
"199 125 OFFCURVE",
"228 125 OFFCURVE",
"338 143 CURVE",
"302 100 OFFCURVE",
"246 58 OFFCURVE",
"167 10 CURVE",
"167 6 OFFCURVE",
"167 1 OFFCURVE",
"169 -5 CURVE",
"205 15 OFFCURVE",
"246 37 OFFCURVE",
"277 37 CURVE SMOOTH",
"286 37 OFFCURVE",
"293 31 OFFCURVE",
"293 10 CURVE SMOOTH",
"293 -17 LINE",
"302 -17 OFFCURVE",
"309 -10 OFFCURVE",
"316 1 CURVE",
"338 40 OFFCURVE",
"356 31 OFFCURVE",
"392 1 CURVE",
"401 62 OFFCURVE",
"399 87 OFFCURVE",
"426 116 CURVE",
"437 116 OFFCURVE",
"448 116 OFFCURVE",
"462 123 CURVE",
"462 109 OFFCURVE",
"464 103 OFFCURVE",
"469 103 CURVE SMOOTH",
"471 103 OFFCURVE",
"475 105 OFFCURVE",
"484 112 CURVE SMOOTH",
"502 126 OFFCURVE",
"507 104 OFFCURVE",
"518 109 CURVE SMOOTH",
"538 118 OFFCURVE",
"538 123 OFFCURVE",
"538 103 CURVE",
"563 116 LINE",
"565 80 OFFCURVE",
"570 78 OFFCURVE",
"538 31 CURVE",
"565 40 OFFCURVE",
"613 46 OFFCURVE",
"626 46 CURVE SMOOTH",
"644 46 OFFCURVE",
"664 40 OFFCURVE",
"680 31 CURVE",
"698 17 LINE",
"703 17 OFFCURVE",
"703 22 OFFCURVE",
"703 24 CURVE SMOOTH",
"703 91 OFFCURVE",
"651 85 OFFCURVE",
"727 125 CURVE",
"698 132 OFFCURVE",
"678 141 OFFCURVE",
"664 154 CURVE",
"727 294 OFFCURVE",
"752 438 OFFCURVE",
"752 625 CURVE",
"775 654 OFFCURVE",
"784 685 OFFCURVE",
"790 708 CURVE",
"855 714 OFFCURVE",
"960 735 OFFCURVE",
"1027 778 CURVE SMOOTH",
"1036 784 OFFCURVE",
"1049 791 OFFCURVE",
"1057 795 CURVE SMOOTH",
"1069 801 OFFCURVE",
"1078 809 OFFCURVE",
"1088 811 CURVE",
"1096 813 OFFCURVE",
"1107 820 OFFCURVE",
"1118 828 CURVE",
"1120 828 OFFCURVE",
"1120 829 OFFCURVE",
"1120 830 CURVE",
"1119 834 OFFCURVE",
"1114 834 OFFCURVE",
"1111 833 CURVE",
"1118 838 OFFCURVE",
"1121 854 OFFCURVE",
"1134 854 CURVE SMOOTH",
"1135 854 OFFCURVE",
"1135 855 OFFCURVE",
"1136 857 CURVE",
"1137 860 OFFCURVE",
"1135 859 OFFCURVE",
"1133 861 CURVE SMOOTH"
);
},
{
closed = 1;
nodes = (
"574 1180 OFFCURVE",
"565 1176 OFFCURVE",
"550 1167 CURVE SMOOTH",
"527 1153 OFFCURVE",
"496 1129 OFFCURVE",
"496 1129 CURVE",
"491 1126 OFFCURVE",
"484 1126 OFFCURVE",
"478 1129 CURVE",
"538 1183 OFFCURVE",
"554 1189 OFFCURVE",
"574 1196 CURVE"
);
},
{
closed = 1;
nodes = (
"718 1165 OFFCURVE",
"757 1185 OFFCURVE",
"766 1192 CURVE",
"745 1167 OFFCURVE",
"619 1115 OFFCURVE",
"581 1115 CURVE",
"592 1126 OFFCURVE",
"613 1135 OFFCURVE",
"644 1144 CURVE SMOOTH"
);
},
{
closed = 1;
nodes = (
"570 1138 OFFCURVE",
"563 1131 OFFCURVE",
"550 1131 CURVE",
"538 1142 LINE",
"550 1153 OFFCURVE",
"559 1158 OFFCURVE",
"570 1144 CURVE"
);
},
{
closed = 1;
nodes = (
"727 391 OFFCURVE",
"712 267 OFFCURVE",
"651 159 CURVE",
"628 150 LINE",
"610 166 LINE",
"595 139 LINE",
"588 150 OFFCURVE",
"588 166 OFFCURVE",
"579 193 CURVE SMOOTH",
"572 213 OFFCURVE",
"570 233 OFFCURVE",
"559 249 CURVE",
"556 235 LINE",
"559 224 OFFCURVE",
"563 193 OFFCURVE",
"563 166 CURVE SMOOTH",
"563 154 OFFCURVE",
"561 145 OFFCURVE",
"559 139 CURVE",
"557 132 OFFCURVE",
"554 127 OFFCURVE",
"547 127 CURVE",
"534 132 OFFCURVE",
"511 141 OFFCURVE",
"509 141 CURVE",
"487 107 OFFCURVE",
"480 139 OFFCURVE",
"457 139 CURVE SMOOTH",
"453 139 OFFCURVE",
"446 134 OFFCURVE",
"442 127 CURVE",
"446 150 OFFCURVE",
"471 188 OFFCURVE",
"509 242 CURVE",
"484 226 OFFCURVE",
"453 193 OFFCURVE",
"417 139 CURVE",
"415 139 OFFCURVE",
"408 148 OFFCURVE",
"401 159 CURVE",
"394 143 LINE",
"394 162 OFFCURVE",
"372 149 OFFCURVE",
"368 144 CURVE",
"379 160 OFFCURVE",
"383 180 OFFCURVE",
"383 211 CURVE SMOOTH",
"383 233 LINE SMOOTH",
"383 265 OFFCURVE",
"385 287 OFFCURVE",
"394 298 CURVE",
"376 303 LINE",
"376 334 OFFCURVE",
"388 350 OFFCURVE",
"361 350 CURVE",
"361 357 OFFCURVE",
"365 364 OFFCURVE",
"367 375 CURVE",
"372 397 LINE",
"320 397 OFFCURVE",
"334 512 OFFCURVE",
"354 571 CURVE SMOOTH",
"367 609 OFFCURVE",
"372 636 OFFCURVE",
"372 652 CURVE SMOOTH",
"372 676 OFFCURVE",
"361 701 OFFCURVE",
"338 724 CURVE SMOOTH",
"316 746 OFFCURVE",
"300 764 OFFCURVE",
"293 787 CURVE",
"286 807 OFFCURVE",
"277 850 OFFCURVE",
"268 913 CURVE",
"309 825 OFFCURVE",
"325 787 OFFCURVE",
"363 771 CURVE",
"372 780 OFFCURVE",
"379 807 OFFCURVE",
"383 827 CURVE",
"383 838 OFFCURVE",
"383 843 OFFCURVE",
"385 854 CURVE",
"437 926 OFFCURVE",
"565 973 OFFCURVE",
"633 973 CURVE SMOOTH",
"682 973 OFFCURVE",
"706 926 OFFCURVE",
"718 856 CURVE SMOOTH",
"725 816 OFFCURVE",
"727 748 OFFCURVE",
"727 654 CURVE SMOOTH",
"727 613 LINE SMOOTH"
);
},
{
closed = 1;
nodes = (
"1072 842 OFFCURVE",
"1071 841 OFFCURVE",
"1066 842 CURVE SMOOTH",
"1061 843 OFFCURVE",
"1056 845 OFFCURVE",
"1056 846 CURVE",
"1055 848 OFFCURVE",
"1055 851 OFFCURVE",
"1056 855 CURVE SMOOTH",
"1057 859 OFFCURVE",
"1074 880 OFFCURVE",
"1067 873 CURVE SMOOTH",
"1066 872 OFFCURVE",
"1068 875 OFFCURVE",
"1069 878 CURVE",
"1079 875 LINE",
"1088 869 LINE",
"1084 864 OFFCURVE",
"1083 861 OFFCURVE",
"1081 852 CURVE"
);
},
{
closed = 1;
nodes = (
"790 724 OFFCURVE",
"784 726 OFFCURVE",
"784 733 CURVE",
"781 796 LINE",
"831 787 OFFCURVE",
"896 780 OFFCURVE",
"968 780 CURVE",
"946 753 OFFCURVE",
"853 724 OFFCURVE",
"804 724 CURVE SMOOTH"
);
}
);
width = 1178;
}
);
note = ".notdef";
},
{
glyphname = exclam;
lastChange = "2019-03-06 14:03:00 +0000";
layers = (
{
layerId = "500BB636-1048-4D7F-B62E-A2796C57CEF4";
paths = (
{
closed = 1;
nodes = (
"169 1267 OFFCURVE",
"170 1245 OFFCURVE",
"173 1219 CURVE SMOOTH",
"177 1188 LINE",
"263 371 LINE",
"300 371 LINE",
"392 1180 LINE",
"398 1225 LINE SMOOTH",
"401 1246 OFFCURVE",
"402 1267 OFFCURVE",
"402 1286 CURVE SMOOTH",
"402 1381 OFFCURVE",
"357 1438 OFFCURVE",
"284 1438 CURVE SMOOTH",
"217 1438 OFFCURVE",
"169 1373 OFFCURVE",
"169 1284 CURVE SMOOTH"
);
},
{
closed = 1;
nodes = (
"167 23 OFFCURVE",
"219 -27 OFFCURVE",
"280 -27 CURVE SMOOTH",
"343 -27 OFFCURVE",
"392 23 OFFCURVE",
"392 86 CURVE SMOOTH",
"392 147 OFFCURVE",
"343 197 OFFCURVE",
"280 197 CURVE SMOOTH",
"219 197 OFFCURVE",
"167 147 OFFCURVE",
"167 86 CURVE SMOOTH"
);
}
);
width = 555;
}
);
note = exclam;
unicode = 0021;
},
{
glyphname = quotedbl;
lastChange = "2019-03-06 14:03:00 +0000";
layers = (
{
layerId = "500BB636-1048-4D7F-B62E-A2796C57CEF4";
paths = (
{
closed = 1;
nodes = (
"132 1245 OFFCURVE",
"140 1191 OFFCURVE",
"155 1100 CURVE SMOOTH",
"208 803 LINE",
"251 803 LINE",
"306 1098 LINE",
"325 1198 LINE",
"329 1225 OFFCURVE",
"331 1251 OFFCURVE",
"331 1274 CURVE SMOOTH",
"331 1343 OFFCURVE",
"291 1386 OFFCURVE",
"228 1386 CURVE SMOOTH",
"164 1386 OFFCURVE",
"132 1345 OFFCURVE",
"132 1264 CURVE SMOOTH"
);
},
{
closed = 1;
nodes = (
"497 1232 OFFCURVE",
"498 1215 OFFCURVE",
"501 1198 CURVE SMOOTH",
"521 1096 LINE",
"574 803 LINE",
"622 803 LINE",
"679 1096 LINE SMOOTH",
"684 1123 OFFCURVE",
"699 1245 OFFCURVE",
"699 1274 CURVE SMOOTH",
"699 1343 OFFCURVE",
"660 1386 OFFCURVE",
"599 1386 CURVE SMOOTH",
"527 1386 OFFCURVE",
"497 1346 OFFCURVE",
"497 1251 CURVE SMOOTH"
);
}
);
width = 831;
}
);
note = quotedbl;
unicode = 0022;
},
{
glyphname = numbersign;
lastChange = "2019-03-06 15:39:08 +0000";
layers = (
{
layerId = "500BB636-1048-4D7F-B62E-A2796C57CEF4";
paths = (
{
closed = 1;
nodes = (
"284 238 LINE",
"200 -166 LINE",
"325 -166 LINE",
"407 238 LINE",
"828 238 LINE",
"744 -166 LINE",
"867 -166 LINE",
"951 238 LINE",
"1225 238 LINE",
"1255 358 LINE",
"978 358 LINE",
"1054 729 LINE",
"1325 729 LINE",
"1355 850 LINE",
"1078 850 LINE",
"1162 1255 LINE",
"1041 1255 LINE",
"955 850 LINE",
"536 850 LINE",
"620 1255 LINE",
"495 1255 LINE",
"411 850 LINE",
"167 850 LINE",
"137 729 LINE",
"384 729 LINE",
"308 358 LINE",
"67 358 LINE",
"37 238 LINE"
);
},
{
closed = 1;
nodes = (
"509 729 LINE",
"931 729 LINE",
"855 358 LINE",
"431 358 LINE"
);
}
);
width = 1366;
}
);
note = numbersign;
unicode = 0023;
},
{
glyphname = dollar;
lastChange = "2019-03-06 14:03:00 +0000";
layers = (
{
layerId = "500BB636-1048-4D7F-B62E-A2796C57CEF4";
paths = (
{
closed = 1;
nodes = (
"105 66 LINE",
"218 19 OFFCURVE",
"339 -8 OFFCURVE",
"470 -14 CURVE",
"470 -143 LINE",
"531 -143 LINE",
"531 -14 LINE",
"610 -8 OFFCURVE",
"680 12 OFFCURVE",
"741 45 CURVE SMOOTH",
"862 112 OFFCURVE",
"933 226 OFFCURVE",
"933 362 CURVE SMOOTH",
"933 508 OFFCURVE",
"859 628 OFFCURVE",
"712 721 CURVE SMOOTH",
"544 827 LINE",
"531 836 LINE",
"531 1362 LINE",
"714 1345 OFFCURVE",
"823 1224 OFFCURVE",
"830 1032 CURVE",
"867 1032 LINE",
"867 1341 LINE",
"752 1394 OFFCURVE",
"640 1424 OFFCURVE",
"531 1430 CURVE",
"531 1493 LINE",
"470 1493 LINE",
"470 1430 LINE",
"398 1425 OFFCURVE",
"334 1407 OFFCURVE",
"279 1378 CURVE SMOOTH",
"167 1318 OFFCURVE",
"105 1217 OFFCURVE",
"105 1096 CURVE SMOOTH",
"105 932 OFFCURVE",
"221 795 OFFCURVE",
"470 662 CURVE",
"470 47 LINE",
"359 52 OFFCURVE",
"259 109 OFFCURVE",
"200 201 CURVE",
"171 242 OFFCURVE",
"153 295 OFFCURVE",
"144 360 CURVE",
"105 360 LINE"
);
},
{
closed = 1;
nodes = (
"259 1189 OFFCURVE",
"268 1222 OFFCURVE",
"286 1253 CURVE SMOOTH",
"321 1313 OFFCURVE",
"389 1354 OFFCURVE",
"470 1362 CURVE",
"470 877 LINE",
"373 942 OFFCURVE",
"341 971 OFFCURVE",
"302 1028 CURVE",
"273 1067 OFFCURVE",
"259 1108 OFFCURVE",
"259 1153 CURVE SMOOTH"
);
},
{
closed = 1;
nodes = (
"556 606 LINE",
"721 503 OFFCURVE",
"783 420 OFFCURVE",
"783 307 CURVE SMOOTH",
"783 172 OFFCURVE",
"686 72 OFFCURVE",
"531 49 CURVE",
"531 623 LINE"
);
}
);
width = 1024;
}
);
note = dollar;
unicode = 0024;
},
{
glyphname = percent;
lastChange = "2019-03-06 15:01:10 +0000";
layers = (
{
layerId = "500BB636-1048-4D7F-B62E-A2796C57CEF4";
paths = (
{
closed = 1;
nodes = (
"194 -57 LINE",
"1173 1436 LINE",
"1085 1436 LINE",
"106 -57 LINE"
);
},
{
closed = 1;
nodes = (
"40 914 OFFCURVE",
"90 803 OFFCURVE",
"189 739 CURVE SMOOTH",
"228 714 OFFCURVE",
"269 702 OFFCURVE",
"312 702 CURVE SMOOTH",
"361 702 OFFCURVE",
"406 718 OFFCURVE",
"446 750 CURVE SMOOTH",
"526 814 OFFCURVE",
"574 929 OFFCURVE",
"574 1069 CURVE SMOOTH",
"574 1137 OFFCURVE",
"563 1199 OFFCURVE",
"540 1254 CURVE SMOOTH",
"494 1364 OFFCURVE",
"406 1430 OFFCURVE",
"306 1430 CURVE SMOOTH",
"257 1430 OFFCURVE",
"212 1414 OFFCURVE",
"172 1383 CURVE SMOOTH",
"91 1320 OFFCURVE",
"40 1202 OFFCURVE",
"40 1071 CURVE SMOOTH"
);
},
{
closed = 1;
nodes = (
"406 1399 OFFCURVE",
"456 1286 OFFCURVE",
"456 1059 CURVE SMOOTH",
"456 952 OFFCURVE",
"444 871 OFFCURVE",
"419 818 CURVE SMOOTH",
"393 763 OFFCURVE",
"357 735 OFFCURVE",
"310 735 CURVE SMOOTH",
"209 735 OFFCURVE",
"159 846 OFFCURVE",
"159 1067 CURVE SMOOTH",
"159 1288 OFFCURVE",
"208 1399 OFFCURVE",
"306 1399 CURVE SMOOTH"
);
},
{
closed = 1;
nodes = (
"743 246 OFFCURVE",
"769 158 OFFCURVE",
"821 92 CURVE SMOOTH",
"874 24 OFFCURVE",
"937 -12 OFFCURVE",
"1013 -12 CURVE SMOOTH",
"1063 -12 OFFCURVE",
"1108 4 OFFCURVE",
"1149 36 CURVE SMOOTH",
"1229 99 OFFCURVE",
"1278 213 OFFCURVE",
"1278 354 CURVE SMOOTH",
"1278 422 OFFCURVE",
"1266 484 OFFCURVE",
"1243 539 CURVE SMOOTH",
"1197 649 OFFCURVE",
"1110 715 OFFCURVE",
"1007 715 CURVE SMOOTH",
"959 715 OFFCURVE",
"915 699 OFFCURVE",
"875 668 CURVE SMOOTH",
"793 605 OFFCURVE",
"743 487 OFFCURVE",
"743 356 CURVE SMOOTH"
);
},
{
closed = 1;
nodes = (
"862 575 OFFCURVE",
"910 686 OFFCURVE",
"1007 686 CURVE SMOOTH",
"1108 686 OFFCURVE",
"1159 572 OFFCURVE",
"1159 344 CURVE SMOOTH",
"1159 241 OFFCURVE",
"1146 161 OFFCURVE",
"1121 104 CURVE SMOOTH",
"1096 48 OFFCURVE",
"1060 20 OFFCURVE",
"1011 20 CURVE SMOOTH",
"912 20 OFFCURVE",
"862 131 OFFCURVE",
"862 352 CURVE SMOOTH"
);
}
);
width = 1298;
}
);
note = percent;
unicode = 0025;
},
{
glyphname = ampersand;
lastChange = "2019-03-06 14:03:00 +0000";
layers = (
{
layerId = "500BB636-1048-4D7F-B62E-A2796C57CEF4";
paths = (
{
closed = 1;
nodes = (
"1491 192 OFFCURVE",
"1423 133 OFFCURVE",
"1342 133 CURVE SMOOTH",
"1237 133 OFFCURVE",
"1142 190 OFFCURVE",
"1021 326 CURVE",
"1033 342 LINE SMOOTH",
"1112 447 OFFCURVE",
"1146 504 OFFCURVE",
"1201 612 CURVE SMOOTH",
"1273 757 OFFCURVE",
"1300 797 OFFCURVE",
"1355 840 CURVE",
"1384 859 OFFCURVE",
"1423 872 OFFCURVE",
"1472 877 CURVE",
"1472 913 LINE",
"1039 913 LINE",
"1039 877 LINE",
"1100 869 OFFCURVE",
"1136 826 OFFCURVE",
"1136 758 CURVE SMOOTH",
"1136 653 OFFCURVE",
"1071 502 OFFCURVE",
"972 387 CURVE",
"933 442 OFFCURVE",
"880 522 OFFCURVE",
"814 627 CURVE SMOOTH",
"775 692 OFFCURVE",
"738 758 OFFCURVE",
"704 825 CURVE",
"772 857 OFFCURVE",
"828 890 OFFCURVE",
"871 924 CURVE SMOOTH",
"957 991 OFFCURVE",
"1019 1093 OFFCURVE",
"1019 1194 CURVE SMOOTH",
"1019 1239 OFFCURVE",
"1007 1281 OFFCURVE",
"983 1318 CURVE SMOOTH",
"935 1392 OFFCURVE",
"842 1438 OFFCURVE",
"742 1438 CURVE SMOOTH",
"679 1438 OFFCURVE",
"623 1423 OFFCURVE",
"572 1394 CURVE SMOOTH",
"470 1334 OFFCURVE",
"407 1222 OFFCURVE",
"407 1094 CURVE SMOOTH",
"407 1053 OFFCURVE",
"409 1018 OFFCURVE",
"413 990 CURVE SMOOTH",
"421 934 OFFCURVE",
"444 874 OFFCURVE",
"484 791 CURVE",
"385 736 OFFCURVE",
"305 683 OFFCURVE",
"244 632 CURVE SMOOTH",
"122 528 OFFCURVE",
"67 422 OFFCURVE",
"67 291 CURVE",
"71 287 LINE SMOOTH",
"74 284 OFFCURVE",
"79 282 OFFCURVE",
"88 282 CURVE",
"92 281 OFFCURVE",
"95 280 OFFCURVE",
"97 279 CURVE",
"98 278 OFFCURVE",
"98 277 OFFCURVE",
"98 276 CURVE SMOOTH",
"98 274 LINE SMOOTH",
"98 273 OFFCURVE",
"100 272 OFFCURVE",
"100 272 CURVE",
"101 271 OFFCURVE",
"101 269 OFFCURVE",
"100 268 CURVE",
"98 265 LINE",
"96 264 LINE",
"92 264 LINE",
"104 259 LINE",
"105 258 OFFCURVE",
"105 257 OFFCURVE",
"105 256 CURVE",
"104 255 OFFCURVE",
"104 255 OFFCURVE",
"104 256 CURVE",
"103 256 OFFCURVE",
"103 256 OFFCURVE",
"102 256 CURVE",
"96 258 LINE",
"90 260 LINE",
"94 257 LINE",
"96 255 LINE",
"96 255 OFFCURVE",
"96 255 OFFCURVE",
"97 254 CURVE",
"97 253 OFFCURVE",
"96 252 OFFCURVE",
"95 252 CURVE SMOOTH",
"95 252 OFFCURVE",
"95 252 OFFCURVE",
"95 253 CURVE",
"95 253 OFFCURVE",
"95 253 OFFCURVE",
"94 253 CURVE",
"87 258 LINE",
"87 257 LINE SMOOTH",
"87 256 OFFCURVE",
"85 255 OFFCURVE",
"84 256 CURVE",
"78 263 LINE",
"74 269 OFFCURVE",
"70 273 OFFCURVE",
"67 276 CURVE",
"70 219 OFFCURVE",
"86 168 OFFCURVE",
"116 122 CURVE SMOOTH",
"176 29 OFFCURVE",
"286 -31 OFFCURVE",
"419 -31 CURVE SMOOTH",
"536 -31 OFFCURVE",
"647 2 OFFCURVE",
"753 68 CURVE SMOOTH",
"790 92 OFFCURVE",
"831 126 OFFCURVE",
"878 170 CURVE",
"1022 22 OFFCURVE",
"1117 -31 OFFCURVE",
"1238 -31 CURVE SMOOTH",
"1342 -31 OFFCURVE",
"1451 35 OFFCURVE",
"1500 131 CURVE",
"1524 174 OFFCURVE",
"1528 186 OFFCURVE",
"1543 254 CURVE",
"1510 279 LINE"
);
},
{
closed = 1;
nodes = (
"839 1368 OFFCURVE",
"898 1298 OFFCURVE",
"898 1186 CURVE SMOOTH",
"898 1058 OFFCURVE",
"831 970 OFFCURVE",
"671 889 CURVE",
"620 986 OFFCURVE",
"595 1081 OFFCURVE",
"595 1174 CURVE SMOOTH",
"595 1298 OFFCURVE",
"649 1368 OFFCURVE",
"744 1368 CURVE SMOOTH"
);
},
{
closed = 1;
nodes = (
"493 98 OFFCURVE",
"450 111 OFFCURVE",
"411 137 CURVE SMOOTH",
"332 188 OFFCURVE",
"280 281 OFFCURVE",
"280 381 CURVE SMOOTH",
"280 522 OFFCURVE",
"365 646 OFFCURVE",
"513 719 CURVE",
"521 702 LINE",
"573 603 OFFCURVE",
"638 493 OFFCURVE",
"716 373 CURVE SMOOTH",
"749 322 OFFCURVE",
"786 274 OFFCURVE",
"826 227 CURVE",
"743 148 OFFCURVE",
"631 98 OFFCURVE",
"538 98 CURVE SMOOTH"
);
},
{
closed = 1;
nodes = (
"91 277 OFFCURVE",
"88 277 OFFCURVE",
"86 275 CURVE SMOOTH",
"85 274 OFFCURVE",
"85 273 OFFCURVE",
"85 272 CURVE",
"86 270 LINE",
"90 268 LINE",
"95 268 LINE",
"96 270 LINE",
"95 272 OFFCURVE",
"95 273 OFFCURVE",
"96 274 CURVE",
"94 275 LINE"
);
}
);
width = 1579;
}
);
note = ampersand;
unicode = 0026;
},
{
glyphname = quotesingle;
lastChange = "2019-03-06 14:03:00 +0000";
layers = (
{
layerId = "500BB636-1048-4D7F-B62E-A2796C57CEF4";
paths = (
{
closed = 1;
nodes = (
"81 1226 OFFCURVE",
"82 1209 OFFCURVE",
"85 1200 CURVE",
"103 1100 LINE",
"157 803 LINE",
"202 803 LINE",
"255 1098 LINE",
"273 1200 LINE SMOOTH",
"279 1241 OFFCURVE",
"282 1266 OFFCURVE",
"282 1274 CURVE SMOOTH",
"282 1343 OFFCURVE",
"241 1386 OFFCURVE",
"177 1386 CURVE SMOOTH",
"110 1386 OFFCURVE",
"81 1345 OFFCURVE",
"81 1253 CURVE SMOOTH"
);
}
);
width = 362;
}
);
note = quotesingle;
unicode = 0027;
},
{
glyphname = parenleft;
lastChange = "2019-03-06 14:03:00 +0000";
layers = (
{
layerId = "500BB636-1048-4D7F-B62E-A2796C57CEF4";
paths = (
{
closed = 1;
nodes = (
"91 244 OFFCURVE",
"182 -12 OFFCURVE",
"345 -195 CURVE SMOOTH",
"413 -270 OFFCURVE",
"516 -353 OFFCURVE",
"624 -416 CURVE SMOOTH",
"650 -432 LINE",
"650 -393 LINE",
"399 -249 OFFCURVE",
"286 38 OFFCURVE",
"286 526 CURVE SMOOTH",
"286 1001 OFFCURVE",
"399 1283 OFFCURVE",
"650 1434 CURVE",
"650 1468 LINE",
"533 1409 OFFCURVE",
"433 1332 OFFCURVE",
"350 1237 CURVE SMOOTH",
"182 1047 OFFCURVE",
"91 800 OFFCURVE",
"91 520 CURVE SMOOTH"
);
}
);
width = 681;
}
);
note = parenleft;
unicode = 0028;
},
{
glyphname = parenright;
lastChange = "2019-03-06 14:03:00 +0000";
layers = (
{
layerId = "500BB636-1048-4D7F-B62E-A2796C57CEF4";
paths = (
{
closed = 1;
nodes = (
"149 -373 OFFCURVE",
"249 -296 OFFCURVE",
"332 -201 CURVE SMOOTH",
"499 -12 OFFCURVE",
"589 237 OFFCURVE",
"589 516 CURVE SMOOTH",
"589 792 OFFCURVE",
"498 1050 OFFCURVE",
"337 1229 CURVE SMOOTH",
"276 1297 OFFCURVE",
"174 1381 OFFCURVE",
"58 1452 CURVE SMOOTH",
"32 1468 LINE",
"32 1430 LINE",
"283 1285 OFFCURVE",
"396 1000 OFFCURVE",
"396 516 CURVE SMOOTH",
"396 35 OFFCURVE",
"284 -248 OFFCURVE",
"32 -397 CURVE",
"32 -432 LINE"
);
}
);
width = 681;
}
);
note = parenright;
unicode = 0029;
},
{
glyphname = asterisk;
lastChange = "2019-03-06 14:03:00 +0000";
layers = (
{
layerId = "500BB636-1048-4D7F-B62E-A2796C57CEF4";
paths = (
{
closed = 1;
nodes = (
"144 846 OFFCURVE",
"181 811 OFFCURVE",
"222 811 CURVE SMOOTH",
"270 811 OFFCURVE",
"308 834 OFFCURVE",
"368 899 CURVE SMOOTH",
"409 944 OFFCURVE",
"435 972 OFFCURVE",
"446 982 CURVE SMOOTH",
"463 997 OFFCURVE",
"481 1010 OFFCURVE",
"499 1020 CURVE",
"496 979 OFFCURVE",
"485 931 OFFCURVE",
"466 877 CURVE SMOOTH",
"451 833 OFFCURVE",
"441 803 OFFCURVE",
"437 786 CURVE SMOOTH",
"433 769 OFFCURVE",
"431 752 OFFCURVE",
"431 733 CURVE SMOOTH",
"431 680 OFFCURVE",
"468 635 OFFCURVE",
"513 635 CURVE SMOOTH",
"558 635 OFFCURVE",
"593 680 OFFCURVE",
"593 737 CURVE SMOOTH",
"593 760 OFFCURVE",
"583 804 OFFCURVE",
"564 868 CURVE SMOOTH",
"542 935 OFFCURVE",
"531 983 OFFCURVE",
"531 1012 CURVE SMOOTH",
"531 1020 LINE",
"564 999 OFFCURVE",
"587 978 OFFCURVE",
"646 913 CURVE SMOOTH",
"715 837 OFFCURVE",
"755 811 OFFCURVE",
"802 811 CURVE SMOOTH",
"845 811 OFFCURVE",
"878 844 OFFCURVE",
"878 885 CURVE SMOOTH",
"878 941 OFFCURVE",
"825 979 OFFCURVE",
"712 1006 CURVE SMOOTH",
"628 1024 LINE SMOOTH",
"600 1031 OFFCURVE",
"574 1042 OFFCURVE",
"550 1055 CURVE",
"583 1068 OFFCURVE",
"633 1082 OFFCURVE",
"701 1098 CURVE SMOOTH",
"766 1113 OFFCURVE",
"811 1129 OFFCURVE",
"838 1148 CURVE SMOOTH",
"865 1166 OFFCURVE",
"878 1190 OFFCURVE",
"878 1221 CURVE SMOOTH",
"878 1260 OFFCURVE",
"843 1294 OFFCURVE",
"802 1294 CURVE SMOOTH",
"759 1294 OFFCURVE",
"709 1262 OFFCURVE",
"652 1198 CURVE SMOOTH",
"592 1130 OFFCURVE",
"583 1122 OFFCURVE",
"531 1087 CURVE",
"533 1095 LINE",
"534 1096 OFFCURVE",
"534 1099 OFFCURVE",
"534 1102 CURVE",
"535 1120 OFFCURVE",
"537 1139 OFFCURVE",
"541 1158 CURVE",
"574 1274 LINE SMOOTH",
"587 1316 OFFCURVE",
"593 1350 OFFCURVE",
"593 1376 CURVE SMOOTH",
"593 1433 OFFCURVE",
"560 1477 OFFCURVE",
"513 1477 CURVE SMOOTH",
"466 1477 OFFCURVE",
"431 1433 OFFCURVE",
"431 1376 CURVE SMOOTH",
"431 1359 OFFCURVE",
"437 1329 OFFCURVE",
"448 1286 CURVE",
"480 1194 LINE SMOOTH",
"493 1157 OFFCURVE",
"499 1121 OFFCURVE",
"499 1087 CURVE",
"468 1106 OFFCURVE",
"444 1126 OFFCURVE",
"427 1145 CURVE",
"355 1219 LINE SMOOTH",
"307 1269 OFFCURVE",
"263 1294 OFFCURVE",
"222 1294 CURVE SMOOTH",
"179 1294 OFFCURVE",
"144 1262 OFFCURVE",
"144 1221 CURVE SMOOTH",
"144 1164 OFFCURVE",
"195 1126 OFFCURVE",
"296 1106 CURVE SMOOTH",
"390 1085 LINE SMOOTH",
"413 1080 OFFCURVE",
"440 1070 OFFCURVE",
"472 1055 CURVE",
"439 1036 OFFCURVE",
"429 1032 OFFCURVE",
"378 1020 CURVE SMOOTH",
"278 999 OFFCURVE",
"214 980 OFFCURVE",
"186 963 CURVE SMOOTH",
"158 946 OFFCURVE",
"144 920 OFFCURVE",
"144 883 CURVE SMOOTH"
);
}
);
width = 1024;
}
);
note = asterisk;
unicode = 002A;
},
{
glyphname = plus;
lastChange = "2019-03-06 14:03:00 +0000";
layers = (
{
layerId = "500BB636-1048-4D7F-B62E-A2796C57CEF4";
paths = (
{
closed = 1;
nodes = (
"634 608 LINE",
"634 121 LINE",
"726 121 LINE",
"726 608 LINE",
"1220 608 LINE",
"1220 702 LINE",
"726 702 LINE",
"726 1194 LINE",
"634 1194 LINE",
"634 702 LINE",
"142 702 LINE",
"142 608 LINE"
);
}
);
width = 1366;
}
);
note = plus;
unicode = 002B;
},
{
glyphname = comma;
lastChange = "2019-03-06 14:03:00 +0000";
layers = (
{
layerId = "500BB636-1048-4D7F-B62E-A2796C57CEF4";
paths = (
{
closed = 1;
nodes = (
"324 -271 OFFCURVE",
"423 -159 OFFCURVE",
"423 -4 CURVE SMOOTH",
"423 36 OFFCURVE",
"416 72 OFFCURVE",
"402 103 CURVE SMOOTH",
"373 166 OFFCURVE",
"320 203 OFFCURVE",
"257 203 CURVE SMOOTH",
"185 203 OFFCURVE",
"128 150 OFFCURVE",
"128 82 CURVE SMOOTH",
"128 23 OFFCURVE",
"178 -27 OFFCURVE",
"235 -27 CURVE SMOOTH",
"248 -27 OFFCURVE",
"263 -23 OFFCURVE",
"282 -16 CURVE",
"304 -2 LINE",
"310 1 OFFCURVE",
"316 2 OFFCURVE",
"321 2 CURVE SMOOTH",
"340 2 OFFCURVE",
"351 -16 OFFCURVE",
"351 -45 CURVE SMOOTH",
"351 -70 OFFCURVE",
"338 -120 OFFCURVE",
"323 -147 CURVE SMOOTH",
"284 -219 OFFCURVE",
"230 -262 OFFCURVE",
"126 -303 CURVE",
"126 -342 LINE"
);
}
);
width = 555;
}
);
note = comma;
unicode = 002C;
},
{
glyphname = hyphen;
lastChange = "2019-03-06 14:03:00 +0000";
layers = (
{
layerId = "500BB636-1048-4D7F-B62E-A2796C57CEF4";
paths = (
{
closed = 1;
nodes = (
"595 395 LINE",
"595 557 LINE",
"85 557 LINE",
"85 395 LINE"
);
}
);
width = 681;
}
);
note = hyphen;
unicode = 002D;
},
{
glyphname = period;
lastChange = "2019-03-06 14:03:00 +0000";
layers = (
{
layerId = "500BB636-1048-4D7F-B62E-A2796C57CEF4";
paths = (
{
closed = 1;
nodes = (
"218 -16 OFFCURVE",
"244 -27 OFFCURVE",
"275 -27 CURVE SMOOTH",
"338 -27 OFFCURVE",
"390 23 OFFCURVE",
"390 86 CURVE SMOOTH",
"390 149 OFFCURVE",
"338 199 OFFCURVE",
"275 199 CURVE SMOOTH",
"214 199 OFFCURVE",
"163 149 OFFCURVE",
"163 86 CURVE SMOOTH",
"163 55 OFFCURVE",
"174 28 OFFCURVE",
"196 6 CURVE SMOOTH"
);
}
);
width = 555;
}
);
note = period;
unicode = 002E;
},
{
glyphname = slash;
lastChange = "2019-03-06 14:03:00 +0000";
layers = (
{
layerId = "500BB636-1048-4D7F-B62E-A2796C57CEF4";
paths = (
{
closed = 1;
nodes = (
"84 -29 LINE",
"573 1423 LINE",
"494 1423 LINE",
"2 -29 LINE"
);
}
);
width = 575;
}
);
note = slash;
unicode = 002F;
},
{
glyphname = zero;
lastChange = "2019-03-06 14:03:00 +0000";
layers = (
{
layerId = "500BB636-1048-4D7F-B62E-A2796C57CEF4";
paths = (
{
closed = 1;
nodes = (
"65 482 OFFCURVE",
"103 324 OFFCURVE",
"194 184 CURVE SMOOTH",
"283 49 OFFCURVE",
"398 -25 OFFCURVE",
"519 -25 CURVE SMOOTH",
"619 -25 OFFCURVE",
"722 36 OFFCURVE",
"802 147 CURVE SMOOTH",
"909 291 OFFCURVE",
"955 460 OFFCURVE",
"955 705 CURVE SMOOTH",
"955 918 OFFCURVE",
"923 1059 OFFCURVE",
"843 1196 CURVE SMOOTH",
"756 1344 OFFCURVE",
"631 1430 OFFCURVE",
"503 1430 CURVE SMOOTH",
"376 1430 OFFCURVE",
"250 1334 OFFCURVE",
"163 1174 CURVE SMOOTH",
"94 1043 OFFCURVE",
"65 907 OFFCURVE",
"65 711 CURVE SMOOTH"
);
},
{
closed = 1;
nodes = (
"263 1150 OFFCURVE",
"344 1370 OFFCURVE",
"505 1370 CURVE SMOOTH",
"614 1370 OFFCURVE",
"695 1268 OFFCURVE",
"726 1092 CURVE SMOOTH",
"747 975 OFFCURVE",
"757 841 OFFCURVE",
"757 692 CURVE SMOOTH",
"757 483 OFFCURVE",
"736 322 OFFCURVE",
"695 209 CURVE SMOOTH",
"653 97 OFFCURVE",
"592 41 OFFCURVE",
"513 41 CURVE SMOOTH",
"438 41 OFFCURVE",
"364 107 OFFCURVE",
"325 207 CURVE SMOOTH",
"284 316 OFFCURVE",
"263 484 OFFCURVE",
"263 711 CURVE SMOOTH"
);
}
);
width = 1024;
}
);
note = zero;
unicode = 0030;
},
{
glyphname = one;
lastChange = "2019-03-06 14:03:00 +0000";
layers = (
{
layerId = "500BB636-1048-4D7F-B62E-A2796C57CEF4";
paths = (
{
closed = 1;
nodes = (
"777 37 LINE",
"765 37 LINE SMOOTH",
"723 37 OFFCURVE",
"691 42 OFFCURVE",
"669 53 CURVE",
"624 73 OFFCURVE",
"605 119 OFFCURVE",
"605 207 CURVE SMOOTH",
"605 1430 LINE",
"568 1430 LINE",
"461 1376 LINE",
"465 1374 LINE",
"468 1373 OFFCURVE",
"471 1373 OFFCURVE",
"475 1373 CURVE",
"479 1372 OFFCURVE",
"482 1371 OFFCURVE",
"484 1370 CURVE",
"485 1369 OFFCURVE",
"485 1368 OFFCURVE",
"485 1367 CURVE SMOOTH",
"485 1365 LINE SMOOTH",
"485 1364 OFFCURVE",
"487 1363 OFFCURVE",
"487 1363 CURVE",
"488 1362 OFFCURVE",
"488 1360 OFFCURVE",
"487 1359 CURVE",
"485 1356 LINE",
"483 1355 LINE",
"479 1355 LINE",
"491 1350 LINE",
"492 1349 OFFCURVE",
"492 1348 OFFCURVE",
"492 1347 CURVE",
"491 1346 OFFCURVE",
"491 1346 OFFCURVE",
"491 1347 CURVE",
"490 1347 OFFCURVE",
"490 1347 OFFCURVE",
"489 1347 CURVE",
"483 1349 LINE",
"477 1351 LINE",
"481 1348 LINE",
"483 1346 LINE",
"483 1346 OFFCURVE",
"483 1346 OFFCURVE",
"484 1345 CURVE",
"484 1344 OFFCURVE",
"483 1343 OFFCURVE",
"482 1343 CURVE SMOOTH",
"482 1343 OFFCURVE",
"482 1343 OFFCURVE",
"482 1344 CURVE",
"482 1344 OFFCURVE",
"482 1344 OFFCURVE",
"481 1344 CURVE",
"474 1349 LINE",
"474 1348 LINE SMOOTH",
"474 1347 OFFCURVE",
"472 1346 OFFCURVE",
"471 1347 CURVE",
"465 1354 LINE",
"459 1362 LINE",
"455 1366 OFFCURVE",
"452 1369 OFFCURVE",
"449 1370 CURVE",
"237 1264 LINE",
"255 1231 LINE",
"294 1253 OFFCURVE",
"326 1264 OFFCURVE",
"351 1264 CURVE SMOOTH",
"385 1264 OFFCURVE",
"407 1252 OFFCURVE",
"417 1227 CURVE",
"426 1200 OFFCURVE",
"431 1144 OFFCURVE",
"431 1057 CURVE SMOOTH",
"431 203 LINE SMOOTH",
"431 158 OFFCURVE",
"426 124 OFFCURVE",
"417 101 CURVE SMOOTH",
"397 54 OFFCURVE",
"353 37 OFFCURVE",
"261 37 CURVE SMOOTH",
"255 37 LINE",
"255 0 LINE",
"777 0 LINE"
);
},
{
closed = 1;
nodes = (
"478 1368 OFFCURVE",
"475 1368 OFFCURVE",
"473 1366 CURVE SMOOTH",
"472 1365 OFFCURVE",
"472 1364 OFFCURVE",
"472 1363 CURVE",
"473 1361 LINE",
"477 1359 LINE",
"482 1359 LINE",
"483 1361 LINE",
"482 1363 OFFCURVE",
"482 1364 OFFCURVE",
"483 1365 CURVE",
"481 1366 LINE"
);
}
);
width = 1024;
}
);
note = one;
unicode = 0031;
},
{
glyphname = two;
lastChange = "2019-03-06 14:03:00 +0000";
layers = (
{
layerId = "500BB636-1048-4D7F-B62E-A2796C57CEF4";
paths = (
{
closed = 1;
nodes = (
"970 262 LINE",
"931 262 LINE",
"888 182 OFFCURVE",
"826 152 OFFCURVE",
"706 152 CURVE SMOOTH",
"253 152 LINE",
"315 207 OFFCURVE",
"366 256 OFFCURVE",
"407 299 CURVE",
"479 368 OFFCURVE",
"599 497 OFFCURVE",
"703 630 CURVE SMOOTH",
"807 762 OFFCURVE",
"884 888 OFFCURVE",
"884 1057 CURVE SMOOTH",
"884 1124 OFFCURVE",
"867 1187 OFFCURVE",
"832 1244 CURVE SMOOTH",
"763 1358 OFFCURVE",
"639 1423 OFFCURVE",
"508 1430 CURVE",
"501 1424 LINE",
"490 1414 LINE",
"484 1406 LINE",
"478 1399 LINE",
"477 1398 OFFCURVE",
"475 1399 OFFCURVE",
"475 1400 CURVE SMOOTH",
"475 1401 LINE",
"468 1396 LINE",
"467 1395 OFFCURVE",
"465 1397 OFFCURVE",
"466 1398 CURVE",
"466 1398 OFFCURVE",
"466 1398 OFFCURVE",
"466 1398 CURVE",
"468 1400 LINE",
"472 1403 LINE",
"466 1401 LINE",
"460 1399 LINE",
"459 1399 OFFCURVE",
"459 1399 OFFCURVE",
"459 1399 CURVE",
"458 1398 OFFCURVE",
"458 1398 OFFCURVE",
"457 1399 CURVE",
"457 1400 OFFCURVE",
"457 1401 OFFCURVE",
"458 1402 CURVE",
"470 1407 LINE",
"466 1407 LINE",
"464 1408 LINE",
"462 1411 LINE",
"461 1412 OFFCURVE",
"461 1414 OFFCURVE",
"462 1415 CURVE",
"462 1415 OFFCURVE",
"464 1416 OFFCURVE",
"464 1417 CURVE SMOOTH",
"464 1419 LINE SMOOTH",
"464 1420 OFFCURVE",
"464 1421 OFFCURVE",
"465 1422 CURVE",
"467 1423 OFFCURVE",
"470 1424 OFFCURVE",
"475 1425 CURVE",
"483 1425 OFFCURVE",
"488 1427 OFFCURVE",
"491 1430 CURVE",
"278 1430 OFFCURVE",
"154 1310 OFFCURVE",
"99 1047 CURVE",
"136 1047 LINE",
"198 1194 OFFCURVE",
"292 1268 OFFCURVE",
"419 1268 CURVE SMOOTH",
"474 1268 OFFCURVE",
"525 1255 OFFCURVE",
"570 1229 CURVE SMOOTH",
"660 1177 OFFCURVE",
"714 1077 OFFCURVE",
"714 965 CURVE SMOOTH",
"714 814 OFFCURVE",
"659 687 OFFCURVE",
"515 504 CURVE SMOOTH",
"382 339 OFFCURVE",
"272 228 OFFCURVE",
"83 61 CURVE SMOOTH",
"56 37 LINE",
"56 0 LINE",
"869 0 LINE"
);
},
{
closed = 1;
nodes = (
"472 1411 LINE",
"476 1413 LINE",
"477 1415 LINE",
"477 1416 OFFCURVE",
"477 1417 OFFCURVE",
"476 1418 CURVE SMOOTH",
"474 1420 OFFCURVE",
"471 1420 OFFCURVE",
"468 1418 CURVE",
"466 1417 LINE",
"467 1416 OFFCURVE",
"467 1415 OFFCURVE",
"466 1413 CURVE",
"467 1411 LINE"
);
}
);
width = 1024;
}
);
note = two;
unicode = 0032;
},
{
glyphname = three;
lastChange = "2019-03-06 14:03:00 +0000";
layers = (
{
layerId = "500BB636-1048-4D7F-B62E-A2796C57CEF4";
paths = (
{
closed = 1;
nodes = (
"772 946 OFFCURVE",
"822 1032 OFFCURVE",
"822 1145 CURVE SMOOTH",
"822 1197 OFFCURVE",
"808 1245 OFFCURVE",
"780 1289 CURVE SMOOTH",
"724 1377 OFFCURVE",
"622 1430 OFFCURVE",
"503 1430 CURVE SMOOTH",
"445 1430 OFFCURVE",
"390 1416 OFFCURVE",
"338 1388 CURVE SMOOTH",
"234 1332 OFFCURVE",
"179 1245 OFFCURVE",
"138 1128 CURVE",
"173 1114 LINE",
"229 1227 OFFCURVE",
"311 1284 OFFCURVE",
"419 1284 CURVE SMOOTH",
"466 1284 OFFCURVE",
"507 1274 OFFCURVE",
"544 1255 CURVE SMOOTH",
"617 1215 OFFCURVE",
"661 1143 OFFCURVE",
"661 1051 CURVE SMOOTH",
"661 942 OFFCURVE",
"597 837 OFFCURVE",
"493 782 CURVE",
"450 757 OFFCURVE",
"428 750 OFFCURVE",
"341 733 CURVE",
"341 694 LINE",
"357 694 LINE SMOOTH",
"485 694 OFFCURVE",
"568 666 OFFCURVE",
"636 601 CURVE SMOOTH",
"704 536 OFFCURVE",
"742 444 OFFCURVE",
"742 344 CURVE SMOOTH",
"742 292 OFFCURVE",
"732 244 OFFCURVE",
"711 201 CURVE SMOOTH",
"669 113 OFFCURVE",
"590 59 OFFCURVE",
"499 59 CURVE SMOOTH",
"472 59 OFFCURVE",
"446 63 OFFCURVE",
"423 71 CURVE SMOOTH",
"404 77 OFFCURVE",
"359 98 OFFCURVE",
"288 133 CURVE SMOOTH",
"249 151 OFFCURVE",
"219 160 OFFCURVE",
"198 160 CURVE SMOOTH",
"175 160 OFFCURVE",
"156 152 OFFCURVE",
"140 136 CURVE",
"144 132 LINE SMOOTH",
"147 129 OFFCURVE",
"152 127 OFFCURVE",
"161 127 CURVE",
"165 126 OFFCURVE",
"168 125 OFFCURVE",
"170 124 CURVE",
"171 123 OFFCURVE",
"171 122 OFFCURVE",
"171 121 CURVE SMOOTH",
"171 119 LINE SMOOTH",
"171 118 OFFCURVE",
"173 117 OFFCURVE",
"173 117 CURVE",
"174 116 OFFCURVE",
"174 114 OFFCURVE",
"173 113 CURVE",
"171 110 LINE",
"169 109 LINE",
"165 109 LINE",
"177 104 LINE",
"178 103 OFFCURVE",
"178 102 OFFCURVE",
"178 101 CURVE",
"177 100 OFFCURVE",
"177 100 OFFCURVE",
"177 101 CURVE",
"176 101 OFFCURVE",
"176 101 OFFCURVE",
"175 101 CURVE",
"169 103 LINE",
"163 105 LINE",
"167 102 LINE",
"169 100 LINE",
"169 100 OFFCURVE",
"169 100 OFFCURVE",
"170 99 CURVE",
"170 98 OFFCURVE",
"169 97 OFFCURVE",
"168 97 CURVE SMOOTH",
"168 97 OFFCURVE",
"168 97 OFFCURVE",
"168 98 CURVE",
"168 98 OFFCURVE",
"168 98 OFFCURVE",
"167 98 CURVE",
"160 103 LINE",
"160 102 LINE SMOOTH",
"160 101 OFFCURVE",
"158 100 OFFCURVE",
"157 101 CURVE",
"151 108 LINE",
"145 116 LINE",
"139 122 OFFCURVE",
"135 125 OFFCURVE",
"134 126 CURVE",
"132 127 LINE",
"123 112 OFFCURVE",
"118 97 OFFCURVE",
"118 84 CURVE SMOOTH",
"118 16 OFFCURVE",
"197 -25 OFFCURVE",
"333 -25 CURVE SMOOTH",
"439 -25 OFFCURVE",
"535 -4 OFFCURVE",
"620 37 CURVE SMOOTH",
"790 120 OFFCURVE",
"890 273 OFFCURVE",
"890 457 CURVE SMOOTH",
"890 633 OFFCURVE",
"803 763 OFFCURVE",
"640 831 CURVE"
);
},
{
closed = 1;
nodes = (
"164 122 OFFCURVE",
"161 122 OFFCURVE",
"159 120 CURVE SMOOTH",
"158 119 OFFCURVE",
"158 118 OFFCURVE",
"158 117 CURVE",
"159 115 LINE",
"163 113 LINE",
"168 113 LINE",
"169 115 LINE",
"168 117 OFFCURVE",
"168 118 OFFCURVE",
"169 119 CURVE",
"167 120 LINE"
);
}
);
width = 1024;
}
);
note = three;
unicode = 0033;
},
{
glyphname = four;
lastChange = "2019-03-06 14:03:00 +0000";
layers = (
{
layerId = "500BB636-1048-4D7F-B62E-A2796C57CEF4";
paths = (
{
closed = 1;
nodes = (
"978 510 LINE",
"787 510 LINE",
"787 1430 LINE",
"681 1430 LINE",
"315 906 LINE",
"319 902 LINE SMOOTH",
"322 899 OFFCURVE",
"327 897 OFFCURVE",
"336 897 CURVE",
"340 896 OFFCURVE",
"343 895 OFFCURVE",
"345 894 CURVE",
"346 893 OFFCURVE",
"346 892 OFFCURVE",
"346 891 CURVE SMOOTH",
"346 889 LINE SMOOTH",
"346 888 OFFCURVE",
"348 887 OFFCURVE",
"348 887 CURVE",
"349 886 OFFCURVE",
"349 884 OFFCURVE",
"348 883 CURVE",
"346 880 LINE",
"344 879 LINE",
"340 879 LINE",
"352 874 LINE",
"353 873 OFFCURVE",
"353 872 OFFCURVE",
"353 871 CURVE",
"352 870 OFFCURVE",
"352 870 OFFCURVE",
"352 871 CURVE",
"351 871 OFFCURVE",
"351 871 OFFCURVE",
"350 871 CURVE",
"344 873 LINE",
"338 875 LINE",
"342 872 LINE",
"344 870 LINE",
"344 870 OFFCURVE",
"344 870 OFFCURVE",
"345 869 CURVE",
"345 868 OFFCURVE",
"344 867 OFFCURVE",
"343 867 CURVE SMOOTH",
"343 867 OFFCURVE",
"343 867 OFFCURVE",
"343 868 CURVE",
"343 868 OFFCURVE",
"343 868 OFFCURVE",
"342 868 CURVE",
"335 873 LINE",
"335 872 LINE SMOOTH",
"335 871 OFFCURVE",
"333 870 OFFCURVE",
"332 871 CURVE",
"326 878 LINE",
"320 886 LINE",
"320 886 OFFCURVE",
"316 889 OFFCURVE",
"308 896 CURVE",
"44 518 LINE",
"44 354 LINE",
"617 354 LINE",
"617 0 LINE",
"787 0 LINE",
"787 354 LINE",
"978 354 LINE"
);
},
{
closed = 1;
nodes = (
"617 1204 LINE",
"617 510 LINE",
"130 510 LINE",
"613 1204 LINE"
);
},
{
closed = 1;
nodes = (
"343 883 LINE",
"344 885 LINE",
"343 887 OFFCURVE",
"343 888 OFFCURVE",
"344 889 CURVE",
"342 890 LINE",
"339 892 OFFCURVE",
"336 892 OFFCURVE",
"334 890 CURVE SMOOTH",
"333 889 OFFCURVE",
"333 888 OFFCURVE",
"333 887 CURVE",
"334 885 LINE",
"338 883 LINE"
);
}
);
width = 1024;
}
);
note = four;
unicode = 0034;
},
{
glyphname = five;
lastChange = "2019-03-06 14:03:00 +0000";
layers = (
{
layerId = "500BB636-1048-4D7F-B62E-A2796C57CEF4";
paths = (
{
closed = 1;
nodes = (
"501 1010 OFFCURVE",
"463 1022 OFFCURVE",
"339 1047 CURVE",
"433 1249 LINE",
"847 1249 LINE",
"923 1407 LINE",
"433 1407 LINE",
"236 1000 LINE",
"240 996 LINE SMOOTH",
"243 993 OFFCURVE",
"248 991 OFFCURVE",
"257 991 CURVE",
"261 990 OFFCURVE",
"264 989 OFFCURVE",
"266 988 CURVE",
"267 987 OFFCURVE",
"267 986 OFFCURVE",
"267 985 CURVE SMOOTH",
"267 983 LINE SMOOTH",
"267 982 OFFCURVE",
"269 981 OFFCURVE",
"269 981 CURVE",
"270 980 OFFCURVE",
"270 978 OFFCURVE",
"269 977 CURVE",
"267 974 LINE",
"265 973 LINE",
"261 973 LINE",
"273 968 LINE",
"274 967 OFFCURVE",
"274 966 OFFCURVE",
"274 965 CURVE",
"273 964 OFFCURVE",
"273 964 OFFCURVE",
"273 965 CURVE",
"272 965 OFFCURVE",
"272 965 OFFCURVE",
"271 965 CURVE",
"265 967 LINE",
"259 969 LINE",
"263 966 LINE",
"265 964 LINE",
"265 964 OFFCURVE",
"265 964 OFFCURVE",
"266 963 CURVE",
"266 962 OFFCURVE",
"265 961 OFFCURVE",
"264 961 CURVE SMOOTH",
"264 961 OFFCURVE",
"264 961 OFFCURVE",
"264 962 CURVE",
"264 962 OFFCURVE",
"264 962 OFFCURVE",
"263 962 CURVE",
"256 967 LINE",
"256 966 LINE SMOOTH",
"256 965 OFFCURVE",
"254 964 OFFCURVE",
"253 965 CURVE",
"247 972 LINE",
"241 980 LINE",
"234 987 OFFCURVE",
"231 990 OFFCURVE",
"231 990 CURVE",
"175 874 LINE",
"289 871 OFFCURVE",
"391 850 OFFCURVE",
"482 809 CURVE SMOOTH",
"663 728 OFFCURVE",
"771 582 OFFCURVE",
"771 406 CURVE SMOOTH",
"771 351 OFFCURVE",
"757 298 OFFCURVE",
"730 247 CURVE SMOOTH",
"674 146 OFFCURVE",
"576 80 OFFCURVE",
"472 80 CURVE SMOOTH",
"422 80 OFFCURVE",
"372 97 OFFCURVE",
"321 131 CURVE SMOOTH",
"284 154 LINE SMOOTH",
"255 173 OFFCURVE",
"227 182 OFFCURVE",
"198 182 CURVE SMOOTH",
"157 182 OFFCURVE",
"126 152 OFFCURVE",
"126 111 CURVE SMOOTH",
"126 88 OFFCURVE",
"136 66 OFFCURVE",
"157 45 CURVE SMOOTH",
"197 3 OFFCURVE",
"269 -25 OFFCURVE",
"349 -25 CURVE SMOOTH",
"490 -25 OFFCURVE",
"636 34 OFFCURVE",
"737 131 CURVE SMOOTH",
"838 228 OFFCURVE",
"900 366 OFFCURVE",
"900 502 CURVE SMOOTH",
"900 697 OFFCURVE",
"784 873 OFFCURVE",
"597 965 CURVE SMOOTH"
);
},
{
closed = 1;
nodes = (
"260 986 OFFCURVE",
"257 986 OFFCURVE",
"255 984 CURVE SMOOTH",
"254 983 OFFCURVE",
"254 982 OFFCURVE",
"254 981 CURVE",
"255 979 LINE",
"259 977 LINE",
"264 977 LINE",
"265 979 LINE",
"264 981 OFFCURVE",
"264 982 OFFCURVE",
"265 983 CURVE",
"263 984 LINE"
);
}
);
width = 1024;
}
);
note = five;
unicode = 0035;
},
{
glyphname = six;
lastChange = "2019-03-06 14:03:00 +0000";
layers = (
{
layerId = "500BB636-1048-4D7F-B62E-A2796C57CEF4";
paths = (
{
closed = 1;
nodes = (
"730 866 OFFCURVE",
"669 883 OFFCURVE",
"601 883 CURVE SMOOTH",
"506 883 OFFCURVE",
"412 846 OFFCURVE",
"320 773 CURVE",
"317 770 OFFCURVE",
"315 768 OFFCURVE",
"314 766 CURVE SMOOTH",
"313 764 OFFCURVE",
"311 762 OFFCURVE",
"309 760 CURVE",
"303 752 LINE",
"297 745 LINE",
"296 744 OFFCURVE",
"294 745 OFFCURVE",
"294 746 CURVE SMOOTH",
"294 747 LINE",
"287 742 LINE",
"286 741 OFFCURVE",
"284 743 OFFCURVE",
"285 744 CURVE",
"285 744 OFFCURVE",
"285 744 OFFCURVE",
"285 744 CURVE",
"287 746 LINE",
"291 749 LINE",
"285 747 LINE",
"279 745 LINE",
"278 745 OFFCURVE",
"278 745 OFFCURVE",
"278 745 CURVE",
"277 744 OFFCURVE",
"277 744 OFFCURVE",
"276 745 CURVE",
"276 746 OFFCURVE",
"276 747 OFFCURVE",
"277 748 CURVE",
"289 753 LINE",
"285 753 LINE",
"283 754 LINE",
"281 757 LINE",
"280 758 OFFCURVE",
"280 760 OFFCURVE",
"281 761 CURVE",
"281 761 OFFCURVE",
"283 762 OFFCURVE",
"283 763 CURVE SMOOTH",
"283 765 LINE SMOOTH",
"283 766 OFFCURVE",
"283 767 OFFCURVE",
"284 768 CURVE",
"286 769 OFFCURVE",
"289 770 OFFCURVE",
"294 771 CURVE",
"302 771 OFFCURVE",
"307 773 OFFCURVE",
"310 776 CURVE SMOOTH",
"314 780 LINE",
"352 922 OFFCURVE",
"408 1040 OFFCURVE",
"482 1135 CURVE SMOOTH",
"557 1232 OFFCURVE",
"662 1317 OFFCURVE",
"751 1354 CURVE SMOOTH",
"811 1381 OFFCURVE",
"840 1386 OFFCURVE",
"927 1389 CURVE",
"927 1430 LINE",
"882 1430 LINE SMOOTH",
"682 1430 OFFCURVE",
"476 1331 OFFCURVE",
"331 1170 CURVE SMOOTH",
"184 1009 OFFCURVE",
"95 782 OFFCURVE",
"95 561 CURVE SMOOTH",
"95 450 OFFCURVE",
"114 350 OFFCURVE",
"153 263 CURVE SMOOTH",
"229 83 OFFCURVE",
"371 -25 OFFCURVE",
"534 -25 CURVE SMOOTH",
"610 -25 OFFCURVE",
"681 -3 OFFCURVE",
"746 42 CURVE SMOOTH",
"876 130 OFFCURVE",
"955 297 OFFCURVE",
"955 477 CURVE SMOOTH",
"955 633 OFFCURVE",
"891 762 OFFCURVE",
"783 831 CURVE SMOOTH"
);
},
{
closed = 1;
nodes = (
"640 52 OFFCURVE",
"601 39 OFFCURVE",
"556 39 CURVE SMOOTH",
"505 39 OFFCURVE",
"459 61 OFFCURVE",
"418 104 CURVE SMOOTH",
"337 190 OFFCURVE",
"286 353 OFFCURVE",
"286 541 CURVE SMOOTH",
"286 588 OFFCURVE",
"291 644 OFFCURVE",
"300 711 CURVE",
"388 771 OFFCURVE",
"445 793 OFFCURVE",
"513 793 CURVE SMOOTH",
"632 793 OFFCURVE",
"712 716 OFFCURVE",
"753 561 CURVE SMOOTH",
"769 495 OFFCURVE",
"777 429 OFFCURVE",
"777 362 CURVE SMOOTH",
"777 231 OFFCURVE",
"740 131 OFFCURVE",
"673 79 CURVE SMOOTH"
);
},
{
closed = 1;
nodes = (
"291 757 LINE",
"295 759 LINE",
"296 761 LINE",
"296 762 OFFCURVE",
"296 763 OFFCURVE",
"295 764 CURVE SMOOTH",
"293 766 OFFCURVE",
"290 766 OFFCURVE",
"287 764 CURVE",
"285 763 LINE",
"286 762 OFFCURVE",
"286 761 OFFCURVE",
"285 759 CURVE",
"286 757 LINE"
);
}
);
width = 1024;
}
);
note = six;
unicode = 0036;
},
{
glyphname = seven;
lastChange = "2019-03-06 14:03:00 +0000";
layers = (
{
layerId = "500BB636-1048-4D7F-B62E-A2796C57CEF4";
paths = (
{
closed = 1;
nodes = (
"374 -25 LINE",
"493 -25 LINE",
"945 1407 LINE",
"216 1407 LINE",
"220 1403 LINE SMOOTH",
"223 1400 OFFCURVE",
"228 1398 OFFCURVE",
"237 1398 CURVE",
"241 1397 OFFCURVE",
"244 1396 OFFCURVE",
"246 1395 CURVE",
"247 1394 OFFCURVE",
"247 1393 OFFCURVE",
"247 1392 CURVE SMOOTH",
"247 1390 LINE SMOOTH",
"247 1389 OFFCURVE",
"249 1388 OFFCURVE",
"249 1388 CURVE",
"250 1387 OFFCURVE",
"250 1385 OFFCURVE",
"249 1384 CURVE",
"247 1381 LINE",
"245 1380 LINE",
"241 1380 LINE",
"253 1375 LINE",
"254 1374 OFFCURVE",
"254 1373 OFFCURVE",
"254 1372 CURVE",
"253 1371 OFFCURVE",
"253 1371 OFFCURVE",
"253 1372 CURVE",
"252 1372 OFFCURVE",
"252 1372 OFFCURVE",
"251 1372 CURVE",
"245 1374 LINE",
"239 1376 LINE",
"243 1373 LINE",
"245 1371 LINE",
"245 1371 OFFCURVE",
"245 1371 OFFCURVE",
"246 1370 CURVE",
"246 1369 OFFCURVE",
"245 1368 OFFCURVE",
"244 1368 CURVE SMOOTH",
"244 1368 OFFCURVE",
"244 1368 OFFCURVE",
"244 1369 CURVE",
"244 1369 OFFCURVE",
"244 1369 OFFCURVE",
"243 1369 CURVE",
"236 1374 LINE",
"236 1373 LINE SMOOTH",
"236 1372 OFFCURVE",
"234 1371 OFFCURVE",
"233 1372 CURVE",
"227 1379 LINE",
"221 1387 LINE",
"220 1388 OFFCURVE",
"218 1390 OFFCURVE",
"215 1393 CURVE",
"212 1395 OFFCURVE",
"210 1397 OFFCURVE",
"209 1399 CURVE",
"85 1090 LINE",
"120 1075 LINE",
"196 1196 OFFCURVE",
"267 1245 OFFCURVE",
"374 1245 CURVE SMOOTH",
"787 1245 LINE"
);
},
{
closed = 1;
nodes = (
"240 1393 OFFCURVE",
"237 1393 OFFCURVE",
"235 1391 CURVE SMOOTH",
"234 1390 OFFCURVE",
"234 1389 OFFCURVE",
"234 1388 CURVE",
"235 1386 LINE",
"239 1384 LINE",
"244 1384 LINE",
"245 1386 LINE",
"244 1388 OFFCURVE",
"244 1389 OFFCURVE",
"245 1390 CURVE",
"243 1391 LINE"
);
}
);
width = 1024;
}
);
note = seven;
unicode = 0037;
},
{
glyphname = eight;
lastChange = "2019-03-06 14:03:00 +0000";
layers = (
{
layerId = "500BB636-1048-4D7F-B62E-A2796C57CEF4";
paths = (
{
closed = 1;
nodes = (
"118 263 OFFCURVE",
"136 204 OFFCURVE",
"171 151 CURVE SMOOTH",
"241 43 OFFCURVE",
"370 -25 OFFCURVE",
"513 -25 CURVE SMOOTH",
"584 -25 OFFCURVE",
"650 -9 OFFCURVE",
"710 23 CURVE SMOOTH",
"829 87 OFFCURVE",
"902 204 OFFCURVE",
"902 336 CURVE SMOOTH",
"902 388 OFFCURVE",
"893 436 OFFCURVE",
"874 480 CURVE SMOOTH",
"837 567 OFFCURVE",
"753 656 OFFCURVE",
"601 772 CURVE",
"589 782 LINE",
"788 905 OFFCURVE",
"871 1007 OFFCURVE",
"871 1128 CURVE SMOOTH",
"871 1181 OFFCURVE",
"854 1231 OFFCURVE",
"821 1278 CURVE SMOOTH",
"754 1370 OFFCURVE",
"630 1430 OFFCURVE",
"501 1430 CURVE SMOOTH",
"433 1430 OFFCURVE",
"371 1416 OFFCURVE",
"315 1387 CURVE SMOOTH",
"202 1330 OFFCURVE",
"134 1224 OFFCURVE",
"134 1100 CURVE SMOOTH",
"134 916 OFFCURVE",
"263 818 OFFCURVE",
"372 733 CURVE SMOOTH",
"392 717 LINE",
"372 701 LINE SMOOTH",
"317 658 OFFCURVE",
"273 620 OFFCURVE",
"241 588 CURVE SMOOTH",
"177 524 OFFCURVE",
"118 434 OFFCURVE",
"118 326 CURVE SMOOTH"
);
},
{
closed = 1;
nodes = (
"280 1201 OFFCURVE",
"290 1237 OFFCURVE",
"309 1270 CURVE SMOOTH",
"348 1334 OFFCURVE",
"418 1374 OFFCURVE",
"503 1374 CURVE SMOOTH",
"648 1374 OFFCURVE",
"732 1286 OFFCURVE",
"732 1130 CURVE SMOOTH",
"732 1011 OFFCURVE",
"678 927 OFFCURVE",
"538 823 CURVE",
"466 883 LINE SMOOTH",
"334 987 OFFCURVE",
"280 1069 OFFCURVE",
"280 1161 CURVE SMOOTH"
);
},
{
closed = 1;
nodes = (
"269 474 OFFCURVE",
"320 576 OFFCURVE",
"439 680 CURVE",
"523 608 LINE SMOOTH",
"699 459 OFFCURVE",
"763 367 OFFCURVE",
"763 264 CURVE SMOOTH",
"763 222 OFFCURVE",
"753 184 OFFCURVE",
"732 149 CURVE SMOOTH",
"691 80 OFFCURVE",
"614 37 OFFCURVE",
"525 37 CURVE SMOOTH",
"476 37 OFFCURVE",
"432 50 OFFCURVE",
"393 76 CURVE SMOOTH",
"316 128 OFFCURVE",
"269 225 OFFCURVE",
"269 342 CURVE SMOOTH"
);
}
);
width = 1024;
}
);
note = eight;
unicode = 0038;
},
{
glyphname = nine;
lastChange = "2019-03-06 14:03:00 +0000";
layers = (
{
layerId = "500BB636-1048-4D7F-B62E-A2796C57CEF4";
paths = (
{
closed = 1;
nodes = (
"653 1405 OFFCURVE",
"578 1430 OFFCURVE",
"493 1430 CURVE SMOOTH",
"341 1430 OFFCURVE",
"203 1337 OFFCURVE",
"130 1186 CURVE SMOOTH",
"94 1113 OFFCURVE",
"74 1025 OFFCURVE",
"74 936 CURVE SMOOTH",
"74 862 OFFCURVE",
"88 793 OFFCURVE",
"117 729 CURVE SMOOTH",
"173 601 OFFCURVE",
"291 522 OFFCURVE",
"427 522 CURVE SMOOTH",
"520 522 OFFCURVE",
"611 554 OFFCURVE",
"702 618 CURVE",
"704 619 OFFCURVE",
"706 621 OFFCURVE",
"709 624 CURVE",
"711 627 OFFCURVE",
"713 629 OFFCURVE",
"714 630 CURVE",
"720 638 LINE",
"726 645 LINE",
"727 646 OFFCURVE",
"729 645 OFFCURVE",
"729 644 CURVE SMOOTH",
"729 643 LINE",
"736 648 LINE",
"737 649 OFFCURVE",
"739 647 OFFCURVE",
"739 647 CURVE",
"738 646 OFFCURVE",
"738 646 OFFCURVE",
"738 646 CURVE",
"736 644 LINE",
"732 641 LINE",
"738 643 LINE",
"744 645 LINE",
"745 645 OFFCURVE",
"745 645 OFFCURVE",
"746 646 CURVE",
"746 646 OFFCURVE",
"746 646 OFFCURVE",
"747 645 CURVE",
"747 644 OFFCURVE",
"747 643 OFFCURVE",
"746 642 CURVE",
"734 637 LINE",
"738 637 LINE",
"740 636 LINE",
"742 633 LINE",
"743 632 OFFCURVE",
"743 630 OFFCURVE",
"742 629 CURVE",
"742 629 OFFCURVE",
"740 628 OFFCURVE",
"740 627 CURVE SMOOTH",
"740 625 LINE SMOOTH",
"740 624 OFFCURVE",
"740 623 OFFCURVE",
"739 622 CURVE",
"737 621 OFFCURVE",
"734 620 OFFCURVE",
"730 620 CURVE",
"725 619 OFFCURVE",
"722 619 OFFCURVE",
"719 618 CURVE",
"718 618 OFFCURVE",
"717 618 OFFCURVE",
"715 617 CURVE SMOOTH",
"713 616 OFFCURVE",
"711 613 OFFCURVE",
"710 610 CURVE",
"667 446 OFFCURVE",
"588 307 OFFCURVE",
"474 193 CURVE SMOOTH",
"357 73 OFFCURVE",
"246 22 OFFCURVE",
"93 18 CURVE",
"93 -18 LINE",
"116 -23 OFFCURVE",
"135 -25 OFFCURVE",
"149 -25 CURVE SMOOTH",
"346 -25 OFFCURVE",
"550 75 OFFCURVE",
"697 238 CURVE SMOOTH",
"844 401 OFFCURVE",
"933 627 OFFCURVE",
"933 846 CURVE SMOOTH",
"933 1069 OFFCURVE",
"855 1255 OFFCURVE",
"720 1355 CURVE SMOOTH"
);
},
{
closed = 1;
nodes = (
"653 641 OFFCURVE",
"582 612 OFFCURVE",
"517 612 CURVE SMOOTH",
"425 612 OFFCURVE",
"349 664 OFFCURVE",
"310 756 CURVE SMOOTH",
"271 843 OFFCURVE",
"251 946 OFFCURVE",
"251 1065 CURVE SMOOTH",
"251 1126 OFFCURVE",
"260 1179 OFFCURVE",
"279 1225 CURVE SMOOTH",
"315 1316 OFFCURVE",
"383 1368 OFFCURVE",
"474 1368 CURVE SMOOTH",
"528 1368 OFFCURVE",
"575 1347 OFFCURVE",
"615 1306 CURVE SMOOTH",
"695 1223 OFFCURVE",
"740 1063 OFFCURVE",
"740 856 CURVE SMOOTH",
"740 808 OFFCURVE",
"736 755 OFFCURVE",
"728 698 CURVE"
);
},
{
closed = 1;
nodes = (
"732 633 LINE",
"728 631 LINE",
"727 629 LINE",
"727 628 OFFCURVE",
"727 627 OFFCURVE",
"728 626 CURVE SMOOTH",
"730 624 OFFCURVE",
"733 624 OFFCURVE",
"736 626 CURVE",
"738 627 LINE",
"737 628 OFFCURVE",
"737 629 OFFCURVE",
"738 631 CURVE",
"737 633 LINE"
);
}
);
width = 1024;
}
);
note = nine;
unicode = 0039;
},
{
glyphname = colon;
lastChange = "2019-03-06 14:03:00 +0000";
layers = (
{
layerId = "500BB636-1048-4D7F-B62E-A2796C57CEF4";
paths = (
{
closed = 1;
nodes = (
"221 761 OFFCURVE",
"247 750 OFFCURVE",
"278 750 CURVE SMOOTH",
"339 750 OFFCURVE",
"390 801 OFFCURVE",
"390 862 CURVE SMOOTH",
"390 923 OFFCURVE",
"339 973 OFFCURVE",
"278 973 CURVE SMOOTH",
"217 973 OFFCURVE",
"167 923 OFFCURVE",
"167 862 CURVE SMOOTH",
"167 831 OFFCURVE",
"178 805 OFFCURVE",
"200 783 CURVE SMOOTH"
);
},
{
closed = 1;
nodes = (
"221 -16 OFFCURVE",
"247 -27 OFFCURVE",
"278 -27 CURVE SMOOTH",
"341 -27 OFFCURVE",
"392 23 OFFCURVE",
"392 86 CURVE SMOOTH",
"392 149 OFFCURVE",
"341 199 OFFCURVE",
"278 199 CURVE SMOOTH",
"217 199 OFFCURVE",
"165 149 OFFCURVE",
"165 86 CURVE SMOOTH",
"165 55 OFFCURVE",
"176 28 OFFCURVE",
"199 6 CURVE SMOOTH"
);
}
);
width = 555;
}
);
note = colon;
unicode = 003A;
},
{
glyphname = semicolon;
lastChange = "2019-03-06 14:03:00 +0000";
layers = (
{
layerId = "500BB636-1048-4D7F-B62E-A2796C57CEF4";
paths = (
{
closed = 1;
nodes = (
"165 799 OFFCURVE",
"217 750 OFFCURVE",
"278 750 CURVE SMOOTH",
"339 750 OFFCURVE",
"390 799 OFFCURVE",
"390 862 CURVE SMOOTH",
"390 923 OFFCURVE",
"339 973 OFFCURVE",
"278 973 CURVE SMOOTH",
"217 973 OFFCURVE",
"165 923 OFFCURVE",
"165 862 CURVE SMOOTH"
);
},
{
closed = 1;
nodes = (
"324 -271 OFFCURVE",
"423 -159 OFFCURVE",
"423 -4 CURVE SMOOTH",
"423 36 OFFCURVE",
"416 72 OFFCURVE",
"402 103 CURVE SMOOTH",
"373 166 OFFCURVE",
"320 203 OFFCURVE",
"257 203 CURVE SMOOTH",
"185 203 OFFCURVE",
"128 150 OFFCURVE",
"128 82 CURVE SMOOTH",
"128 23 OFFCURVE",
"178 -27 OFFCURVE",
"235 -27 CURVE SMOOTH",
"248 -27 OFFCURVE",
"263 -23 OFFCURVE",
"282 -16 CURVE",
"304 -2 LINE",
"310 1 OFFCURVE",
"316 2 OFFCURVE",
"321 2 CURVE SMOOTH",
"340 2 OFFCURVE",
"351 -16 OFFCURVE",
"351 -45 CURVE SMOOTH",
"351 -70 OFFCURVE",
"338 -120 OFFCURVE",
"323 -147 CURVE SMOOTH",
"284 -219 OFFCURVE",
"230 -262 OFFCURVE",
"126 -303 CURVE",
"126 -342 LINE"
);
}
);
width = 555;
}
);
note = semicolon;
unicode = 003B;
},
{
glyphname = less;
lastChange = "2019-03-06 14:03:00 +0000";
layers = (
{
layerId = "500BB636-1048-4D7F-B62E-A2796C57CEF4";
paths = (
{
closed = 1;
nodes = (
"1220 160 LINE",
"1220 262 LINE",
"269 657 LINE",
"1220 1051 LINE",
"1220 1153 LINE",
"146 700 LINE",
"146 616 LINE"
);
}
);
width = 1368;
}
);
note = less;
unicode = 003C;
},
{
glyphname = equal;
lastChange = "2019-03-06 14:03:00 +0000";
layers = (
{
layerId = "500BB636-1048-4D7F-B62E-A2796C57CEF4";
paths = (
{
closed = 1;
nodes = (
"1220 846 LINE",
"1220 940 LINE",
"144 940 LINE",
"144 846 LINE"
);
},
{
closed = 1;
nodes = (
"1220 381 LINE",
"1220 475 LINE",
"144 475 LINE",
"144 381 LINE"
);
}
);
width = 1366;
}
);
note = equal;
unicode = 003D;
},
{
glyphname = greater;
lastChange = "2019-03-06 14:03:00 +0000";
layers = (
{
layerId = "500BB636-1048-4D7F-B62E-A2796C57CEF4";
paths = (
{
closed = 1;
nodes = (
"1220 614 LINE",
"1220 698 LINE",
"146 1153 LINE",
"146 1051 LINE",
"1095 655 LINE",
"146 262 LINE",
"146 160 LINE"
);
}
);
width = 1366;
}
);
note = greater;
unicode = 003E;
},
{
glyphname = question;
lastChange = "2019-03-06 14:03:00 +0000";
layers = (
{
layerId = "500BB636-1048-4D7F-B62E-A2796C57CEF4";
paths = (
{
closed = 1;
nodes = (
"521 1424 OFFCURVE",
"463 1438 OFFCURVE",
"398 1438 CURVE SMOOTH",
"335 1438 OFFCURVE",
"276 1425 OFFCURVE",
"222 1398 CURVE SMOOTH",
"114 1345 OFFCURVE",
"46 1245 OFFCURVE",
"46 1137 CURVE SMOOTH",
"46 1111 OFFCURVE",
"52 1086 OFFCURVE",
"63 1062 CURVE SMOOTH",
"85 1014 OFFCURVE",
"122 983 OFFCURVE",
"163 983 CURVE SMOOTH",
"181 983 OFFCURVE",
"198 990 OFFCURVE",
"213 1004 CURVE",
"209 1008 LINE SMOOTH",
"206 1011 OFFCURVE",
"201 1013 OFFCURVE",
"193 1014 CURVE",
"188 1014 OFFCURVE",
"185 1015 OFFCURVE",
"183 1016 CURVE",
"182 1017 OFFCURVE",
"182 1018 OFFCURVE",
"182 1019 CURVE SMOOTH",
"182 1021 LINE SMOOTH",
"182 1022 OFFCURVE",
"180 1023 OFFCURVE",
"180 1023 CURVE",
"179 1024 OFFCURVE",
"179 1026 OFFCURVE",
"180 1027 CURVE",
"182 1030 LINE",
"184 1031 LINE",
"188 1031 LINE",
"176 1036 LINE",
"175 1037 OFFCURVE",
"175 1038 OFFCURVE",
"175 1039 CURVE",
"176 1040 OFFCURVE",
"176 1040 OFFCURVE",
"177 1040 CURVE",
"177 1039 OFFCURVE",
"177 1039 OFFCURVE",
"178 1039 CURVE",
"184 1037 LINE",
"190 1035 LINE",
"186 1038 LINE",
"184 1040 LINE",
"184 1040 OFFCURVE",
"184 1041 OFFCURVE",
"184 1042 CURVE",
"183 1043 OFFCURVE",
"184 1043 OFFCURVE",
"185 1043 CURVE",
"185 1043 OFFCURVE",
"185 1043 OFFCURVE",
"186 1043 CURVE",
"186 1043 OFFCURVE",
"186 1043 OFFCURVE",
"186 1042 CURVE",
"193 1037 LINE",
"193 1038 LINE SMOOTH",
"193 1039 OFFCURVE",
"195 1040 OFFCURVE",
"196 1039 CURVE",
"202 1032 LINE",
"208 1024 LINE",
"214 1018 OFFCURVE",
"218 1015 OFFCURVE",
"219 1014 CURVE",
"221 1013 LINE",
"234 1030 OFFCURVE",
"241 1048 OFFCURVE",
"241 1067 CURVE SMOOTH",
"241 1082 OFFCURVE",
"236 1101 OFFCURVE",
"226 1124 CURVE",
"189 1192 LINE",
"180 1213 OFFCURVE",
"175 1228 OFFCURVE",
"175 1239 CURVE SMOOTH",
"175 1261 OFFCURVE",
"183 1283 OFFCURVE",
"199 1304 CURVE SMOOTH",
"231 1346 OFFCURVE",
"285 1374 OFFCURVE",
"341 1374 CURVE SMOOTH",
"383 1374 OFFCURVE",
"421 1362 OFFCURVE",
"454 1337 CURVE SMOOTH",
"520 1288 OFFCURVE",
"558 1194 OFFCURVE",
"558 1079 CURVE SMOOTH",
"558 1039 OFFCURVE",
"555 1004 OFFCURVE",
"550 974 CURVE SMOOTH",
"538 913 OFFCURVE",
"523 879 OFFCURVE",
"464 748 CURVE SMOOTH",
"448 713 LINE SMOOTH",
"396 598 OFFCURVE",
"370 490 OFFCURVE",
"370 389 CURVE",
"372 334 LINE",
"409 334 LINE",
"409 348 LINE SMOOTH",
"409 389 OFFCURVE",
"413 428 OFFCURVE",
"420 465 CURVE SMOOTH",
"434 539 OFFCURVE",
"465 602 OFFCURVE",
"564 725 CURVE SMOOTH",
"613 784 OFFCURVE",
"650 835 OFFCURVE",
"676 876 CURVE SMOOTH",
"728 958 OFFCURVE",
"747 1024 OFFCURVE",
"747 1116 CURVE SMOOTH",
"747 1235 OFFCURVE",
"682 1338 OFFCURVE",
"574 1395 CURVE SMOOTH"
);
},
{
closed = 1;
nodes = (
"189 1018 OFFCURVE",
"192 1018 OFFCURVE",
"194 1020 CURVE SMOOTH",
"195 1021 OFFCURVE",
"195 1022 OFFCURVE",
"195 1023 CURVE",
"194 1025 LINE",
"190 1027 LINE",
"185 1027 LINE",
"184 1025 LINE",
"185 1023 OFFCURVE",
"185 1022 OFFCURVE",
"184 1021 CURVE",
"186 1020 LINE"
);
},
{
closed = 1;
nodes = (
"335 199 OFFCURVE",
"286 147 OFFCURVE",
"286 86 CURVE SMOOTH",
"286 23 OFFCURVE",
"335 -27 OFFCURVE",
"398 -27 CURVE SMOOTH",
"459 -27 OFFCURVE",
"511 23 OFFCURVE",
"511 86 CURVE SMOOTH",
"511 147 OFFCURVE",
"459 199 OFFCURVE",
"398 199 CURVE SMOOTH"
);
}
);
width = 788;
}
);
note = question;
unicode = 003F;
},
{
glyphname = at;
lastChange = "2019-03-06 14:03:00 +0000";
layers = (
{
layerId = "500BB636-1048-4D7F-B62E-A2796C57CEF4";
paths = (
{
closed = 1;
nodes = (
"95 135 OFFCURVE",
"222 -94 OFFCURVE",
"398 -242 CURVE SMOOTH",
"551 -371 OFFCURVE",
"751 -442 OFFCURVE",
"968 -442 CURVE SMOOTH",
"1101 -442 OFFCURVE",
"1226 -417 OFFCURVE",
"1343 -366 CURVE SMOOTH",
"1578 -265 OFFCURVE",
"1754 -73 OFFCURVE",
"1834 172 CURVE",
"1777 172 LINE",
"1625 -183 OFFCURVE",
"1336 -381 OFFCURVE",
"972 -381 CURVE SMOOTH",
"822 -381 OFFCURVE",
"687 -347 OFFCURVE",
"568 -279 CURVE SMOOTH",
"328 -144 OFFCURVE",
"189 109 OFFCURVE",
"189 418 CURVE SMOOTH",
"189 673 OFFCURVE",
"282 921 OFFCURVE",
"439 1094 CURVE SMOOTH",
"595 1267 OFFCURVE",
"819 1370 OFFCURVE",
"1050 1370 CURVE SMOOTH",
"1174 1370 OFFCURVE",
"1285 1344 OFFCURVE",
"1384 1292 CURVE SMOOTH",
"1580 1187 OFFCURVE",
"1695 991 OFFCURVE",
"1695 754 CURVE SMOOTH",
"1695 569 OFFCURVE",
"1629 376 OFFCURVE",
"1521 248 CURVE SMOOTH",
"1453 164 OFFCURVE",
"1349 102 OFFCURVE",
"1273 102 CURVE SMOOTH",
"1230 102 OFFCURVE",
"1197 135 OFFCURVE",
"1197 180 CURVE SMOOTH",
"1197 184 LINE",
"1198 211 OFFCURVE",
"1209 264 OFFCURVE",
"1230 344 CURVE SMOOTH",
"1291 559 LINE",
"1408 958 LINE",
"1250 936 LINE",
"1220 825 LINE",
"1216 825 LINE",
"1196 918 OFFCURVE",
"1139 965 OFFCURVE",
"1046 965 CURVE SMOOTH",
"958 965 OFFCURVE",
"850 906 OFFCURVE",
"747 803 CURVE SMOOTH",
"596 648 OFFCURVE",
"495 432 OFFCURVE",
"495 264 CURVE SMOOTH",
"495 220 OFFCURVE",
"503 180 OFFCURVE",
"519 145 CURVE SMOOTH",
"550 74 OFFCURVE",
"606 31 OFFCURVE",
"675 31 CURVE SMOOTH",
"749 31 OFFCURVE",
"826 67 OFFCURVE",
"906 139 CURVE SMOOTH",
"967 196 OFFCURVE",
"989 220 OFFCURVE",
"1064 315 CURVE",
"1068 311 LINE",
"1057 262 OFFCURVE",
"1052 215 OFFCURVE",
"1052 170 CURVE SMOOTH",
"1052 77 OFFCURVE",
"1103 31 OFFCURVE",
"1205 31 CURVE SMOOTH",
"1336 31 OFFCURVE",
"1459 91 OFFCURVE",
"1559 197 CURVE SMOOTH",
"1658 303 OFFCURVE",
"1756 486 OFFCURVE",
"1756 737 CURVE SMOOTH",
"1756 871 OFFCURVE",
"1726 990 OFFCURVE",
"1667 1094 CURVE SMOOTH",
"1547 1302 OFFCURVE",
"1320 1423 OFFCURVE",
"1041 1423 CURVE SMOOTH",
"788 1423 OFFCURVE",
"541 1317 OFFCURVE",
"369 1140 CURVE SMOOTH",
"197 963 OFFCURVE",
"95 708 OFFCURVE",
"95 444 CURVE SMOOTH"
);
},
{
closed = 1;
nodes = (
"652 383 OFFCURVE",
"701 524 OFFCURVE",
"774 655 CURVE SMOOTH",
"846 786 OFFCURVE",
"947 918 OFFCURVE",
"1056 918 CURVE SMOOTH",
"1129 918 OFFCURVE",
"1181 857 OFFCURVE",
"1181 770 CURVE SMOOTH",
"1181 713 OFFCURVE",
"1166 638 OFFCURVE",
"1136 545 CURVE SMOOTH",
"1108 458 OFFCURVE",
"1088 417 OFFCURVE",
"1033 344 CURVE SMOOTH",
"936 216 OFFCURVE",
"848 152 OFFCURVE",
"767 152 CURVE SMOOTH",
"746 152 OFFCURVE",
"727 158 OFFCURVE",
"710 171 CURVE",
"674 196 OFFCURVE",
"652 242 OFFCURVE",
"652 295 CURVE SMOOTH"
);
}
);
width = 1878;
}
);
note = at;
unicode = 0040;
},
{
glyphname = A;
lastChange = "2019-03-06 15:19:40 +0000";
layers = (
{
layerId = "500BB636-1048-4D7F-B62E-A2796C57CEF4";
paths = (
{
closed = 1;
nodes = (
"1551 37 LINE",
"1543 37 LINE SMOOTH",
"1509 37 OFFCURVE",
"1482 41 OFFCURVE",
"1461 50 CURVE SMOOTH",
"1419 67 OFFCURVE",
"1387 109 OFFCURVE",
"1355 186 CURVE SMOOTH",
"798 1468 LINE",
"759 1468 LINE",
"218 236 LINE SMOOTH",
"196 185 OFFCURVE",
"177 146 OFFCURVE",
"160 120 CURVE SMOOTH",
"126 67 OFFCURVE",
"91 45 OFFCURVE",
"28 37 CURVE",
"28 0 LINE",
"435 0 LINE",
"435 37 LINE",
"431 37 LINE SMOOTH",
"333 37 OFFCURVE",
"284 68 OFFCURVE",
"284 131 CURVE SMOOTH",
"284 150 OFFCURVE",
"288 168 OFFCURVE",
"296 186 CURVE SMOOTH",
"421 473 LINE",
"988 473 LINE",
"989 474 OFFCURVE",
"993 477 OFFCURVE",
"998 482 CURVE",
"1004 490 LINE",
"1010 497 LINE",
"1011 498 OFFCURVE",
"1013 497 OFFCURVE",
"1013 496 CURVE SMOOTH",
"1013 495 LINE",
"1020 500 LINE",
"1021 501 OFFCURVE",
"1023 499 OFFCURVE",
"1023 499 CURVE",
"1022 498 OFFCURVE",
"1022 498 OFFCURVE",
"1022 498 CURVE",
"1020 496 LINE",
"1016 493 LINE",
"1022 495 LINE",
"1028 497 LINE",
"1029 497 OFFCURVE",
"1029 497 OFFCURVE",
"1030 498 CURVE",
"1030 498 OFFCURVE",
"1030 498 OFFCURVE",
"1031 497 CURVE",
"1031 496 OFFCURVE",
"1031 495 OFFCURVE",
"1030 494 CURVE",
"1018 489 LINE",
"1022 489 LINE",
"1024 488 LINE",
"1026 485 LINE",
"1027 484 OFFCURVE",
"1027 482 OFFCURVE",
"1026 481 CURVE",
"1026 481 OFFCURVE",
"1024 480 OFFCURVE",
"1024 479 CURVE SMOOTH",
"1024 477 LINE SMOOTH",
"1024 476 OFFCURVE",
"1024 475 OFFCURVE",
"1023 474 CURVE",
"1021 473 OFFCURVE",
"1018 472 OFFCURVE",
"1014 472 CURVE",
"1005 471 OFFCURVE",
"1000 469 OFFCURVE",
"997 466 CURVE SMOOTH",
"993 462 LINE",
"1095 231 LINE",
"1112 186 OFFCURVE",
"1121 155 OFFCURVE",
"1121 137 CURVE SMOOTH",
"1121 76 OFFCURVE",
"1066 37 OFFCURVE",
"978 37 CURVE SMOOTH",
"974 37 LINE",
"974 0 LINE",
"1551 0 LINE"
);
},
{
closed = 1;
nodes = (
"955 551 LINE",
"454 551 LINE",
"706 1122 LINE"
);
},
{
closed = 1;
nodes = (
"1016 485 LINE",
"1012 483 LINE",
"1011 481 LINE",
"1011 480 OFFCURVE",
"1011 479 OFFCURVE",
"1012 478 CURVE SMOOTH",
"1014 476 OFFCURVE",
"1017 476 OFFCURVE",
"1020 478 CURVE",
"1022 479 LINE",
"1021 480 OFFCURVE",
"1021 481 OFFCURVE",
"1022 483 CURVE",
"1021 485 LINE"
);
}
);
width = 1579;
}
);
note = A;
unicode = 0041;
},
{
glyphname = B;
lastChange = "2019-03-06 14:56:07 +0000";
layers = (
{
layerId = "500BB636-1048-4D7F-B62E-A2796C57CEF4";
paths = (
{
closed = 1;
nodes = (
"1132 663 OFFCURVE",
"1072 692 OFFCURVE",
"957 716 CURVE",
"954 717 OFFCURVE",
"952 716 OFFCURVE",
"951 714 CURVE",
"949 711 OFFCURVE",
"948 710 OFFCURVE",
"947 709 CURVE SMOOTH",
"945 707 OFFCURVE",
"943 704 OFFCURVE",
"941 701 CURVE",
"938 697 OFFCURVE",
"936 694 OFFCURVE",
"934 693 CURVE",
"933 693 OFFCURVE",
"932 693 OFFCURVE",
"931 694 CURVE",
"929 695 LINE",
"926 694 LINE",
"925 694 OFFCURVE",
"924 695 OFFCURVE",
"923 696 CURVE",
"921 699 LINE",
"921 702 LINE",
"923 705 LINE",
"915 698 LINE",
"913 697 OFFCURVE",
"911 697 OFFCURVE",
"910 698 CURVE SMOOTH",
"909 699 OFFCURVE",
"909 699 OFFCURVE",
"910 700 CURVE",
"911 700 OFFCURVE",
"911 700 OFFCURVE",
"911 700 CURVE SMOOTH",
"911 700 OFFCURVE",
"913 702 OFFCURVE",
"916 705 CURVE",
"921 709 LINE",
"916 707 LINE",
"913 706 LINE",
"913 706 OFFCURVE",
"913 706 OFFCURVE",
"912 706 CURVE SMOOTH",
"911 706 OFFCURVE",
"911 706 OFFCURVE",
"910 707 CURVE SMOOTH",
"909 708 OFFCURVE",
"912 709 OFFCURVE",
"913 709 CURVE",
"917 711 OFFCURVE",
"920 712 OFFCURVE",
"921 712 CURVE",
"920 713 OFFCURVE",
"919 715 OFFCURVE",
"920 716 CURVE",
"924 717 OFFCURVE",
"927 718 OFFCURVE",
"929 718 CURVE SMOOTH",
"930 718 OFFCURVE",
"934 719 OFFCURVE",
"939 720 CURVE",
"955 725 LINE",
"1114 764 OFFCURVE",
"1209 880 OFFCURVE",
"1209 1032 CURVE SMOOTH",
"1209 1157 OFFCURVE",
"1142 1268 OFFCURVE",
"1025 1333 CURVE SMOOTH",
"932 1382 OFFCURVE",
"805 1407 OFFCURVE",
"646 1407 CURVE SMOOTH",
"83 1407 LINE",
"83 1368 LINE",
"95 1368 LINE SMOOTH",
"146 1367 OFFCURVE",
"184 1362 OFFCURVE",
"211 1351 CURVE SMOOTH",
"264 1330 OFFCURVE",
"286 1281 OFFCURVE",
"286 1192 CURVE SMOOTH",
"286 215 LINE SMOOTH",
"286 170 OFFCURVE",
"280 135 OFFCURVE",
"268 110 CURVE SMOOTH",
"244 59 OFFCURVE",
"190 38 OFFCURVE",
"95 37 CURVE SMOOTH",
"83 37 LINE",
"83 0 LINE",
"728 -2 LINE SMOOTH",
"915 -2 OFFCURVE",
"1046 32 OFFCURVE",
"1134 100 CURVE SMOOTH",
"1223 168 OFFCURVE",
"1273 266 OFFCURVE",
"1273 377 CURVE SMOOTH",
"1273 462 OFFCURVE",
"1245 536 OFFCURVE",
"1189 598 CURVE SMOOTH"
);
},
{
closed = 1;
nodes = (
"509 1327 LINE",
"558 1335 OFFCURVE",
"599 1339 OFFCURVE",
"634 1339 CURVE SMOOTH",
"699 1339 OFFCURVE",
"758 1326 OFFCURVE",
"810 1301 CURVE SMOOTH",
"913 1250 OFFCURVE",
"974 1156 OFFCURVE",
"974 1040 CURVE SMOOTH",
"974 985 OFFCURVE",
"961 936 OFFCURVE",
"935 893 CURVE SMOOTH",
"883 806 OFFCURVE",
"786 756 OFFCURVE",
"667 756 CURVE SMOOTH",
"636 756 OFFCURVE",
"595 761 OFFCURVE",
"544 772 CURVE",
"509 778 LINE"
);
},
{
closed = 1;
nodes = (
"930 707 OFFCURVE",
"929 706 OFFCURVE",
"928 705 CURVE",
"925 700 LINE",
"926 698 LINE",
"927 697 OFFCURVE",
"928 697 OFFCURVE",
"929 698 CURVE",
"930 698 OFFCURVE",
"930 698 OFFCURVE",
"930 697 CURVE",
"932 698 LINE",
"940 701 OFFCURVE",
"936 707 OFFCURVE",
"931 707 CURVE SMOOTH"
);
},
{
closed = 1;
nodes = (
"802 85 OFFCURVE",
"743 72 OFFCURVE",
"677 72 CURVE SMOOTH",
"601 72 OFFCURVE",
"574 75 OFFCURVE",
"509 98 CURVE",
"509 682 LINE",
"539 686 OFFCURVE",
"571 688 OFFCURVE",
"605 688 CURVE SMOOTH",
"686 688 OFFCURVE",
"758 675 OFFCURVE",
"821 650 CURVE SMOOTH",
"945 598 OFFCURVE",
"1015 500 OFFCURVE",
"1015 375 CURVE SMOOTH",
"1015 255 OFFCURVE",
"957 161 OFFCURVE",
"854 110 CURVE SMOOTH"
);
}
);
width = 1366;
}
);
note = B;
unicode = 0042;
},
{
glyphname = C;
lastChange = "2019-03-06 15:17:43 +0000";
layers = (
{
layerId = "500BB636-1048-4D7F-B62E-A2796C57CEF4";
paths = (
{
closed = 1;
nodes = (
"1472 388 OFFCURVE",
"1413 304 OFFCURVE",
"1346 237 CURVE SMOOTH",
"1213 103 OFFCURVE",
"1064 41 OFFCURVE",
"915 41 CURVE SMOOTH",
"904 41 OFFCURVE",
"888 42 OFFCURVE",
"867 43 CURVE",
"754 53 OFFCURVE",
"659 90 OFFCURVE",
"580 155 CURVE SMOOTH",
"423 283 OFFCURVE",
"345 484 OFFCURVE",
"345 680 CURVE SMOOTH",
"345 911 OFFCURVE",
"396 1085 OFFCURVE",
"499 1204 CURVE SMOOTH",
"587 1303 OFFCURVE",
"731 1366 OFFCURVE",
"871 1366 CURVE SMOOTH",
"998 1366 OFFCURVE",
"1134 1315 OFFCURVE",
"1222 1235 CURVE SMOOTH",
"1297 1164 OFFCURVE",
"1338 1083 OFFCURVE",
"1361 963 CURVE",
"1396 963 LINE",
"1361 1440 LINE",
"1326 1440 LINE",
"1324 1432 LINE SMOOTH",
"1307 1372 OFFCURVE",
"1284 1347 OFFCURVE",
"1249 1347 CURVE SMOOTH",
"1235 1347 OFFCURVE",
"1216 1352 OFFCURVE",
"1191 1362 CURVE",
"1085 1413 OFFCURVE",
"972 1438 OFFCURVE",
"853 1438 CURVE SMOOTH",
"646 1438 OFFCURVE",
"446 1356 OFFCURVE",
"309 1219 CURVE SMOOTH",
"168 1080 OFFCURVE",
"85 887 OFFCURVE",
"85 684 CURVE",
"89 680 LINE SMOOTH",
"92 677 OFFCURVE",
"97 675 OFFCURVE",
"106 675 CURVE",
"110 674 OFFCURVE",
"113 673 OFFCURVE",
"115 672 CURVE",
"116 671 OFFCURVE",
"116 670 OFFCURVE",
"116 669 CURVE SMOOTH",
"116 667 LINE SMOOTH",
"116 666 OFFCURVE",
"118 665 OFFCURVE",
"118 665 CURVE",
"119 664 OFFCURVE",
"119 662 OFFCURVE",
"118 661 CURVE",
"116 658 LINE",
"114 657 LINE",
"110 657 LINE",
"122 652 LINE",
"123 651 OFFCURVE",
"123 650 OFFCURVE",
"123 649 CURVE",
"122 648 OFFCURVE",
"122 648 OFFCURVE",
"122 649 CURVE",
"121 649 OFFCURVE",
"121 649 OFFCURVE",
"120 649 CURVE",
"114 651 LINE",
"108 653 LINE",
"112 650 LINE",
"114 648 LINE",
"114 648 OFFCURVE",
"114 648 OFFCURVE",
"115 647 CURVE",
"115 646 OFFCURVE",
"114 645 OFFCURVE",
"113 645 CURVE SMOOTH",
"113 645 OFFCURVE",
"113 645 OFFCURVE",
"113 646 CURVE",
"113 646 OFFCURVE",
"113 646 OFFCURVE",
"112 646 CURVE",
"105 651 LINE",
"105 650 LINE SMOOTH",
"105 649 OFFCURVE",
"103 648 OFFCURVE",
"102 649 CURVE",
"96 656 LINE",
"85 670 LINE",
"89 395 OFFCURVE",
"223 174 OFFCURVE",
"443 51 CURVE SMOOTH",
"663 -72 OFFCURVE",
"912 -72 OFFCURVE",
"1090 -3 CURVE SMOOTH",
"1268 66 OFFCURVE",
"1430 222 OFFCURVE",
"1545 469 CURVE",
"1524 490 LINE"
);
},
{
closed = 1;
nodes = (
"109 670 OFFCURVE",
"106 670 OFFCURVE",
"104 668 CURVE SMOOTH",
"103 667 OFFCURVE",
"103 666 OFFCURVE",
"103 665 CURVE",
"104 663 LINE",
"108 661 LINE",
"113 661 LINE",
"114 663 LINE",
"113 665 OFFCURVE",
"113 666 OFFCURVE",
"114 667 CURVE",
"112 668 LINE"
);
}
);
width = 1546;
}
);
note = C;
unicode = 0043;
},
{
glyphname = D;
lastChange = "2019-03-06 14:56:19 +0000";
layers = (
{
layerId = "500BB636-1048-4D7F-B62E-A2796C57CEF4";
paths = (
{
closed = 1;
nodes = (
"1357 1258 OFFCURVE",
"1233 1329 OFFCURVE",
"1145 1362 CURVE SMOOTH",
"1057 1394 OFFCURVE",
"968 1404 OFFCURVE",
"783 1407 CURVE SMOOTH",
"65 1407 LINE",
"65 1368 LINE",
"81 1368 LINE SMOOTH",
"181 1365 OFFCURVE",
"230 1345 OFFCURVE",
"254 1297 CURVE",
"265 1271 OFFCURVE",
"271 1236 OFFCURVE",
"271 1192 CURVE SMOOTH",
"271 215 LINE SMOOTH",
"271 170 OFFCURVE",
"265 135 OFFCURVE",
"253 110 CURVE SMOOTH",
"229 59 OFFCURVE",
"176 38 OFFCURVE",
"81 37 CURVE SMOOTH",
"65 37 LINE",
"65 0 LINE",
"718 -2 LINE SMOOTH",
"1001 -2 OFFCURVE",
"1195 56 OFFCURVE",
"1351 181 CURVE",
"1348 184 LINE SMOOTH",
"1345 187 OFFCURVE",
"1340 189 OFFCURVE",
"1332 190 CURVE",
"1327 190 OFFCURVE",
"1324 191 OFFCURVE",
"1322 192 CURVE",
"1321 193 OFFCURVE",
"1321 194 OFFCURVE",
"1321 195 CURVE SMOOTH",
"1321 197 LINE SMOOTH",
"1321 198 OFFCURVE",
"1319 199 OFFCURVE",
"1319 199 CURVE",
"1318 200 OFFCURVE",
"1318 202 OFFCURVE",
"1319 203 CURVE",
"1321 206 LINE",
"1323 207 LINE",
"1327 207 LINE",
"1315 212 LINE",
"1314 213 OFFCURVE",
"1314 214 OFFCURVE",
"1314 215 CURVE",
"1315 216 OFFCURVE",
"1315 216 OFFCURVE",
"1316 216 CURVE",
"1316 215 OFFCURVE",
"1316 215 OFFCURVE",
"1317 215 CURVE",
"1323 213 LINE",
"1329 211 LINE",
"1325 214 LINE",
"1323 216 LINE",
"1323 216 OFFCURVE",
"1323 217 OFFCURVE",
"1323 218 CURVE",
"1322 219 OFFCURVE",
"1323 219 OFFCURVE",
"1324 219 CURVE",
"1324 219 OFFCURVE",
"1324 219 OFFCURVE",
"1325 219 CURVE",
"1325 219 OFFCURVE",
"1325 219 OFFCURVE",
"1325 218 CURVE",
"1332 213 LINE",
"1332 214 LINE SMOOTH",
"1332 215 OFFCURVE",
"1334 216 OFFCURVE",
"1335 215 CURVE",
"1341 208 LINE",
"1347 200 LINE",
"1353 194 OFFCURVE",
"1357 191 OFFCURVE",
"1358 190 CURVE",
"1360 189 LINE",
"1516 317 OFFCURVE",
"1603 498 OFFCURVE",
"1603 702 CURVE SMOOTH",
"1603 861 OFFCURVE",
"1549 1013 OFFCURVE",
"1453 1137 CURVE SMOOTH"
);
},
{
closed = 1;
nodes = (
"950 98 OFFCURVE",
"839 72 OFFCURVE",
"712 72 CURVE SMOOTH",
"636 72 OFFCURVE",
"563 82 OFFCURVE",
"493 102 CURVE",
"493 1296 LINE",
"568 1319 OFFCURVE",
"645 1331 OFFCURVE",
"722 1331 CURVE SMOOTH",
"842 1331 OFFCURVE",
"949 1304 OFFCURVE",
"1044 1251 CURVE SMOOTH",
"1232 1143 OFFCURVE",
"1342 941 OFFCURVE",
"1342 692 CURVE SMOOTH",
"1342 444 OFFCURVE",
"1236 252 OFFCURVE",
"1045 149 CURVE SMOOTH"
);
},
{
closed = 1;
nodes = (
"1328 194 OFFCURVE",
"1331 194 OFFCURVE",
"1333 196 CURVE SMOOTH",
"1334 197 OFFCURVE",
"1334 198 OFFCURVE",
"1334 199 CURVE",
"1333 201 LINE",
"1329 203 LINE",
"1324 203 LINE",
"1323 201 LINE",
"1324 199 OFFCURVE",
"1324 198 OFFCURVE",
"1323 197 CURVE",
"1325 196 LINE"
);
}
);
width = 1685;
}
);
note = D;
unicode = 0044;
},
{
glyphname = E;
lastChange = "2019-03-06 14:56:25 +0000";
layers = (
{
layerId = "500BB636-1048-4D7F-B62E-A2796C57CEF4";
paths = (
{
closed = 1;
nodes = (
"1359 448 LINE",
"1322 448 LINE",
"1188 120 OFFCURVE",
"1068 80 OFFCURVE",
"893 80 CURVE SMOOTH",
"591 80 LINE SMOOTH",
"562 80 OFFCURVE",
"540 86 OFFCURVE",
"526 97 CURVE",
"523 95 LINE",
"512 86 LINE",
"506 78 LINE",
"500 71 LINE",
"499 70 OFFCURVE",
"497 71 OFFCURVE",
"497 72 CURVE SMOOTH",
"497 73 LINE",
"490 68 LINE",
"489 67 OFFCURVE",
"487 69 OFFCURVE",
"488 70 CURVE SMOOTH",
"490 72 LINE",
"494 75 LINE",
"482 71 LINE",
"481 71 LINE",
"480 70 OFFCURVE",
"480 70 OFFCURVE",
"479 71 CURVE",
"479 72 OFFCURVE",
"479 73 OFFCURVE",
"480 74 CURVE",
"492 79 LINE",
"488 79 LINE",
"486 80 LINE",
"484 83 LINE",
"483 84 OFFCURVE",
"483 86 OFFCURVE",
"484 87 CURVE",
"484 87 OFFCURVE",
"486 88 OFFCURVE",
"486 89 CURVE SMOOTH",
"486 91 LINE SMOOTH",
"486 92 OFFCURVE",
"486 93 OFFCURVE",
"487 94 CURVE",
"489 95 OFFCURVE",
"492 96 OFFCURVE",
"497 97 CURVE",
"505 97 OFFCURVE",
"510 99 OFFCURVE",
"513 102 CURVE SMOOTH",
"517 106 LINE",
"504 123 OFFCURVE",
"497 152 OFFCURVE",
"497 193 CURVE SMOOTH",
"497 700 LINE",
"851 700 LINE SMOOTH",
"992 700 OFFCURVE",
"1044 655 OFFCURVE",
"1064 472 CURVE",
"1101 472 LINE",
"1050 997 LINE",
"1013 997 LINE",
"1033 846 OFFCURVE",
"991 782 OFFCURVE",
"859 782 CURVE SMOOTH",
"497 782 LINE",
"497 1325 LINE",
"925 1325 LINE",
"974 1323 LINE SMOOTH",
"1105 1318 OFFCURVE",
"1170 1182 OFFCURVE",
"1190 1026 CURVE",
"1225 1026 LINE",
"1189 1407 LINE",
"73 1407 LINE",
"73 1368 LINE",
"85 1368 LINE SMOOTH",
"185 1365 OFFCURVE",
"234 1345 OFFCURVE",
"258 1297 CURVE",
"269 1271 OFFCURVE",
"275 1236 OFFCURVE",
"275 1192 CURVE SMOOTH",
"275 215 LINE SMOOTH",
"275 170 OFFCURVE",
"269 135 OFFCURVE",
"257 110 CURVE SMOOTH",
"233 59 OFFCURVE",
"180 38 OFFCURVE",
"85 37 CURVE SMOOTH",
"73 37 LINE",
"73 0 LINE",
"1205 0 LINE"
);
},
{
closed = 1;
nodes = (
"494 83 LINE",
"498 85 LINE",
"499 87 LINE",
"499 88 OFFCURVE",
"499 89 OFFCURVE",
"498 90 CURVE SMOOTH",
"496 92 OFFCURVE",
"493 92 OFFCURVE",
"490 90 CURVE",
"488 89 LINE",
"489 88 OFFCURVE",
"489 87 OFFCURVE",
"488 85 CURVE",
"489 83 LINE"
);
}
);
width = 1366;
}
);
note = E;
unicode = 0045;
},
{
glyphname = F;
lastChange = "2019-03-06 14:56:29 +0000";
layers = (
{
layerId = "500BB636-1048-4D7F-B62E-A2796C57CEF4";
paths = (
{
closed = 1;
nodes = (
"1255 1034 LINE",
"1221 1407 LINE",
"87 1407 LINE",
"87 1368 LINE",
"93 1368 LINE SMOOTH",
"144 1367 OFFCURVE",
"183 1361 OFFCURVE",
"210 1350 CURVE SMOOTH",
"264 1328 OFFCURVE",
"284 1280 OFFCURVE",
"284 1192 CURVE SMOOTH",
"284 760 LINE",
"288 756 LINE SMOOTH",
"291 753 OFFCURVE",
"296 751 OFFCURVE",
"305 751 CURVE",
"309 750 OFFCURVE",
"312 749 OFFCURVE",
"314 748 CURVE",
"315 747 OFFCURVE",
"315 746 OFFCURVE",
"315 745 CURVE SMOOTH",
"315 743 LINE SMOOTH",
"315 742 OFFCURVE",
"317 741 OFFCURVE",
"317 741 CURVE",
"318 740 OFFCURVE",
"318 738 OFFCURVE",
"317 737 CURVE",
"315 734 LINE",
"313 733 LINE",
"309 733 LINE",
"321 728 LINE",
"322 727 OFFCURVE",
"322 726 OFFCURVE",
"322 725 CURVE",
"321 724 OFFCURVE",
"321 724 OFFCURVE",
"321 725 CURVE",
"320 725 OFFCURVE",
"320 725 OFFCURVE",
"319 725 CURVE",
"313 727 LINE",
"307 729 LINE",
"311 726 LINE",
"313 724 LINE",
"313 724 OFFCURVE",
"313 724 OFFCURVE",
"314 723 CURVE",
"314 722 OFFCURVE",
"313 721 OFFCURVE",
"312 721 CURVE SMOOTH",
"312 721 OFFCURVE",
"312 721 OFFCURVE",
"312 722 CURVE",
"312 722 OFFCURVE",
"312 722 OFFCURVE",
"311 722 CURVE",
"304 727 LINE",
"304 726 LINE SMOOTH",
"304 725 OFFCURVE",
"302 724 OFFCURVE",
"301 725 CURVE",
"295 732 LINE",
"289 740 LINE",
"284 745 LINE",
"284 215 LINE SMOOTH",
"284 170 OFFCURVE",
"278 136 OFFCURVE",
"267 111 CURVE SMOOTH",
"243 61 OFFCURVE",
"189 38 OFFCURVE",
"93 37 CURVE SMOOTH",
"87 37 LINE",
"87 0 LINE",
"708 0 LINE",
"708 37 LINE",
"697 37 LINE SMOOTH",
"648 38 OFFCURVE",
"611 44 OFFCURVE",
"584 55 CURVE SMOOTH",
"531 77 OFFCURVE",
"509 124 OFFCURVE",
"509 215 CURVE SMOOTH",
"509 700 LINE",
"764 700 LINE SMOOTH",
"952 700 OFFCURVE",
"988 668 OFFCURVE",
"1012 462 CURVE",
"1049 462 LINE",
"989 991 LINE",
"952 991 LINE",
"972 828 OFFCURVE",
"946 784 OFFCURVE",
"766 784 CURVE SMOOTH",
"509 784 LINE",
"509 1337 LINE",
"881 1337 LINE SMOOTH",
"1105 1337 OFFCURVE",
"1170 1238 OFFCURVE",
"1219 1034 CURVE"
);
},
{
closed = 1;
nodes = (
"308 746 OFFCURVE",
"305 746 OFFCURVE",
"303 744 CURVE SMOOTH",
"302 743 OFFCURVE",
"302 742 OFFCURVE",
"302 741 CURVE",
"303 739 LINE",
"307 737 LINE",
"312 737 LINE",
"313 739 LINE",
"312 741 OFFCURVE",
"312 742 OFFCURVE",
"313 743 CURVE",
"311 744 LINE"
);
}
);
width = 1315;
}
);
note = F;
unicode = 0046;
},
{
glyphname = G;
lastChange = "2019-03-06 14:57:15 +0000";
layers = (
{
layerId = "500BB636-1048-4D7F-B62E-A2796C57CEF4";
paths = (
{
closed = 1;
nodes = (
"1511 713 OFFCURVE",
"1666 719 CURVE",
"1666 756 LINE",
"962 756 LINE",
"962 719 LINE",
"1237 719 OFFCURVE",
"1256 681 OFFCURVE",
"1256 530 CURVE",
"1261 535 LINE",
"1267 543 LINE",
"1273 550 LINE",
"1274 551 OFFCURVE",
"1276 550 OFFCURVE",
"1276 549 CURVE SMOOTH",
"1276 548 LINE",
"1283 553 LINE",
"1284 554 OFFCURVE",
"1286 552 OFFCURVE",
"1286 552 CURVE",
"1285 551 OFFCURVE",
"1285 551 OFFCURVE",
"1285 551 CURVE",
"1283 549 LINE",
"1279 546 LINE",
"1285 548 LINE",
"1291 550 LINE",
"1292 550 OFFCURVE",
"1292 550 OFFCURVE",
"1293 551 CURVE",
"1293 551 OFFCURVE",
"1293 551 OFFCURVE",
"1294 550 CURVE",
"1294 549 OFFCURVE",
"1294 548 OFFCURVE",
"1293 547 CURVE",
"1281 542 LINE",
"1285 542 LINE",
"1287 541 LINE",
"1289 538 LINE",
"1290 537 OFFCURVE",
"1290 535 OFFCURVE",
"1289 534 CURVE",
"1289 534 OFFCURVE",
"1287 533 OFFCURVE",
"1287 532 CURVE SMOOTH",
"1287 530 LINE SMOOTH",
"1287 529 OFFCURVE",
"1287 528 OFFCURVE",
"1286 527 CURVE",
"1284 526 OFFCURVE",
"1281 525 OFFCURVE",
"1277 525 CURVE",
"1268 524 OFFCURVE",
"1263 522 OFFCURVE",
"1260 519 CURVE SMOOTH",
"1256 515 LINE",
"1256 150 LINE",
"1147 77 OFFCURVE",
"1058 47 OFFCURVE",
"943 47 CURVE SMOOTH",
"830 47 OFFCURVE",
"728 75 OFFCURVE",
"637 132 CURVE SMOOTH",
"456 244 OFFCURVE",
"345 455 OFFCURVE",
"345 702 CURVE SMOOTH",
"345 831 OFFCURVE",
"369 946 OFFCURVE",
"416 1046 CURVE SMOOTH",
"511 1245 OFFCURVE",
"689 1359 OFFCURVE",
"910 1362 CURVE SMOOTH",
"1235 1366 OFFCURVE",
"1351 1237 OFFCURVE",
"1475 927 CURVE",
"1511 927 LINE",
"1433 1438 LINE",
"1394 1438 LINE",
"1385 1373 OFFCURVE",
"1362 1341 OFFCURVE",
"1324 1341 CURVE SMOOTH",
"1311 1341 OFFCURVE",
"1288 1347 OFFCURVE",
"1256 1360 CURVE",
"1141 1412 OFFCURVE",
"1022 1438 OFFCURVE",
"898 1438 CURVE SMOOTH",
"679 1438 OFFCURVE",
"470 1355 OFFCURVE",
"322 1214 CURVE SMOOTH",
"174 1074 OFFCURVE",
"87 870 OFFCURVE",
"87 662 CURVE SMOOTH",
"87 470 OFFCURVE",
"166 306 OFFCURVE",
"323 170 CURVE SMOOTH",
"487 29 OFFCURVE",
"666 -31 OFFCURVE",
"923 -31 CURVE SMOOTH",
"1066 -31 OFFCURVE",
"1166 -17 OFFCURVE",
"1273 22 CURVE SMOOTH",
"1372 58 OFFCURVE",
"1459 104 OFFCURVE",
"1558 175 CURVE",
"1558 188 LINE",
"1480 188 LINE",
"1480 504 LINE SMOOTH",
"1480 668 OFFCURVE"
);
},
{
closed = 1;
nodes = (
"1279 538 LINE",
"1275 536 LINE",
"1274 534 LINE",
"1274 533 OFFCURVE",
"1274 532 OFFCURVE",
"1275 531 CURVE SMOOTH",
"1277 529 OFFCURVE",
"1280 529 OFFCURVE",
"1283 531 CURVE",
"1285 532 LINE",
"1284 533 OFFCURVE",
"1284 534 OFFCURVE",
"1285 536 CURVE",
"1284 538 LINE"
);
}
);
width = 1685;
}
);
note = G;
unicode = 0047;
},
{
glyphname = H;
lastChange = "2019-03-06 14:57:10 +0000";
layers = (
{
layerId = "500BB636-1048-4D7F-B62E-A2796C57CEF4";
paths = (
{
closed = 1;
nodes = (
"1515 1361 OFFCURVE",
"1553 1367 OFFCURVE",
"1603 1368 CURVE SMOOTH",
"1617 1368 LINE",
"1617 1407 LINE",
"982 1407 LINE",
"982 1368 LINE",
"1000 1368 LINE SMOOTH",
"1051 1367 OFFCURVE",
"1089 1361 OFFCURVE",
"1116 1350 CURVE SMOOTH",
"1169 1329 OFFCURVE",
"1191 1280 OFFCURVE",
"1191 1192 CURVE SMOOTH",
"1191 766 LINE",
"837 766 LINE",
"841 762 LINE SMOOTH",
"844 759 OFFCURVE",
"849 757 OFFCURVE",
"858 757 CURVE",
"862 756 OFFCURVE",
"865 755 OFFCURVE",
"867 754 CURVE",
"868 753 OFFCURVE",
"868 752 OFFCURVE",
"868 751 CURVE SMOOTH",
"868 749 LINE SMOOTH",
"868 748 OFFCURVE",
"870 747 OFFCURVE",
"870 747 CURVE",
"871 746 OFFCURVE",
"871 744 OFFCURVE",
"870 743 CURVE",
"868 740 LINE",
"866 739 LINE",
"862 739 LINE",
"874 734 LINE",
"875 733 OFFCURVE",
"875 732 OFFCURVE",
"875 731 CURVE",
"874 730 OFFCURVE",
"874 730 OFFCURVE",
"874 731 CURVE",
"873 731 OFFCURVE",
"873 731 OFFCURVE",
"872 731 CURVE",
"866 733 LINE",
"860 735 LINE",
"864 732 LINE",
"866 730 LINE",
"866 730 OFFCURVE",
"866 730 OFFCURVE",
"867 729 CURVE",
"867 728 OFFCURVE",
"866 727 OFFCURVE",
"865 727 CURVE SMOOTH",
"865 727 OFFCURVE",
"865 727 OFFCURVE",
"865 728 CURVE",
"865 728 OFFCURVE",
"865 728 OFFCURVE",
"864 728 CURVE",
"857 733 LINE",
"857 732 LINE SMOOTH",
"857 731 OFFCURVE",
"855 730 OFFCURVE",
"854 731 CURVE",
"848 738 LINE",
"842 746 LINE",
"841 747 OFFCURVE",
"837 750 OFFCURVE",
"832 755 CURVE",
"827 759 OFFCURVE",
"823 763 OFFCURVE",
"822 766 CURVE",
"499 766 LINE",
"499 1192 LINE SMOOTH",
"499 1237 OFFCURVE",
"505 1272 OFFCURVE",
"517 1297 CURVE SMOOTH",
"541 1346 OFFCURVE",
"592 1367 OFFCURVE",
"689 1368 CURVE SMOOTH",
"706 1368 LINE",
"706 1407 LINE",
"75 1407 LINE",
"75 1368 LINE",
"85 1368 LINE SMOOTH",
"136 1367 OFFCURVE",
"174 1362 OFFCURVE",
"201 1351 CURVE SMOOTH",
"254 1330 OFFCURVE",
"275 1281 OFFCURVE",
"275 1192 CURVE SMOOTH",
"275 215 LINE SMOOTH",
"275 170 OFFCURVE",
"269 134 OFFCURVE",
"258 109 CURVE SMOOTH",
"234 58 OFFCURVE",
"183 38 OFFCURVE",
"87 37 CURVE SMOOTH",
"75 37 LINE",
"75 0 LINE",
"706 0 LINE",
"706 37 LINE",
"689 37 LINE SMOOTH",
"640 38 OFFCURVE",
"602 45 OFFCURVE",
"575 56 CURVE SMOOTH",
"522 78 OFFCURVE",
"499 126 OFFCURVE",
"499 215 CURVE SMOOTH",
"499 680 LINE",
"1191 680 LINE",
"1191 215 LINE SMOOTH",
"1191 167 OFFCURVE",
"1185 131 OFFCURVE",
"1173 107 CURVE SMOOTH",
"1149 58 OFFCURVE",
"1094 40 OFFCURVE",
"982 37 CURVE",
"982 0 LINE",
"1617 0 LINE",
"1617 37 LINE",
"1603 37 LINE SMOOTH",
"1554 38 OFFCURVE",
"1516 45 OFFCURVE",
"1489 56 CURVE SMOOTH",
"1435 78 OFFCURVE",
"1412 126 OFFCURVE",
"1412 215 CURVE SMOOTH",
"1412 1192 LINE SMOOTH",
"1412 1283 OFFCURVE",
"1433 1329 OFFCURVE",
"1488 1350 CURVE SMOOTH"
);
},
{
closed = 1;
nodes = (
"861 752 OFFCURVE",
"858 752 OFFCURVE",
"856 750 CURVE SMOOTH",
"855 749 OFFCURVE",
"855 748 OFFCURVE",
"855 747 CURVE",
"856 745 LINE",
"860 743 LINE",
"865 743 LINE",
"866 745 LINE",
"865 747 OFFCURVE",
"865 748 OFFCURVE",
"866 749 CURVE",
"864 750 LINE"
);
}
);
width = 1685;
}
);
note = H;
unicode = 0048;
},
{
glyphname = I;
lastChange = "2019-03-06 14:57:05 +0000";
layers = (
{
layerId = "500BB636-1048-4D7F-B62E-A2796C57CEF4";
paths = (
{
closed = 1;
nodes = (
"500 1212 LINE",
"505 1207 LINE",
"506 1248 OFFCURVE",
"513 1279 OFFCURVE",
"525 1302 CURVE SMOOTH",
"548 1347 OFFCURVE",
"595 1368 OFFCURVE",
"695 1368 CURVE SMOOTH",
"716 1368 LINE",
"716 1407 LINE",
"69 1407 LINE",
"69 1368 LINE",
"93 1368 LINE SMOOTH",
"142 1368 OFFCURVE",
"180 1363 OFFCURVE",
"207 1352 CURVE SMOOTH",
"261 1330 OFFCURVE",
"282 1281 OFFCURVE",
"282 1192 CURVE SMOOTH",
"282 215 LINE SMOOTH",
"282 166 OFFCURVE",
"276 130 OFFCURVE",
"264 105 CURVE SMOOTH",
"240 56 OFFCURVE",
"186 37 OFFCURVE",
"69 37 CURVE",
"69 0 LINE",
"716 0 LINE",
"716 37 LINE",
"658 38 OFFCURVE",
"614 43 OFFCURVE",
"585 54 CURVE SMOOTH",
"526 75 OFFCURVE",
"505 122 OFFCURVE",
"505 215 CURVE SMOOTH",
"505 1192 LINE",
"501 1196 LINE SMOOTH",
"498 1199 OFFCURVE",
"493 1201 OFFCURVE",
"485 1202 CURVE",
"480 1202 OFFCURVE",
"477 1203 OFFCURVE",
"475 1204 CURVE",
"474 1205 OFFCURVE",
"474 1206 OFFCURVE",
"474 1207 CURVE SMOOTH",
"474 1209 LINE SMOOTH",
"474 1210 OFFCURVE",
"472 1211 OFFCURVE",
"472 1211 CURVE",
"471 1212 OFFCURVE",
"471 1214 OFFCURVE",
"472 1215 CURVE",
"474 1218 LINE",
"476 1219 LINE",
"480 1219 LINE",
"468 1224 LINE",
"467 1225 OFFCURVE",
"467 1226 OFFCURVE",
"467 1227 CURVE",
"468 1228 OFFCURVE",
"468 1228 OFFCURVE",
"469 1228 CURVE",
"469 1227 OFFCURVE",
"469 1227 OFFCURVE",
"470 1227 CURVE",
"476 1225 LINE",
"482 1223 LINE",
"478 1226 LINE",
"476 1228 LINE",
"476 1228 OFFCURVE",
"476 1229 OFFCURVE",
"476 1230 CURVE",
"475 1231 OFFCURVE",
"476 1231 OFFCURVE",
"477 1231 CURVE",
"477 1231 OFFCURVE",
"477 1231 OFFCURVE",
"478 1231 CURVE",
"478 1231 OFFCURVE",
"478 1231 OFFCURVE",
"478 1230 CURVE",
"485 1225 LINE",
"485 1226 LINE SMOOTH",
"485 1227 OFFCURVE",
"487 1228 OFFCURVE",
"488 1227 CURVE",
"494 1220 LINE"
);
},
{
closed = 1;
nodes = (
"481 1206 OFFCURVE",
"484 1206 OFFCURVE",
"486 1208 CURVE SMOOTH",
"487 1209 OFFCURVE",
"487 1210 OFFCURVE",
"487 1211 CURVE",
"486 1213 LINE",
"482 1215 LINE",
"477 1215 LINE",
"476 1213 LINE",
"477 1211 OFFCURVE",
"477 1210 OFFCURVE",
"476 1209 CURVE",
"478 1208 LINE"
);
}
);
width = 788;
}
);
note = I;
unicode = 0049;
},
{
glyphname = J;
lastChange = "2019-03-06 14:56:53 +0000";
layers = (
{
layerId = "500BB636-1048-4D7F-B62E-A2796C57CEF4";
paths = (
{
closed = 1;
nodes = (
"851 1407 LINE",
"224 1407 LINE",
"224 1368 LINE",
"241 1368 LINE SMOOTH",
"341 1365 OFFCURVE",
"390 1345 OFFCURVE",
"414 1297 CURVE",
"425 1271 OFFCURVE",
"431 1236 OFFCURVE",
"431 1192 CURVE SMOOTH",
"431 223 LINE SMOOTH",
"431 159 OFFCURVE",
"425 113 OFFCURVE",
"414 84 CURVE",
"418 80 LINE SMOOTH",
"421 77 OFFCURVE",
"426 75 OFFCURVE",
"435 75 CURVE",
"439 74 OFFCURVE",
"442 73 OFFCURVE",
"444 72 CURVE",
"445 71 OFFCURVE",
"445 70 OFFCURVE",
"445 69 CURVE SMOOTH",
"445 67 LINE SMOOTH",
"445 66 OFFCURVE",
"447 65 OFFCURVE",
"447 65 CURVE",
"448 64 OFFCURVE",
"448 62 OFFCURVE",
"447 61 CURVE",
"445 58 LINE",
"443 57 LINE",
"439 57 LINE",
"451 52 LINE",
"452 51 OFFCURVE",
"452 50 OFFCURVE",
"452 49 CURVE",
"451 48 OFFCURVE",
"451 48 OFFCURVE",
"451 49 CURVE",
"450 49 OFFCURVE",
"450 49 OFFCURVE",
"449 49 CURVE",
"443 51 LINE",
"437 53 LINE",
"441 50 LINE",
"443 48 LINE",
"443 48 OFFCURVE",
"443 48 OFFCURVE",
"444 47 CURVE",
"444 46 OFFCURVE",
"443 45 OFFCURVE",
"442 45 CURVE SMOOTH",
"442 45 OFFCURVE",
"442 45 OFFCURVE",
"442 46 CURVE",
"442 46 OFFCURVE",
"442 46 OFFCURVE",
"441 46 CURVE",
"434 51 LINE",
"434 50 LINE SMOOTH",
"434 49 OFFCURVE",
"432 48 OFFCURVE",
"431 49 CURVE",
"425 56 LINE",
"419 64 LINE",
"418 65 OFFCURVE",
"414 68 OFFCURVE",
"408 72 CURVE",
"397 53 OFFCURVE",
"380 43 OFFCURVE",
"357 43 CURVE SMOOTH",
"324 43 OFFCURVE",
"299 67 OFFCURVE",
"267 131 CURVE SMOOTH",
"231 200 OFFCURVE",
"198 227 OFFCURVE",
"146 227 CURVE SMOOTH",
"87 227 OFFCURVE",
"44 182 OFFCURVE",
"44 123 CURVE SMOOTH",
"44 94 OFFCURVE",
"54 67 OFFCURVE",
"74 44 CURVE SMOOTH",
"113 -3 OFFCURVE",
"188 -31 OFFCURVE",
"275 -31 CURVE SMOOTH",
"351 -31 OFFCURVE",
"418 -12 OFFCURVE",
"475 26 CURVE SMOOTH",
"589 102 OFFCURVE",
"652 245 OFFCURVE",
"652 434 CURVE SMOOTH",
"652 1192 LINE SMOOTH",
"652 1237 OFFCURVE",
"658 1272 OFFCURVE",
"670 1297 CURVE SMOOTH",
"693 1347 OFFCURVE",
"743 1367 OFFCURVE",
"843 1368 CURVE SMOOTH",
"851 1368 LINE"
);
},
{
closed = 1;
nodes = (
"438 70 OFFCURVE",
"435 70 OFFCURVE",
"433 68 CURVE SMOOTH",
"432 67 OFFCURVE",
"432 66 OFFCURVE",
"432 65 CURVE",
"433 63 LINE",
"437 61 LINE",
"442 61 LINE",
"443 63 LINE",
"442 65 OFFCURVE",
"442 66 OFFCURVE",
"443 67 CURVE",
"441 68 LINE"
);
}
);
width = 897;
}
);
note = J;
unicode = 004A;
},
{
glyphname = K;
lastChange = "2019-08-28 12:54:49 +0000";
layers = (
{
layerId = "500BB636-1048-4D7F-B62E-A2796C57CEF4";
paths = (
{
closed = 1;
nodes = (
"1674 37 LINE",
"1646 37 LINE SMOOTH",
"1603 37 OFFCURVE",
"1563 44 OFFCURVE",
"1526 58 CURVE SMOOTH",
"1453 85 OFFCURVE",
"1381 141 OFFCURVE",
"1250 268 CURVE SMOOTH",
"735 777 LINE",
"724 788 LINE",
"747 809 LINE SMOOTH",
"799 854 OFFCURVE",
"829 881 OFFCURVE",
"837 889 CURVE",
"890 936 OFFCURVE",
"969 1014 OFFCURVE",
"1074 1124 CURVE SMOOTH",
"1208 1268 OFFCURVE",
"1314 1370 OFFCURVE",
"1441 1370 CURVE",
"1446 1369 LINE",
"1447 1368 OFFCURVE",
"1448 1368 OFFCURVE",
"1451 1368 CURVE",
"1451 1407 LINE",
"937 1407 LINE",
"937 1368 LINE",
"1006 1366 OFFCURVE",
"1062 1357 OFFCURVE",
"1062 1305 CURVE SMOOTH",
"1062 1189 OFFCURVE",
"841 984 OFFCURVE",
"515 723 CURVE",
"515 1192 LINE SMOOTH",
"515 1331 OFFCURVE",
"562 1367 OFFCURVE",
"724 1368 CURVE",
"724 1407 LINE",
"81 1407 LINE",
"81 1368 LINE",
"101 1368 LINE SMOOTH",
"151 1367 OFFCURVE",
"189 1361 OFFCURVE",
"216 1350 CURVE SMOOTH",
"269 1328 OFFCURVE",
"292 1281 OFFCURVE",
"292 1192 CURVE SMOOTH",
"292 215 LINE SMOOTH",
"292 167 OFFCURVE",
"286 131 OFFCURVE",
"274 107 CURVE SMOOTH",
"250 58 OFFCURVE",
"196 40 OFFCURVE",
"81 37 CURVE",
"81 0 LINE",
"714 0 LINE",
"714 37 LINE",
"704 37 LINE SMOOTH",
"655 38 OFFCURVE",
"617 45 OFFCURVE",
"590 56 CURVE SMOOTH",
"537 79 OFFCURVE",
"515 126 OFFCURVE",
"515 215 CURVE SMOOTH",
"515 696 LINE",
"1007 209 LINE",
"1027 190 LINE SMOOTH",
"1057 160 OFFCURVE",
"1072 133 OFFCURVE",
"1072 109 CURVE SMOOTH",
"1072 66 OFFCURVE",
"1028 37 OFFCURVE",
"960 37 CURVE SMOOTH",
"949 37 LINE",
"949 0 LINE",
"1674 0 LINE"
);
},
{
closed = 1;
nodes = (
"724 774 OFFCURVE",
"711 766 OFFCURVE",
"714 754 CURVE SMOOTH",
"716 746 OFFCURVE",
"709 744 OFFCURVE",
"707 744 CURVE",
"707 745 LINE",
"706 743 OFFCURVE",
"704 742 OFFCURVE",
"701 743 CURVE",
"699 743 OFFCURVE",
"699 744 OFFCURVE",
"699 745 CURVE SMOOTH",
"697 751 LINE",
"692 738 LINE",
"692 737 OFFCURVE",
"692 737 OFFCURVE",
"691 737 CURVE",
"689 738 OFFCURVE",
"689 739 OFFCURVE",
"690 740 CURVE",
"694 752 LINE",
"692 749 LINE",
"689 746 LINE",
"688 746 LINE SMOOTH",
"687 746 OFFCURVE",
"686 746 OFFCURVE",
"688 748 CURVE",
"691 756 LINE",
"690 755 OFFCURVE",
"689 757 OFFCURVE",
"690 758 CURVE SMOOTH",
"692 760 OFFCURVE",
"694 763 OFFCURVE",
"697 764 CURVE SMOOTH",
"704 766 OFFCURVE",
"718 781 OFFCURVE",
"724 788 CURVE",
"735 777 LINE"
);
},
{
closed = 1;
nodes = (
"701 748 LINE",
"703 746 LINE",
"705 747 OFFCURVE",
"707 747 OFFCURVE",
"707 746 CURVE",
"707 748 LINE",
"710 749 OFFCURVE",
"711 752 OFFCURVE",
"710 754 CURVE",
"708 756 OFFCURVE",
"706 757 OFFCURVE",
"705 757 CURVE SMOOTH",
"703 757 LINE",
"701 752 LINE"
);
}
);
width = 1685;
}
);
note = K;
unicode = 004B;
},
{
glyphname = L;
lastChange = "2019-03-06 14:56:43 +0000";
layers = (
{
layerId = "500BB636-1048-4D7F-B62E-A2796C57CEF4";
paths = (
{
closed = 1;
nodes = (
"1209 0 LINE",
"1328 377 LINE",
"1291 389 LINE",
"1289 379 LINE",
"1236 258 OFFCURVE",
"1209 217 OFFCURVE",
"1146 164 CURVE",
"1151 159 LINE SMOOTH",
"1154 156 OFFCURVE",
"1159 154 OFFCURVE",
"1168 154 CURVE",
"1172 153 OFFCURVE",
"1175 152 OFFCURVE",
"1177 151 CURVE",
"1178 150 OFFCURVE",
"1178 149 OFFCURVE",
"1178 148 CURVE SMOOTH",
"1178 146 LINE SMOOTH",
"1178 145 OFFCURVE",
"1180 144 OFFCURVE",
"1180 144 CURVE",
"1181 143 OFFCURVE",
"1181 141 OFFCURVE",
"1180 140 CURVE",
"1178 137 LINE",
"1176 136 LINE",
"1172 136 LINE",
"1184 131 LINE",
"1185 130 OFFCURVE",
"1185 129 OFFCURVE",
"1185 128 CURVE",
"1184 127 OFFCURVE",
"1184 127 OFFCURVE",
"1184 128 CURVE",
"1183 128 OFFCURVE",
"1183 128 OFFCURVE",
"1182 128 CURVE",
"1176 130 LINE",
"1170 132 LINE",
"1174 129 LINE",
"1176 127 LINE",
"1176 127 OFFCURVE",
"1176 127 OFFCURVE",
"1177 126 CURVE",
"1177 125 OFFCURVE",
"1176 124 OFFCURVE",
"1175 124 CURVE SMOOTH",
"1175 124 OFFCURVE",
"1175 124 OFFCURVE",
"1175 125 CURVE",
"1175 125 OFFCURVE",
"1175 125 OFFCURVE",
"1174 125 CURVE",
"1167 130 LINE",
"1167 129 LINE SMOOTH",
"1167 128 OFFCURVE",
"1165 127 OFFCURVE",
"1164 128 CURVE",
"1158 135 LINE",
"1152 143 LINE",
"1146 149 OFFCURVE",
"1142 152 OFFCURVE",
"1141 153 CURVE",
"1136 156 LINE",
"1073 107 OFFCURVE",
"1015 92 OFFCURVE",
"888 92 CURVE SMOOTH",
"601 92 LINE SMOOTH",
"536 92 OFFCURVE",
"515 113 OFFCURVE",
"515 174 CURVE SMOOTH",
"515 1192 LINE SMOOTH",
"515 1237 OFFCURVE",
"521 1272 OFFCURVE",
"533 1297 CURVE SMOOTH",
"557 1347 OFFCURVE",
"608 1367 OFFCURVE",
"704 1368 CURVE SMOOTH",
"718 1368 LINE",
"718 1407 LINE",
"85 1407 LINE",
"85 1368 LINE",
"99 1368 LINE SMOOTH",
"151 1367 OFFCURVE",
"191 1362 OFFCURVE",
"219 1351 CURVE SMOOTH",
"275 1330 OFFCURVE",
"296 1281 OFFCURVE",
"296 1192 CURVE SMOOTH",
"296 215 LINE SMOOTH",
"296 170 OFFCURVE",
"290 134 OFFCURVE",
"278 109 CURVE SMOOTH",
"253 58 OFFCURVE",
"200 38 OFFCURVE",
"99 37 CURVE SMOOTH",
"85 37 LINE",
"85 0 LINE"
);
},
{
closed = 1;
nodes = (
"1171 149 OFFCURVE",
"1168 149 OFFCURVE",
"1166 147 CURVE SMOOTH",
"1165 146 OFFCURVE",
"1165 145 OFFCURVE",
"1165 144 CURVE",
"1166 142 LINE",
"1170 140 LINE",
"1175 140 LINE",
"1176 142 LINE",
"1175 144 OFFCURVE",
"1175 145 OFFCURVE",
"1176 146 CURVE",
"1174 147 LINE"
);
}
);
width = 1366;
}
);
note = L;
unicode = 004C;
},
{
glyphname = M;
lastChange = "2019-03-06 14:57:21 +0000";
layers = (
{
layerId = "500BB636-1048-4D7F-B62E-A2796C57CEF4";
paths = (
{
closed = 1;
nodes = (
"1835 1361 OFFCURVE",
"1873 1367 OFFCURVE",
"1922 1368 CURVE SMOOTH",
"1936 1368 LINE",
"1936 1407 LINE",
"1510 1407 LINE",
"1020 338 LINE SMOOTH",
"1017 331 OFFCURVE",
"1011 326 OFFCURVE",
"1004 321 CURVE",
"1003 320 OFFCURVE",
"1001 318 OFFCURVE",
"998 313 CURVE",
"992 306 LINE",
"991 305 OFFCURVE",
"989 306 OFFCURVE",
"989 307 CURVE SMOOTH",
"989 308 LINE",
"982 303 LINE",
"981 302 OFFCURVE",
"979 304 OFFCURVE",
"980 305 CURVE",
"980 305 OFFCURVE",
"980 305 OFFCURVE",
"980 305 CURVE",
"982 307 LINE",
"986 310 LINE",
"980 308 LINE",
"974 306 LINE",
"973 306 OFFCURVE",
"973 306 OFFCURVE",
"973 306 CURVE",
"972 305 OFFCURVE",
"972 305 OFFCURVE",
"971 306 CURVE",
"971 307 OFFCURVE",
"971 308 OFFCURVE",
"972 309 CURVE",
"984 314 LINE",
"980 314 LINE",
"978 315 LINE",
"976 318 LINE",
"975 319 OFFCURVE",
"975 321 OFFCURVE",
"976 322 CURVE",
"976 322 OFFCURVE",
"978 323 OFFCURVE",
"978 324 CURVE SMOOTH",
"978 326 LINE SMOOTH",
"978 327 OFFCURVE",
"978 328 OFFCURVE",
"979 329 CURVE",
"981 330 OFFCURVE",
"984 331 OFFCURVE",
"989 332 CURVE",
"993 332 OFFCURVE",
"996 332 OFFCURVE",
"999 333 CURVE SMOOTH",
"1002 334 OFFCURVE",
"1009 341 OFFCURVE",
"1010 346 CURVE",
"517 1407 LINE",
"87 1407 LINE",
"87 1368 LINE",
"235 1352 OFFCURVE",
"292 1295 OFFCURVE",
"292 1163 CURVE SMOOTH",
"292 215 LINE SMOOTH",
"292 170 OFFCURVE",
"286 135 OFFCURVE",
"274 110 CURVE SMOOTH",
"250 59 OFFCURVE",
"196 38 OFFCURVE",
"101 37 CURVE SMOOTH",
"87 37 LINE",
"87 0 LINE",
"581 0 LINE",
"581 37 LINE",
"572 37 LINE SMOOTH",
"523 38 OFFCURVE",
"486 44 OFFCURVE",
"459 55 CURVE SMOOTH",
"406 77 OFFCURVE",
"384 124 OFFCURVE",
"384 215 CURVE SMOOTH",
"384 1180 LINE",
"388 1180 LINE",
"931 0 LINE",
"966 0 LINE",
"1506 1180 LINE",
"1510 1180 LINE",
"1510 215 LINE SMOOTH",
"1510 167 OFFCURVE",
"1504 131 OFFCURVE",
"1493 107 CURVE SMOOTH",
"1469 58 OFFCURVE",
"1417 40 OFFCURVE",
"1304 37 CURVE",
"1304 0 LINE",
"1936 0 LINE",
"1936 37 LINE",
"1922 37 LINE SMOOTH",
"1873 38 OFFCURVE",
"1835 45 OFFCURVE",
"1808 56 CURVE SMOOTH",
"1755 78 OFFCURVE",
"1732 126 OFFCURVE",
"1732 215 CURVE SMOOTH",
"1732 1194 LINE SMOOTH",
"1732 1283 OFFCURVE",
"1755 1329 OFFCURVE",
"1808 1350 CURVE SMOOTH"
);
},
{
closed = 1;
nodes = (
"986 318 LINE",
"990 320 LINE",
"991 322 LINE",
"991 323 OFFCURVE",
"991 324 OFFCURVE",
"990 325 CURVE SMOOTH",
"988 327 OFFCURVE",
"985 327 OFFCURVE",
"982 325 CURVE",
"980 324 LINE",
"981 323 OFFCURVE",
"981 322 OFFCURVE",
"980 320 CURVE",
"981 318 LINE"
);
}
);
width = 2027;
}
);
note = M;
unicode = 004D;
},
{
glyphname = N;
lastChange = "2019-03-06 14:51:16 +0000";
layers = (
{
layerId = "500BB636-1048-4D7F-B62E-A2796C57CEF4";
paths = (
{
closed = 1;
nodes = (
"1654 1407 LINE",
"1138 1407 LINE",
"1138 1368 LINE",
"1191 1368 LINE SMOOTH",
"1280 1368 OFFCURVE",
"1315 1350 OFFCURVE",
"1331 1294 CURVE",
"1338 1263 OFFCURVE",
"1342 1218 OFFCURVE",
"1342 1159 CURVE SMOOTH",
"1342 369 LINE",
"518 1308 LINE",
"505 1296 LINE",
"499 1288 LINE",
"493 1281 LINE",
"492 1280 OFFCURVE",
"490 1281 OFFCURVE",
"490 1282 CURVE SMOOTH",
"490 1283 LINE",
"483 1278 LINE",
"482 1277 OFFCURVE",
"480 1279 OFFCURVE",
"481 1280 CURVE",
"481 1280 OFFCURVE",
"481 1280 OFFCURVE",
"481 1280 CURVE",
"483 1282 LINE",
"487 1285 LINE",
"481 1283 LINE",
"475 1281 LINE",
"474 1281 OFFCURVE",
"474 1281 OFFCURVE",
"474 1281 CURVE",
"473 1280 OFFCURVE",
"473 1280 OFFCURVE",
"472 1281 CURVE",
"472 1282 OFFCURVE",
"472 1283 OFFCURVE",
"473 1284 CURVE",
"485 1289 LINE",
"481 1289 LINE",
"479 1290 LINE",
"477 1293 LINE",
"476 1294 OFFCURVE",
"476 1296 OFFCURVE",
"477 1297 CURVE",
"477 1297 OFFCURVE",
"479 1298 OFFCURVE",
"479 1299 CURVE SMOOTH",
"479 1301 LINE SMOOTH",
"479 1302 OFFCURVE",
"479 1303 OFFCURVE",
"480 1304 CURVE",
"482 1305 OFFCURVE",
"485 1306 OFFCURVE",
"490 1307 CURVE",
"498 1307 OFFCURVE",
"503 1308 OFFCURVE",
"510 1317 CURVE",
"431 1407 LINE",
"22 1407 LINE",
"22 1368 LINE",
"28 1368 LINE SMOOTH",
"160 1368 OFFCURVE",
"235 1325 OFFCURVE",
"308 1206 CURVE",
"308 250 LINE SMOOTH",
"307 151 OFFCURVE",
"299 111 OFFCURVE",
"268 79 CURVE SMOOTH",
"237 47 OFFCURVE",
"198 38 OFFCURVE",
"103 37 CURVE SMOOTH",
"95 37 LINE",
"95 0 LINE",
"603 0 LINE",
"603 37 LINE",
"595 37 LINE",
"554 39 LINE SMOOTH",
"513 40 OFFCURVE",
"482 49 OFFCURVE",
"460 65 CURVE SMOOTH",
"416 96 OFFCURVE",
"398 160 OFFCURVE",
"398 281 CURVE SMOOTH",
"398 1116 LINE",
"1406 -16 LINE",
"1435 -16 LINE",
"1435 1171 LINE SMOOTH",
"1435 1242 OFFCURVE",
"1437 1272 OFFCURVE",
"1445 1300 CURVE SMOOTH",
"1454 1332 OFFCURVE",
"1465 1345 OFFCURVE",
"1492 1356 CURVE",
"1516 1367 OFFCURVE",
"1537 1368 OFFCURVE",
"1598 1368 CURVE SMOOTH",
"1654 1368 LINE"
);
},
{
closed = 1;
nodes = (
"487 1293 LINE",
"491 1295 LINE",
"492 1297 LINE",
"492 1298 OFFCURVE",
"492 1299 OFFCURVE",
"491 1300 CURVE SMOOTH",
"489 1302 OFFCURVE",
"486 1302 OFFCURVE",
"483 1300 CURVE",
"481 1299 LINE",
"482 1298 OFFCURVE",
"482 1297 OFFCURVE",
"481 1295 CURVE",
"482 1293 LINE"
);
}
);
width = 1685;
}
);
note = N;
unicode = 004E;
},
{
glyphname = O;
lastChange = "2019-03-06 14:59:22 +0000";
layers = (
{
layerId = "500BB636-1048-4D7F-B62E-A2796C57CEF4";
paths = (
{
closed = 1;
nodes = (
"1123 1377 OFFCURVE",
"963 1438 OFFCURVE",
"792 1438 CURVE SMOOTH",
"601 1438 OFFCURVE",
"418 1359 OFFCURVE",
"287 1224 CURVE SMOOTH",
"156 1089 OFFCURVE",
"79 900 OFFCURVE",
"79 705 CURVE SMOOTH",
"79 512 OFFCURVE",
"158 319 OFFCURVE",
"290 186 CURVE SMOOTH",
"422 50 OFFCURVE",
"608 -31 OFFCURVE",
"796 -31 CURVE SMOOTH",
"1035 -31 OFFCURVE",
"1221 80 OFFCURVE",
"1342 232 CURVE SMOOTH",
"1449 363 OFFCURVE",
"1506 529 OFFCURVE",
"1506 705 CURVE SMOOTH",
"1506 949 OFFCURVE",
"1397 1143 OFFCURVE",
"1252 1268 CURVE SMOOTH"
);
},
{
closed = 1;
nodes = (
"1048 132 OFFCURVE",
"1056 128 OFFCURVE",
"1065 128 CURVE",
"1069 127 OFFCURVE",
"1072 126 OFFCURVE",
"1074 125 CURVE",
"1075 124 OFFCURVE",
"1075 123 OFFCURVE",
"1075 122 CURVE SMOOTH",
"1075 120 LINE SMOOTH",
"1075 119 OFFCURVE",
"1077 118 OFFCURVE",
"1077 118 CURVE",
"1078 117 OFFCURVE",
"1078 115 OFFCURVE",
"1077 114 CURVE",
"1075 111 LINE",
"1073 110 LINE",
"1069 110 LINE",
"1081 105 LINE",
"1082 104 OFFCURVE",
"1082 103 OFFCURVE",
"1082 102 CURVE",
"1081 101 OFFCURVE",
"1081 101 OFFCURVE",
"1081 102 CURVE",
"1080 102 OFFCURVE",
"1080 102 OFFCURVE",
"1079 102 CURVE",
"1073 104 LINE",
"1067 106 LINE",
"1071 103 LINE",
"1073 101 LINE",
"1073 101 OFFCURVE",
"1073 101 OFFCURVE",
"1074 100 CURVE",
"1074 99 OFFCURVE",
"1073 98 OFFCURVE",
"1072 98 CURVE SMOOTH",
"1072 98 OFFCURVE",
"1072 98 OFFCURVE",
"1072 99 CURVE",
"1072 99 OFFCURVE",
"1072 99 OFFCURVE",
"1071 99 CURVE",
"1064 104 LINE",
"1064 103 LINE SMOOTH",
"1064 102 OFFCURVE",
"1062 101 OFFCURVE",
"1061 102 CURVE",
"1055 109 LINE",
"1049 117 LINE",
"1043 123 OFFCURVE",
"1039 126 OFFCURVE",
"1038 127 CURVE",
"1036 128 LINE",
"967 74 OFFCURVE",
"887 47 OFFCURVE",
"794 47 CURVE SMOOTH",
"702 47 OFFCURVE",
"621 74 OFFCURVE",
"551 128 CURVE SMOOTH",
"410 236 OFFCURVE",
"331 440 OFFCURVE",
"331 707 CURVE SMOOTH",
"331 1108 OFFCURVE",
"507 1358 OFFCURVE",
"790 1358 CURVE SMOOTH",
"883 1358 OFFCURVE",
"965 1331 OFFCURVE",
"1035 1278 CURVE SMOOTH",
"1174 1171 OFFCURVE",
"1252 963 OFFCURVE",
"1252 698 CURVE SMOOTH",
"1252 445 OFFCURVE",
"1177 244 OFFCURVE",
"1045 135 CURVE"
);
},
{
closed = 1;
nodes = (
"1072 114 LINE",
"1073 116 LINE",
"1072 118 OFFCURVE",
"1072 119 OFFCURVE",
"1073 120 CURVE",
"1071 121 LINE",
"1068 123 OFFCURVE",
"1065 123 OFFCURVE",
"1063 121 CURVE SMOOTH",
"1062 120 OFFCURVE",
"1062 119 OFFCURVE",
"1062 118 CURVE",
"1063 116 LINE",
"1067 114 LINE"
);
}
);
width = 1579;
}
);
note = O;
unicode = 004F;
},
{
glyphname = P;
lastChange = "2019-03-06 14:51:11 +0000";
layers = (
{
layerId = "500BB636-1048-4D7F-B62E-A2796C57CEF4";
paths = (
{
closed = 1;
nodes = (
"854 1392 OFFCURVE",
"760 1407 OFFCURVE",
"650 1407 CURVE SMOOTH",
"50 1407 LINE",
"50 1368 LINE",
"60 1368 LINE SMOOTH",
"111 1367 OFFCURVE",
"149 1362 OFFCURVE",
"176 1351 CURVE SMOOTH",
"229 1330 OFFCURVE",
"251 1281 OFFCURVE",
"251 1192 CURVE SMOOTH",
"251 215 LINE SMOOTH",
"251 169 OFFCURVE",
"245 134 OFFCURVE",
"234 109 CURVE SMOOTH",
"210 59 OFFCURVE",
"160 40 OFFCURVE",
"60 37 CURVE SMOOTH",
"50 37 LINE",
"53 36 OFFCURVE",
"56 36 OFFCURVE",
"61 36 CURVE",
"65 35 OFFCURVE",
"68 34 OFFCURVE",
"70 33 CURVE",
"71 32 OFFCURVE",
"71 31 OFFCURVE",
"71 30 CURVE SMOOTH",
"71 28 LINE SMOOTH",
"71 27 OFFCURVE",
"73 26 OFFCURVE",
"73 26 CURVE",
"74 25 OFFCURVE",
"74 23 OFFCURVE",
"73 22 CURVE",
"71 19 LINE",
"69 18 LINE",
"65 18 LINE",
"77 13 LINE",
"78 12 OFFCURVE",
"78 11 OFFCURVE",
"78 10 CURVE",
"77 9 OFFCURVE",
"77 9 OFFCURVE",
"77 10 CURVE",
"76 10 OFFCURVE",
"76 10 OFFCURVE",
"75 10 CURVE",
"69 12 LINE",
"63 14 LINE",
"67 11 LINE",
"69 9 LINE",
"69 9 OFFCURVE",
"69 9 OFFCURVE",
"70 8 CURVE",
"70 7 OFFCURVE",
"69 6 OFFCURVE",
"68 6 CURVE SMOOTH",
"68 6 OFFCURVE",
"68 6 OFFCURVE",
"68 7 CURVE",
"68 7 OFFCURVE",
"68 7 OFFCURVE",
"67 7 CURVE",
"60 12 LINE",
"60 11 LINE SMOOTH",
"60 10 OFFCURVE",
"58 9 OFFCURVE",
"57 10 CURVE",
"50 19 LINE",
"50 0 LINE",
"683 0 LINE",
"683 37 LINE",
"625 38 OFFCURVE",
"581 44 OFFCURVE",
"552 55 CURVE SMOOTH",
"493 76 OFFCURVE",
"472 122 OFFCURVE",
"472 215 CURVE SMOOTH",
"472 674 LINE",
"577 643 OFFCURVE",
"668 627 OFFCURVE",
"744 627 CURVE SMOOTH",
"829 627 OFFCURVE",
"907 644 OFFCURVE",
"976 677 CURVE SMOOTH",
"1115 744 OFFCURVE",
"1199 869 OFFCURVE",
"1199 1016 CURVE SMOOTH",
"1199 1066 OFFCURVE",
"1188 1114 OFFCURVE",
"1165 1159 CURVE SMOOTH",
"1120 1250 OFFCURVE",
"1037 1323 OFFCURVE",
"933 1363 CURVE SMOOTH"
);
},
{
closed = 1;
nodes = (
"757 715 OFFCURVE",
"705 702 OFFCURVE",
"646 702 CURVE SMOOTH",
"589 702 OFFCURVE",
"551 711 OFFCURVE",
"472 743 CURVE",
"472 1303 LINE",
"529 1320 OFFCURVE",
"579 1329 OFFCURVE",
"622 1329 CURVE SMOOTH",
"684 1329 OFFCURVE",
"740 1316 OFFCURVE",
"789 1289 CURVE SMOOTH",
"888 1235 OFFCURVE",
"945 1131 OFFCURVE",
"945 1006 CURVE SMOOTH",
"945 887 OFFCURVE",
"893 793 OFFCURVE",
"802 741 CURVE SMOOTH"
);
},
{
closed = 1;
nodes = (
"64 31 OFFCURVE",
"61 31 OFFCURVE",
"59 29 CURVE SMOOTH",
"58 28 OFFCURVE",
"58 27 OFFCURVE",
"58 26 CURVE",
"59 24 LINE",
"63 22 LINE",
"68 22 LINE",
"69 24 LINE",
"68 26 OFFCURVE",
"68 27 OFFCURVE",
"69 28 CURVE",
"67 29 LINE"
);
}
);
width = 1236;
}
);
note = P;
unicode = 0050;
},
{
glyphname = Q;
lastChange = "2019-03-06 14:54:52 +0000";
layers = (
{
layerId = "500BB636-1048-4D7F-B62E-A2796C57CEF4";
paths = (
{
closed = 1;
nodes = (
"1079 21 OFFCURVE",
"1172 72 OFFCURVE",
"1253 142 CURVE SMOOTH",
"1413 282 OFFCURVE",
"1506 486 OFFCURVE",
"1506 707 CURVE SMOOTH",
"1506 950 OFFCURVE",
"1397 1143 OFFCURVE",
"1252 1268 CURVE SMOOTH",
"1123 1377 OFFCURVE",
"963 1438 OFFCURVE",
"792 1438 CURVE SMOOTH",
"605 1438 OFFCURVE",
"419 1358 OFFCURVE",
"287 1223 CURVE",
"291 1219 LINE SMOOTH",
"294 1216 OFFCURVE",
"299 1214 OFFCURVE",
"308 1214 CURVE",
"312 1213 OFFCURVE",
"315 1212 OFFCURVE",
"317 1211 CURVE",
"318 1210 OFFCURVE",
"318 1209 OFFCURVE",
"318 1208 CURVE SMOOTH",
"318 1206 LINE SMOOTH",
"318 1205 OFFCURVE",
"320 1204 OFFCURVE",
"320 1204 CURVE",
"321 1203 OFFCURVE",
"321 1201 OFFCURVE",
"320 1200 CURVE",
"318 1197 LINE",
"316 1196 LINE",
"312 1196 LINE",
"324 1191 LINE",
"325 1190 OFFCURVE",
"325 1189 OFFCURVE",
"325 1188 CURVE",
"324 1187 OFFCURVE",
"324 1187 OFFCURVE",
"324 1188 CURVE",
"323 1188 OFFCURVE",
"323 1188 OFFCURVE",
"322 1188 CURVE",
"316 1190 LINE",
"310 1192 LINE",
"314 1189 LINE",
"316 1187 LINE",
"316 1187 OFFCURVE",
"316 1187 OFFCURVE",
"317 1186 CURVE",
"317 1185 OFFCURVE",
"316 1184 OFFCURVE",
"315 1184 CURVE SMOOTH",
"315 1184 OFFCURVE",
"315 1184 OFFCURVE",
"315 1185 CURVE",
"315 1185 OFFCURVE",
"315 1185 OFFCURVE",
"314 1185 CURVE",
"307 1190 LINE",
"307 1189 LINE SMOOTH",
"307 1188 OFFCURVE",
"305 1187 OFFCURVE",
"304 1188 CURVE",
"298 1195 LINE",
"292 1203 LINE",
"286 1209 OFFCURVE",
"282 1212 OFFCURVE",
"281 1213 CURVE",
"279 1214 LINE",
"152 1079 OFFCURVE",
"77 893 OFFCURVE",
"77 702 CURVE SMOOTH",
"77 597 OFFCURVE",
"98 498 OFFCURVE",
"141 403 CURVE SMOOTH",
"226 213 OFFCURVE",
"386 65 OFFCURVE",
"587 0 CURVE",
"806 -367 OFFCURVE",
"1180 -437 OFFCURVE",
"1570 -334 CURVE",
"1570 -298 LINE",
"1146 -401 OFFCURVE",
"974 -209 OFFCURVE",
"974 -10 CURVE"
);
},
{
closed = 1;
nodes = (
"350 459 OFFCURVE",
"331 574 OFFCURVE",
"331 707 CURVE SMOOTH",
"331 840 OFFCURVE",
"350 955 OFFCURVE",
"387 1054 CURVE SMOOTH",
"461 1250 OFFCURVE",
"603 1358 OFFCURVE",
"790 1358 CURVE SMOOTH",
"883 1358 OFFCURVE",
"965 1332 OFFCURVE",
"1035 1279 CURVE SMOOTH",
"1174 1173 OFFCURVE",
"1252 968 OFFCURVE",
"1252 709 CURVE SMOOTH",
"1252 700 LINE SMOOTH",
"1252 570 OFFCURVE",
"1233 456 OFFCURVE",
"1196 357 CURVE SMOOTH",
"1121 160 OFFCURVE",
"978 49 OFFCURVE",
"794 49 CURVE SMOOTH",
"607 49 OFFCURVE",
"464 161 OFFCURVE",
"388 360 CURVE SMOOTH"
);
},
{
closed = 1;
nodes = (
"311 1209 OFFCURVE",
"308 1209 OFFCURVE",
"306 1207 CURVE SMOOTH",
"305 1206 OFFCURVE",
"305 1205 OFFCURVE",
"305 1204 CURVE",
"306 1202 LINE",
"310 1200 LINE",
"315 1200 LINE",
"316 1202 LINE",
"315 1204 OFFCURVE",
"315 1205 OFFCURVE",
"316 1206 CURVE",
"314 1207 LINE"
);
}
);
width = 1579;
}
);
note = Q;
unicode = 0051;
},
{
glyphname = R;
lastChange = "2019-03-06 14:58:37 +0000";
layers = (
{
layerId = "500BB636-1048-4D7F-B62E-A2796C57CEF4";
paths = (
{
closed = 1;
nodes = (
"863 671 LINE",
"861 670 LINE",
"860 669 OFFCURVE",
"856 666 OFFCURVE",
"850 660 CURVE",
"844 652 LINE",
"838 645 LINE",
"837 644 OFFCURVE",
"835 645 OFFCURVE",
"835 646 CURVE SMOOTH",
"835 647 LINE",
"828 642 LINE",
"827 641 OFFCURVE",
"825 643 OFFCURVE",
"826 644 CURVE",
"826 644 OFFCURVE",
"826 644 OFFCURVE",
"826 644 CURVE",
"828 646 LINE",
"832 649 LINE",
"826 647 LINE",
"820 645 LINE",
"819 645 OFFCURVE",
"819 645 OFFCURVE",
"819 645 CURVE",
"818 644 OFFCURVE",
"818 644 OFFCURVE",
"817 645 CURVE",
"817 646 OFFCURVE",
"817 647 OFFCURVE",
"818 648 CURVE",
"830 653 LINE",
"826 653 LINE",
"824 654 LINE",
"822 657 LINE",
"821 658 OFFCURVE",
"821 660 OFFCURVE",
"822 661 CURVE",
"822 661 OFFCURVE",
"824 662 OFFCURVE",
"824 663 CURVE SMOOTH",
"824 665 LINE SMOOTH",
"824 666 OFFCURVE",
"824 667 OFFCURVE",
"825 668 CURVE",
"827 669 OFFCURVE",
"830 670 OFFCURVE",
"835 671 CURVE",
"843 671 OFFCURVE",
"848 673 OFFCURVE",
"851 676 CURVE SMOOTH",
"855 680 LINE",
"918 696 OFFCURVE",
"970 714 OFFCURVE",
"1009 735 CURVE",
"1136 796 OFFCURVE",
"1211 911 OFFCURVE",
"1211 1040 CURVE SMOOTH",
"1211 1089 OFFCURVE",
"1200 1138 OFFCURVE",
"1177 1185 CURVE SMOOTH",
"1131 1280 OFFCURVE",
"1045 1351 OFFCURVE",
"945 1378 CURVE",
"858 1397 OFFCURVE",
"781 1407 OFFCURVE",
"714 1407 CURVE SMOOTH",
"69 1407 LINE",
"69 1368 LINE",
"114 1368 LINE",
"218 1364 OFFCURVE",
"263 1311 OFFCURVE",
"263 1192 CURVE SMOOTH",
"263 215 LINE SMOOTH",
"263 169 OFFCURVE",
"257 134 OFFCURVE",
"246 110 CURVE SMOOTH",
"223 61 OFFCURVE",
"170 38 OFFCURVE",
"73 37 CURVE SMOOTH",
"69 37 LINE",
"69 0 LINE",
"683 0 LINE",
"683 37 LINE",
"675 37 LINE SMOOTH",
"625 38 OFFCURVE",
"587 45 OFFCURVE",
"560 56 CURVE SMOOTH",
"507 79 OFFCURVE",
"486 127 OFFCURVE",
"486 215 CURVE SMOOTH",
"486 659 LINE",
"620 659 LINE",
"1150 0 LINE",
"1517 0 LINE",
"1517 37 LINE",
"1404 49 OFFCURVE",
"1316 107 OFFCURVE",
"1205 246 CURVE SMOOTH",
"1173 287 LINE"
);
},
{
closed = 1;
nodes = (
"486 1321 LINE",
"583 1333 OFFCURVE",
"599 1335 OFFCURVE",
"644 1335 CURVE SMOOTH",
"701 1335 OFFCURVE",
"754 1322 OFFCURVE",
"803 1295 CURVE SMOOTH",
"900 1242 OFFCURVE",
"960 1145 OFFCURVE",
"960 1034 CURVE SMOOTH",
"960 834 OFFCURVE",
"804 729 OFFCURVE",
"511 729 CURVE SMOOTH",
"486 729 LINE"
);
},
{
closed = 1;
nodes = (
"832 657 LINE",
"836 659 LINE",
"837 661 LINE",
"837 662 OFFCURVE",
"837 663 OFFCURVE",
"836 664 CURVE SMOOTH",
"834 666 OFFCURVE",
"831 666 OFFCURVE",
"828 664 CURVE",
"826 663 LINE",
"827 662 OFFCURVE",
"827 661 OFFCURVE",
"826 659 CURVE",
"827 657 LINE"
);
}
);
width = 1579;
}
);
note = R;
unicode = 0052;
},
{
glyphname = S;
lastChange = "2019-03-06 14:58:47 +0000";
layers = (
{
layerId = "500BB636-1048-4D7F-B62E-A2796C57CEF4";
paths = (
{
closed = 1;
nodes = (
"801 726 OFFCURVE",
"708 785 OFFCURVE",
"572 864 CURVE SMOOTH",
"496 909 OFFCURVE",
"446 940 OFFCURVE",
"423 958 CURVE",
"340 1015 OFFCURVE",
"298 1079 OFFCURVE",
"298 1149 CURVE SMOOTH",
"298 1187 OFFCURVE",
"309 1222 OFFCURVE",
"331 1254 CURVE SMOOTH",
"375 1317 OFFCURVE",
"453 1356 OFFCURVE",
"544 1356 CURVE SMOOTH",
"605 1356 OFFCURVE",
"662 1339 OFFCURVE",
"717 1306 CURVE SMOOTH",
"825 1238 OFFCURVE",
"903 1114 OFFCURVE",
"919 971 CURVE",
"955 971 LINE",
"955 1436 LINE",
"919 1436 LINE",
"902 1387 OFFCURVE",
"874 1362 OFFCURVE",
"837 1362 CURVE SMOOTH",
"819 1362 OFFCURVE",
"796 1367 OFFCURVE",
"769 1378 CURVE SMOOTH",
"640 1429 OFFCURVE",
"598 1438 OFFCURVE",
"517 1438 CURVE SMOOTH",
"443 1438 OFFCURVE",
"376 1422 OFFCURVE",
"315 1391 CURVE SMOOTH",
"194 1327 OFFCURVE",
"118 1208 OFFCURVE",
"118 1073 CURVE SMOOTH",
"118 981 OFFCURVE",
"152 902 OFFCURVE",
"204 841 CURVE SMOOTH",
"252 785 OFFCURVE",
"327 733 OFFCURVE",
"488 641 CURVE SMOOTH",
"577 590 OFFCURVE",
"647 546 OFFCURVE",
"698 507 CURVE SMOOTH",
"798 429 OFFCURVE",
"839 359 OFFCURVE",
"839 272 CURVE SMOOTH",
"839 229 OFFCURVE",
"828 190 OFFCURVE",
"805 157 CURVE SMOOTH",
"760 90 OFFCURVE",
"673 51 OFFCURVE",
"564 51 CURVE SMOOTH",
"425 51 OFFCURVE",
"294 131 OFFCURVE",
"226 258 CURVE SMOOTH",
"191 321 OFFCURVE",
"183 345 OFFCURVE",
"163 442 CURVE",
"124 442 LINE",
"124 -33 LINE",
"163 -33 LINE",
"178 10 OFFCURVE",
"201 35 OFFCURVE",
"230 41 CURVE",
"227 42 OFFCURVE",
"224 42 OFFCURVE",
"220 43 CURVE",
"216 43 OFFCURVE",
"213 44 OFFCURVE",
"211 45 CURVE",
"210 46 OFFCURVE",
"210 47 OFFCURVE",
"210 48 CURVE SMOOTH",
"210 50 LINE SMOOTH",
"210 51 OFFCURVE",
"208 52 OFFCURVE",
"208 52 CURVE",
"207 53 OFFCURVE",
"207 55 OFFCURVE",
"208 56 CURVE",
"210 59 LINE",
"212 60 LINE",
"216 60 LINE",
"204 65 LINE",
"203 66 OFFCURVE",
"203 67 OFFCURVE",
"203 68 CURVE",
"204 69 OFFCURVE",
"204 69 OFFCURVE",
"205 69 CURVE",
"205 68 OFFCURVE",
"205 68 OFFCURVE",
"206 68 CURVE",
"212 66 LINE",
"218 64 LINE",
"214 67 LINE",
"212 69 LINE",
"212 69 OFFCURVE",
"212 70 OFFCURVE",
"212 71 CURVE",
"211 72 OFFCURVE",
"212 72 OFFCURVE",
"213 72 CURVE",
"213 72 OFFCURVE",
"213 72 OFFCURVE",
"214 72 CURVE",
"214 72 OFFCURVE",
"214 72 OFFCURVE",
"214 71 CURVE",
"221 66 LINE",
"221 67 LINE SMOOTH",
"221 68 OFFCURVE",
"223 69 OFFCURVE",
"224 68 CURVE",
"230 61 LINE",
"236 53 LINE",
"242 47 OFFCURVE",
"246 44 OFFCURVE",
"247 43 CURVE",
"264 43 OFFCURVE",
"285 39 OFFCURVE",
"310 31 CURVE SMOOTH",
"372 11 OFFCURVE",
"416 -3 OFFCURVE",
"443 -10 CURVE",
"500 -27 OFFCURVE",
"533 -31 OFFCURVE",
"597 -31 CURVE SMOOTH",
"679 -31 OFFCURVE",
"754 -14 OFFCURVE",
"822 20 CURVE SMOOTH",
"957 88 OFFCURVE",
"1039 212 OFFCURVE",
"1039 356 CURVE SMOOTH",
"1039 489 OFFCURVE",
"971 595 OFFCURVE",
"850 688 CURVE SMOOTH"
);
},
{
closed = 1;
nodes = (
"217 47 OFFCURVE",
"220 47 OFFCURVE",
"222 49 CURVE SMOOTH",
"223 50 OFFCURVE",
"223 51 OFFCURVE",
"223 52 CURVE",
"222 54 LINE",
"218 56 LINE",
"213 56 LINE",
"212 54 LINE",
"213 52 OFFCURVE",
"213 51 OFFCURVE",
"212 50 CURVE",
"214 49 LINE"
);
}
);
width = 1130;
}
);
note = S;
unicode = 0053;
},
{
glyphname = T;
lastChange = "2019-03-06 15:19:05 +0000";
layers = (
{
layerId = "500BB636-1048-4D7F-B62E-A2796C57CEF4";
paths = (
{
closed = 1;
nodes = (
"1299 1407 LINE",
"62 1407 LINE",
"46 1087 LINE",
"83 1087 LINE",
"86 1126 OFFCURVE",
"95 1160 OFFCURVE",
"110 1190 CURVE SMOOTH",
"126 1225 OFFCURVE",
"144 1251 OFFCURVE",
"165 1269 CURVE SMOOTH",
"205 1304 OFFCURVE",
"269 1317 OFFCURVE",
"386 1317 CURVE SMOOTH",
"568 1317 LINE",
"568 215 LINE SMOOTH",
"568 170 OFFCURVE",
"562 135 OFFCURVE",
"550 110 CURVE SMOOTH",
"526 59 OFFCURVE",
"473 38 OFFCURVE",
"378 37 CURVE SMOOTH",
"366 37 LINE",
"366 0 LINE",
"996 0 LINE",
"996 37 LINE",
"982 37 LINE SMOOTH",
"933 38 OFFCURVE",
"895 45 OFFCURVE",
"868 56 CURVE SMOOTH",
"815 78 OFFCURVE",
"792 126 OFFCURVE",
"792 215 CURVE SMOOTH",
"792 1317 LINE",
"982 1317 LINE SMOOTH",
"1090 1317 OFFCURVE",
"1126 1310 OFFCURVE",
"1179 1278 CURVE",
"1180 1279 OFFCURVE",
"1184 1282 OFFCURVE",
"1190 1288 CURVE",
"1196 1296 LINE",
"1202 1303 LINE",
"1203 1304 OFFCURVE",
"1205 1303 OFFCURVE",
"1205 1302 CURVE SMOOTH",
"1205 1301 LINE",
"1212 1306 LINE",
"1213 1307 OFFCURVE",
"1215 1305 OFFCURVE",
"1215 1305 CURVE",
"1214 1304 OFFCURVE",
"1214 1304 OFFCURVE",
"1214 1304 CURVE",
"1212 1302 LINE",
"1208 1299 LINE",
"1214 1301 LINE",
"1220 1303 LINE",
"1221 1303 OFFCURVE",
"1221 1303 OFFCURVE",
"1222 1304 CURVE",
"1222 1304 OFFCURVE",
"1222 1304 OFFCURVE",
"1223 1303 CURVE",
"1223 1302 OFFCURVE",
"1223 1301 OFFCURVE",
"1222 1300 CURVE",
"1210 1295 LINE",
"1214 1295 LINE",
"1216 1294 LINE",
"1218 1291 LINE",
"1219 1290 OFFCURVE",
"1219 1288 OFFCURVE",
"1218 1287 CURVE",
"1218 1287 OFFCURVE",
"1216 1286 OFFCURVE",
"1216 1285 CURVE SMOOTH",
"1216 1283 LINE SMOOTH",
"1216 1282 OFFCURVE",
"1216 1281 OFFCURVE",
"1215 1280 CURVE",
"1213 1279 OFFCURVE",
"1210 1278 OFFCURVE",
"1206 1278 CURVE",
"1197 1277 OFFCURVE",
"1192 1275 OFFCURVE",
"1189 1272 CURVE",
"1239 1238 OFFCURVE",
"1269 1176 OFFCURVE",
"1279 1087 CURVE",
"1320 1087 LINE"
);
},
{
closed = 1;
nodes = (
"1208 1291 LINE",
"1204 1289 LINE",
"1203 1287 LINE",
"1203 1286 OFFCURVE",
"1203 1285 OFFCURVE",
"1204 1284 CURVE SMOOTH",
"1206 1282 OFFCURVE",
"1209 1282 OFFCURVE",
"1212 1284 CURVE",
"1214 1285 LINE",
"1213 1286 OFFCURVE",
"1213 1287 OFFCURVE",
"1214 1289 CURVE",
"1213 1291 LINE"
);
}
);
width = 1366;
}
);
note = T;
unicode = 0054;
},
{
glyphname = U;
lastChange = "2019-03-06 15:19:14 +0000";
layers = (
{
layerId = "500BB636-1048-4D7F-B62E-A2796C57CEF4";
paths = (
{
closed = 1;
nodes = (
"1644 1407 LINE",
"1391 1407 LINE",
"1383 1399 LINE",
"1372 1387 LINE",
"1366 1379 LINE",
"1360 1372 LINE",
"1359 1371 OFFCURVE",
"1357 1372 OFFCURVE",
"1357 1373 CURVE SMOOTH",
"1357 1374 LINE",
"1350 1369 LINE",
"1349 1368 OFFCURVE",
"1347 1370 OFFCURVE",
"1348 1371 CURVE",
"1348 1371 OFFCURVE",
"1348 1371 OFFCURVE",
"1348 1371 CURVE",
"1350 1373 LINE",
"1354 1376 LINE",
"1348 1374 LINE",
"1342 1372 LINE",
"1341 1372 OFFCURVE",
"1341 1372 OFFCURVE",
"1341 1372 CURVE",
"1340 1371 OFFCURVE",
"1340 1371 OFFCURVE",
"1339 1372 CURVE",
"1339 1373 OFFCURVE",
"1339 1374 OFFCURVE",
"1340 1375 CURVE",
"1352 1380 LINE",
"1348 1380 LINE",
"1346 1381 LINE",
"1344 1384 LINE",
"1343 1385 OFFCURVE",
"1343 1387 OFFCURVE",
"1344 1388 CURVE",
"1344 1388 OFFCURVE",
"1346 1389 OFFCURVE",
"1346 1390 CURVE SMOOTH",
"1346 1392 LINE SMOOTH",
"1346 1393 OFFCURVE",
"1346 1394 OFFCURVE",
"1347 1395 CURVE",
"1349 1396 OFFCURVE",
"1352 1397 OFFCURVE",
"1357 1398 CURVE",
"1365 1398 OFFCURVE",
"1370 1400 OFFCURVE",
"1373 1403 CURVE SMOOTH",
"1377 1407 LINE",
"1129 1407 LINE",
"1129 1368 LINE",
"1148 1368 LINE SMOOTH",
"1248 1365 OFFCURVE",
"1297 1345 OFFCURVE",
"1321 1297 CURVE",
"1332 1271 OFFCURVE",
"1338 1236 OFFCURVE",
"1338 1192 CURVE SMOOTH",
"1338 563 LINE SMOOTH",
"1338 423 OFFCURVE",
"1334 387 OFFCURVE",
"1310 311 CURVE SMOOTH",
"1259 142 OFFCURVE",
"1116 57 OFFCURVE",
"882 57 CURVE SMOOTH",
"715 57 OFFCURVE",
"593 125 OFFCURVE",
"534 250 CURVE SMOOTH",
"507 310 OFFCURVE",
"499 355 OFFCURVE",
"499 455 CURVE SMOOTH",
"499 1192 LINE SMOOTH",
"499 1236 OFFCURVE",
"505 1271 OFFCURVE",
"516 1296 CURVE SMOOTH",
"539 1347 OFFCURVE",
"588 1367 OFFCURVE",
"681 1368 CURVE SMOOTH",
"691 1368 LINE",
"691 1407 LINE",
"65 1407 LINE",
"65 1368 LINE",
"87 1368 LINE SMOOTH",
"136 1368 OFFCURVE",
"174 1363 OFFCURVE",
"201 1352 CURVE SMOOTH",
"255 1330 OFFCURVE",
"277 1280 OFFCURVE",
"278 1192 CURVE SMOOTH",
"278 518 LINE SMOOTH",
"278 458 OFFCURVE",
"280 412 OFFCURVE",
"283 381 CURVE SMOOTH",
"289 317 OFFCURVE",
"302 276 OFFCURVE",
"339 209 CURVE SMOOTH",
"427 52 OFFCURVE",
"608 -31 OFFCURVE",
"863 -31 CURVE SMOOTH",
"1124 -31 OFFCURVE",
"1320 83 OFFCURVE",
"1392 279 CURVE SMOOTH",
"1413 334 OFFCURVE",
"1421 368 OFFCURVE",
"1424 427 CURVE SMOOTH",
"1425 456 OFFCURVE",
"1426 501 OFFCURVE",
"1426 561 CURVE SMOOTH",
"1426 1192 LINE SMOOTH",
"1426 1238 OFFCURVE",
"1432 1274 OFFCURVE",
"1444 1299 CURVE SMOOTH",
"1468 1349 OFFCURVE",
"1517 1368 OFFCURVE",
"1617 1368 CURVE SMOOTH",
"1644 1368 LINE"
);
},
{
closed = 1;
nodes = (
"1354 1384 LINE",
"1358 1386 LINE",
"1359 1388 LINE",
"1359 1389 OFFCURVE",
"1359 1390 OFFCURVE",
"1358 1391 CURVE SMOOTH",
"1356 1393 OFFCURVE",
"1353 1393 OFFCURVE",
"1350 1391 CURVE",
"1348 1390 LINE",
"1349 1389 OFFCURVE",
"1349 1388 OFFCURVE",
"1348 1386 CURVE",
"1349 1384 LINE"
);
}
);
width = 1685;
}
);
note = U;
unicode = 0055;
},
{
glyphname = V;
lastChange = "2019-03-06 15:19:26 +0000";
layers = (
{
layerId = "500BB636-1048-4D7F-B62E-A2796C57CEF4";
paths = (
{
closed = 1;
nodes = (
"1023 1407 LINE",
"1023 1368 LINE",
"1118 1366 OFFCURVE",
"1166 1333 OFFCURVE",
"1166 1268 CURVE SMOOTH",
"1166 1243 OFFCURVE",
"1163 1223 OFFCURVE",
"1156 1210 CURVE",
"836 358 LINE",
"842 349 OFFCURVE",
"846 344 OFFCURVE",
"848 343 CURVE",
"851 342 OFFCURVE",
"854 342 OFFCURVE",
"859 342 CURVE",
"863 341 OFFCURVE",
"866 340 OFFCURVE",
"868 339 CURVE",
"869 338 OFFCURVE",
"869 337 OFFCURVE",
"869 336 CURVE SMOOTH",
"869 334 LINE SMOOTH",
"869 333 OFFCURVE",
"871 332 OFFCURVE",
"871 332 CURVE",
"872 331 OFFCURVE",
"872 329 OFFCURVE",
"871 328 CURVE",
"869 325 LINE",
"867 324 LINE",
"863 324 LINE",
"875 319 LINE",
"876 318 OFFCURVE",
"876 317 OFFCURVE",
"876 316 CURVE",
"875 315 OFFCURVE",
"875 315 OFFCURVE",
"875 316 CURVE",
"874 316 OFFCURVE",
"874 316 OFFCURVE",
"873 316 CURVE",
"867 318 LINE",
"861 320 LINE",
"865 317 LINE",
"867 315 LINE",
"867 315 OFFCURVE",
"867 315 OFFCURVE",
"868 314 CURVE",
"868 313 OFFCURVE",
"867 312 OFFCURVE",
"866 312 CURVE SMOOTH",
"866 312 OFFCURVE",
"866 312 OFFCURVE",
"866 313 CURVE",
"866 313 OFFCURVE",
"866 313 OFFCURVE",
"865 313 CURVE",
"858 318 LINE",
"858 317 LINE SMOOTH",
"858 316 OFFCURVE",
"856 315 OFFCURVE",
"855 316 CURVE",
"849 323 LINE",
"843 331 LINE",
"842 332 OFFCURVE",
"839 334 OFFCURVE",
"836 337 CURVE SMOOTH",
"833 340 OFFCURVE",
"830 343 OFFCURVE",
"828 348 CURVE SMOOTH",
"515 1124 LINE SMOOTH",
"484 1201 OFFCURVE",
"468 1252 OFFCURVE",
"468 1278 CURVE SMOOTH",
"468 1301 OFFCURVE",
"473 1320 OFFCURVE",
"482 1333 CURVE SMOOTH",
"501 1359 OFFCURVE",
"543 1368 OFFCURVE",
"622 1368 CURVE",
"622 1407 LINE",
"26 1407 LINE",
"26 1368 LINE",
"70 1365 OFFCURVE",
"105 1358 OFFCURVE",
"132 1345 CURVE SMOOTH",
"184 1319 OFFCURVE",
"223 1260 OFFCURVE",
"267 1151 CURVE SMOOTH",
"280 1120 LINE",
"747 -33 LINE",
"783 -33 LINE",
"1193 1049 LINE SMOOTH",
"1236 1165 OFFCURVE",
"1276 1246 OFFCURVE",
"1315 1292 CURVE SMOOTH",
"1354 1340 OFFCURVE",
"1398 1365 OFFCURVE",
"1449 1368 CURVE",
"1449 1407 LINE"
);
},
{
closed = 1;
nodes = (
"862 337 OFFCURVE",
"859 337 OFFCURVE",
"857 335 CURVE SMOOTH",
"856 334 OFFCURVE",
"856 333 OFFCURVE",
"856 332 CURVE",
"857 330 LINE",
"861 328 LINE",
"866 328 LINE",
"867 330 LINE",
"866 332 OFFCURVE",
"866 333 OFFCURVE",
"867 334 CURVE",
"865 335 LINE"
);
}
);
width = 1472;
}
);
note = V;
unicode = 0056;
},
{
glyphname = W;
lastChange = "2019-03-06 15:19:33 +0000";
layers = (
{
layerId = "500BB636-1048-4D7F-B62E-A2796C57CEF4";
paths = (
{
closed = 1;
nodes = (
"1050 883 LINE",
"1046 881 LINE",
"1045 879 LINE",
"1045 878 OFFCURVE",
"1045 877 OFFCURVE",
"1046 876 CURVE SMOOTH",
"1048 874 OFFCURVE",
"1051 874 OFFCURVE",
"1054 876 CURVE",
"1056 877 LINE",
"1055 878 OFFCURVE",
"1055 879 OFFCURVE",
"1056 881 CURVE",
"1055 883 LINE"
);
},
{
closed = 1;
nodes = (
"1605 1368 LINE",
"1686 1368 OFFCURVE",
"1754 1349 OFFCURVE",
"1754 1272 CURVE SMOOTH",
"1754 1250 OFFCURVE",
"1749 1227 OFFCURVE",
"1740 1202 CURVE SMOOTH",
"1445 371 LINE",
"1158 1120 LINE SMOOTH",
"1135 1181 OFFCURVE",
"1123 1228 OFFCURVE",
"1123 1262 CURVE SMOOTH",
"1123 1331 OFFCURVE",
"1163 1361 OFFCURVE",
"1263 1368 CURVE",
"1263 1407 LINE",
"15 1407 LINE",
"15 1368 LINE",
"98 1365 OFFCURVE",
"132 1351 OFFCURVE",
"160 1307 CURVE SMOOTH",
"188 1260 OFFCURVE",
"215 1181 OFFCURVE",
"658 -29 CURVE",
"693 -29 LINE",
"1019 864 LINE",
"1021 868 OFFCURVE",
"1025 873 OFFCURVE",
"1032 880 CURVE",
"1038 888 LINE",
"1044 895 LINE",
"1045 896 OFFCURVE",
"1047 895 OFFCURVE",
"1047 894 CURVE SMOOTH",
"1047 893 LINE",
"1054 898 LINE",
"1055 899 OFFCURVE",
"1057 897 OFFCURVE",
"1057 897 CURVE",
"1056 896 LINE",
"1054 894 LINE",
"1050 891 LINE",
"1062 895 LINE",
"1063 895 OFFCURVE",
"1063 895 OFFCURVE",
"1064 896 CURVE",
"1065 895 LINE",
"1065 894 OFFCURVE",
"1065 893 OFFCURVE",
"1064 892 CURVE",
"1052 887 LINE",
"1056 887 LINE",
"1058 886 LINE",
"1060 883 LINE",
"1061 882 OFFCURVE",
"1061 880 OFFCURVE",
"1060 879 CURVE",
"1060 879 OFFCURVE",
"1058 878 OFFCURVE",
"1058 877 CURVE SMOOTH",
"1058 875 LINE SMOOTH",
"1058 874 OFFCURVE",
"1058 873 OFFCURVE",
"1057 872 CURVE",
"1055 871 OFFCURVE",
"1052 870 OFFCURVE",
"1048 870 CURVE",
"1043 869 OFFCURVE",
"1040 869 OFFCURVE",
"1037 868 CURVE",
"1036 868 OFFCURVE",
"1035 868 OFFCURVE",
"1033 867 CURVE",
"1030 866 OFFCURVE",
"1028 863 OFFCURVE",
"1025 859 CURVE",
"1363 -29 LINE",
"1402 -29 LINE",
"1805 1112 LINE SMOOTH",
"1840 1210 OFFCURVE",
"1872 1277 OFFCURVE",
"1901 1313 CURVE SMOOTH",
"1930 1348 OFFCURVE",
"1967 1367 OFFCURVE",
"2012 1368 CURVE",
"2012 1407 LINE",
"1605 1407 LINE"
);
},
{
closed = 1;
nodes = (
"583 815 OFFCURVE",
"504 1036 OFFCURVE",
"465 1150 CURVE SMOOTH",
"400 1342 OFFCURVE",
"446 1369 OFFCURVE",
"670 1369 CURVE SMOOTH",
"800 1369 OFFCURVE",
"830 1347 OFFCURVE",
"880 1232 CURVE SMOOTH",
"901 1181 OFFCURVE",
"930 1108 OFFCURVE",
"972 997 CURVE",
"744 371 LINE"
);
}
);
width = 2027;
}
);
note = W;
unicode = 0057;
},
{
glyphname = X;
lastChange = "2019-03-06 14:59:14 +0000";
layers = (
{
layerId = "500BB636-1048-4D7F-B62E-A2796C57CEF4";
paths = (
{
closed = 1;
nodes = (
"1551 0 LINE",
"1551 37 LINE",
"1537 37 LINE SMOOTH",
"1481 37 OFFCURVE",
"1432 58 OFFCURVE",
"1389 101 CURVE SMOOTH",
"1371 118 OFFCURVE",
"1352 139 OFFCURVE",
"1332 164 CURVE SMOOTH",
"1311 189 OFFCURVE",
"1275 237 OFFCURVE",
"1224 309 CURVE SMOOTH",
"1214 324 OFFCURVE",
"1205 336 OFFCURVE",
"1197 344 CURVE",
"882 784 LINE",
"1109 1061 LINE",
"1240 1217 LINE SMOOTH",
"1275 1258 OFFCURVE",
"1305 1289 OFFCURVE",
"1330 1310 CURVE SMOOTH",
"1380 1353 OFFCURVE",
"1423 1368 OFFCURVE",
"1490 1368 CURVE SMOOTH",
"1502 1368 LINE",
"1502 1407 LINE",
"1017 1407 LINE",
"1017 1368 LINE",
"1117 1368 OFFCURVE",
"1156 1345 OFFCURVE",
"1156 1288 CURVE SMOOTH",
"1156 1266 OFFCURVE",
"1143 1238 OFFCURVE",
"1117 1204 CURVE",
"830 858 LINE",
"827 854 OFFCURVE",
"821 850 OFFCURVE",
"817 847 CURVE",
"811 839 LINE",
"805 832 LINE",
"804 831 OFFCURVE",
"802 832 OFFCURVE",
"802 833 CURVE SMOOTH",
"802 834 LINE",
"795 829 LINE",
"794 828 OFFCURVE",
"792 830 OFFCURVE",
"793 831 CURVE",
"793 831 OFFCURVE",
"793 831 OFFCURVE",
"793 831 CURVE",
"795 833 LINE",
"799 836 LINE",
"793 834 LINE",
"787 832 LINE",
"786 832 OFFCURVE",
"786 832 OFFCURVE",
"786 832 CURVE",
"785 831 OFFCURVE",
"785 831 OFFCURVE",
"784 832 CURVE",
"784 833 OFFCURVE",
"784 834 OFFCURVE",
"785 835 CURVE",
"797 840 LINE",
"793 840 LINE",
"791 841 LINE",
"789 844 LINE",
"788 845 OFFCURVE",
"788 847 OFFCURVE",
"789 848 CURVE",
"789 848 OFFCURVE",
"791 849 OFFCURVE",
"791 850 CURVE SMOOTH",
"791 852 LINE SMOOTH",
"791 853 OFFCURVE",
"791 854 OFFCURVE",
"792 855 CURVE",
"794 856 OFFCURVE",
"797 857 OFFCURVE",
"802 858 CURVE",
"810 858 OFFCURVE",
"815 860 OFFCURVE",
"818 863 CURVE SMOOTH",
"823 868 LINE",
"591 1188 LINE SMOOTH",
"560 1231 OFFCURVE",
"544 1265 OFFCURVE",
"544 1288 CURVE SMOOTH",
"544 1339 OFFCURVE",
"592 1370 OFFCURVE",
"673 1370 CURVE",
"677 1369 LINE",
"678 1368 OFFCURVE",
"681 1368 OFFCURVE",
"685 1368 CURVE",
"685 1407 LINE",
"28 1407 LINE",
"28 1368 LINE",
"103 1365 OFFCURVE",
"126 1360 OFFCURVE",
"165 1337 CURVE SMOOTH",
"225 1304 OFFCURVE",
"268 1258 OFFCURVE",
"361 1126 CURVE SMOOTH",
"685 682 LINE",
"316 242 LINE SMOOTH",
"249 160 OFFCURVE",
"189 103 OFFCURVE",
"136 70 CURVE SMOOTH",
"103 48 OFFCURVE",
"67 37 OFFCURVE",
"28 37 CURVE",
"28 0 LINE",
"488 0 LINE",
"488 37 LINE",
"478 37 LINE SMOOTH",
"390 40 OFFCURVE",
"353 62 OFFCURVE",
"353 115 CURVE SMOOTH",
"353 142 OFFCURVE",
"363 162 OFFCURVE",
"400 207 CURVE SMOOTH",
"734 610 LINE",
"988 258 LINE",
"1011 227 LINE SMOOTH",
"1046 178 OFFCURVE",
"1064 140 OFFCURVE",
"1064 113 CURVE SMOOTH",
"1064 65 OFFCURVE",
"1019 37 OFFCURVE",
"939 37 CURVE SMOOTH",
"929 37 LINE",
"929 0 LINE"
);
},
{
closed = 1;
nodes = (
"799 844 LINE",
"803 846 LINE",
"804 848 LINE",
"804 849 OFFCURVE",
"804 850 OFFCURVE",
"803 851 CURVE SMOOTH",
"801 853 OFFCURVE",
"798 853 OFFCURVE",
"795 851 CURVE",
"793 850 LINE",
"794 849 OFFCURVE",
"794 848 OFFCURVE",
"793 846 CURVE",
"794 844 LINE"
);
}
);
width = 1579;
}
);
note = X;
unicode = 0058;
},
{
glyphname = Y;
lastChange = "2019-03-06 15:19:39 +0000";
layers = (
{
layerId = "500BB636-1048-4D7F-B62E-A2796C57CEF4";
paths = (
{
closed = 1;
nodes = (
"1549 1407 LINE",
"1074 1407 LINE",
"1074 1368 LINE",
"1086 1368 LINE SMOOTH",
"1129 1368 OFFCURVE",
"1163 1363 OFFCURVE",
"1188 1353 CURVE SMOOTH",
"1212 1343 OFFCURVE",
"1224 1329 OFFCURVE",
"1224 1311 CURVE SMOOTH",
"1224 1294 OFFCURVE",
"1218 1274 OFFCURVE",
"1205 1249 CURVE SMOOTH",
"1188 1217 OFFCURVE",
"1162 1173 OFFCURVE",
"1127 1118 CURVE SMOOTH",
"866 709 LINE",
"871 703 LINE",
"874 700 OFFCURVE",
"879 698 OFFCURVE",
"888 698 CURVE",
"892 697 OFFCURVE",
"895 696 OFFCURVE",
"897 695 CURVE",
"898 694 OFFCURVE",
"898 693 OFFCURVE",
"898 692 CURVE SMOOTH",
"898 690 LINE SMOOTH",
"898 689 OFFCURVE",
"900 688 OFFCURVE",
"900 688 CURVE",
"901 687 OFFCURVE",
"901 685 OFFCURVE",
"900 684 CURVE",
"898 681 LINE",
"896 680 LINE",
"892 680 LINE",
"904 675 LINE",
"905 674 OFFCURVE",
"905 673 OFFCURVE",
"905 672 CURVE",
"904 671 OFFCURVE",
"904 671 OFFCURVE",
"904 672 CURVE",
"903 672 OFFCURVE",
"903 672 OFFCURVE",
"902 672 CURVE",
"896 674 LINE",
"890 676 LINE",
"894 673 LINE",
"896 671 LINE",
"896 671 OFFCURVE",
"896 671 OFFCURVE",
"897 670 CURVE",
"897 669 OFFCURVE",
"896 668 OFFCURVE",
"895 668 CURVE SMOOTH",
"895 668 OFFCURVE",
"895 668 OFFCURVE",
"895 669 CURVE",
"895 669 OFFCURVE",
"895 669 OFFCURVE",
"894 669 CURVE",
"887 674 LINE",
"887 673 LINE SMOOTH",
"887 672 OFFCURVE",
"885 671 OFFCURVE",
"884 672 CURVE",
"878 679 LINE",
"872 687 LINE",
"871 688 OFFCURVE",
"869 690 OFFCURVE",
"866 692 CURVE",
"863 693 OFFCURVE",
"860 695 OFFCURVE",
"859 698 CURVE",
"550 1163 LINE SMOOTH",
"505 1232 OFFCURVE",
"482 1282 OFFCURVE",
"482 1313 CURVE SMOOTH",
"482 1351 OFFCURVE",
"529 1370 OFFCURVE",
"622 1370 CURVE",
"644 1368 LINE",
"644 1407 LINE",
"22 1407 LINE",
"22 1368 LINE",
"28 1368 LINE SMOOTH",
"64 1368 OFFCURVE",
"93 1365 OFFCURVE",
"115 1358 CURVE SMOOTH",
"159 1344 OFFCURVE",
"191 1311 OFFCURVE",
"243 1235 CURVE SMOOTH",
"292 1161 LINE",
"677 590 LINE",
"677 215 LINE SMOOTH",
"677 166 OFFCURVE",
"671 130 OFFCURVE",
"658 105 CURVE SMOOTH",
"633 56 OFFCURVE",
"579 37 OFFCURVE",
"460 37 CURVE",
"460 0 LINE",
"1113 0 LINE",
"1113 37 LINE",
"1054 37 OFFCURVE",
"1010 42 OFFCURVE",
"979 53 CURVE SMOOTH",
"918 74 OFFCURVE",
"896 119 OFFCURVE",
"896 215 CURVE SMOOTH",
"896 604 LINE",
"1237 1133 LINE SMOOTH",
"1275 1191 OFFCURVE",
"1306 1235 OFFCURVE",
"1331 1264 CURVE SMOOTH",
"1379 1322 OFFCURVE",
"1446 1370 OFFCURVE",
"1537 1370 CURVE",
"1549 1368 LINE"
);
},
{
closed = 1;
nodes = (
"891 693 OFFCURVE",
"888 693 OFFCURVE",
"886 691 CURVE SMOOTH",
"885 690 OFFCURVE",
"885 689 OFFCURVE",
"885 688 CURVE",
"886 686 LINE",
"890 684 LINE",
"895 684 LINE",
"896 686 LINE",
"895 688 OFFCURVE",
"895 689 OFFCURVE",
"896 690 CURVE",
"894 691 LINE"
);
}
);
width = 1579;
}
);
note = Y;
unicode = 0059;
},
{
glyphname = Z;
lastChange = "2019-03-06 14:59:25 +0000";
layers = (
{
layerId = "500BB636-1048-4D7F-B62E-A2796C57CEF4";
paths = (
{
closed = 1;
nodes = (
"1252 0 LINE",
"1324 375 LINE",
"1289 375 LINE",
"1262 278 OFFCURVE",
"1232 208 OFFCURVE",
"1197 166 CURVE SMOOTH",
"1150 107 OFFCURVE",
"1090 88 OFFCURVE",
"943 88 CURVE SMOOTH",
"349 88 LINE",
"345 92 LINE SMOOTH",
"342 95 OFFCURVE",
"337 97 OFFCURVE",
"329 98 CURVE",
"324 98 OFFCURVE",
"321 99 OFFCURVE",
"319 100 CURVE",
"318 101 OFFCURVE",
"318 102 OFFCURVE",
"318 103 CURVE SMOOTH",
"318 105 LINE SMOOTH",
"318 106 OFFCURVE",
"316 107 OFFCURVE",
"316 107 CURVE",
"315 108 OFFCURVE",
"315 110 OFFCURVE",
"316 111 CURVE",
"318 114 LINE",
"320 115 LINE",
"324 115 LINE",
"312 120 LINE",
"311 121 OFFCURVE",
"311 122 OFFCURVE",
"311 123 CURVE",
"312 124 OFFCURVE",
"312 124 OFFCURVE",
"313 124 CURVE",
"313 123 OFFCURVE",
"313 123 OFFCURVE",
"314 123 CURVE",
"320 121 LINE",
"326 119 LINE",
"322 122 LINE",
"320 124 LINE",
"320 124 OFFCURVE",
"320 125 OFFCURVE",
"320 126 CURVE",
"319 127 OFFCURVE",
"320 127 OFFCURVE",
"321 127 CURVE",
"321 127 OFFCURVE",
"321 127 OFFCURVE",
"322 127 CURVE",
"322 127 OFFCURVE",
"322 127 OFFCURVE",
"322 126 CURVE",
"329 121 LINE",
"329 122 LINE SMOOTH",
"329 123 OFFCURVE",
"331 124 OFFCURVE",
"332 123 CURVE",
"338 116 LINE",
"344 108 LINE",
"351 101 OFFCURVE",
"355 98 OFFCURVE",
"357 98 CURVE",
"1306 1407 LINE",
"194 1407 LINE",
"165 1059 LINE",
"202 1059 LINE",
"204 1075 LINE SMOOTH",
"213 1151 OFFCURVE",
"229 1205 OFFCURVE",
"251 1237 CURVE SMOOTH",
"266 1260 OFFCURVE",
"283 1278 OFFCURVE",
"303 1290 CURVE SMOOTH",
"343 1314 OFFCURVE",
"398 1323 OFFCURVE",
"513 1323 CURVE SMOOTH",
"974 1323 LINE",
"42 37 LINE",
"42 0 LINE"
);
},
{
closed = 1;
nodes = (
"325 102 OFFCURVE",
"328 102 OFFCURVE",
"330 104 CURVE SMOOTH",
"331 105 OFFCURVE",
"331 106 OFFCURVE",
"331 107 CURVE",
"330 109 LINE",
"326 111 LINE",
"321 111 LINE",
"320 109 LINE",
"321 107 OFFCURVE",
"321 106 OFFCURVE",
"320 105 CURVE",
"322 104 LINE"
);
}
);
width = 1366;
}
);
note = Z;
unicode = 005A;
},
{
glyphname = bracketleft;
lastChange = "2019-03-06 14:03:00 +0000";
layers = (
{
layerId = "500BB636-1048-4D7F-B62E-A2796C57CEF4";
paths = (
{
closed = 1;
nodes = (
"525 -408 LINE",
"525 -317 LINE",
"282 -317 LINE",
"282 1354 LINE",
"525 1354 LINE",
"525 1442 LINE",
"120 1442 LINE",
"120 -408 LINE"
);
}
);
width = 555;
}
);
note = bracketleft;
unicode = 005B;
},
{
glyphname = backslash;
lastChange = "2019-03-06 14:03:00 +0000";
layers = (
{
layerId = "500BB636-1048-4D7F-B62E-A2796C57CEF4";
paths = (
{
closed = 1;
nodes = (
"494 -29 LINE",
"573 -29 LINE",
"82 1423 LINE",
"4 1423 LINE"
);
}
);
width = 575;
}
);
note = backslash;
unicode = 005C;
},
{
glyphname = bracketright;
lastChange = "2019-03-06 14:03:00 +0000";
layers = (
{
layerId = "500BB636-1048-4D7F-B62E-A2796C57CEF4";
paths = (
{
closed = 1;
nodes = (
"28 -408 LINE",
"433 -408 LINE",
"433 1442 LINE",
"28 1442 LINE",
"28 1352 LINE",
"271 1352 LINE",
"271 -319 LINE",
"28 -319 LINE"
);
}
);
width = 555;
}
);
note = bracketright;
unicode = 005D;
},
{
glyphname = asciicircum;
lastChange = "2019-03-06 14:03:00 +0000";
layers = (
{
layerId = "500BB636-1048-4D7F-B62E-A2796C57CEF4";
paths = (
{
closed = 1;
nodes = (
"130 668 LINE",
"480 1253 LINE",
"830 668 LINE",
"923 668 LINE",
"497 1384 LINE",
"466 1384 LINE",
"36 668 LINE"
);
}
);
width = 960;
}
);
note = asciicircum;
unicode = 005E;
},
{
glyphname = underscore;
lastChange = "2019-03-06 14:03:00 +0000";
layers = (
{
layerId = "500BB636-1048-4D7F-B62E-A2796C57CEF4";
paths = (
{
closed = 1;
nodes = (
"-16 -442 LINE",
"1040 -442 LINE",
"1040 -358 LINE",
"-16 -358 LINE"
);
}
);
width = 1024;
}
);
note = underscore;
unicode = 005F;
},
{
glyphname = grave;
lastChange = "2019-03-06 14:03:00 +0000";
layers = (
{
layerId = "500BB636-1048-4D7F-B62E-A2796C57CEF4";
paths = (
{
closed = 1;
nodes = (
"413 1073 LINE",
"445 1073 LINE",
"341 1419 LINE",
"118 1419 LINE"
);
}
);
width = 681;
}
);
note = grave;
unicode = 0060;
},
{
glyphname = a;
lastChange = "2019-08-28 12:46:50 +0000";
layers = (
{
layerId = "500BB636-1048-4D7F-B62E-A2796C57CEF4";
paths = (
{
closed = 1;
nodes = (
"898 81 OFFCURVE",
"857 81 CURVE SMOOTH",
"819 81 OFFCURVE",
"784 116 OFFCURVE",
"784 190 CURVE SMOOTH",
"784 668 LINE SMOOTH",
"784 865 OFFCURVE",
"688 973 OFFCURVE",
"493 973 CURVE SMOOTH",
"414 973 OFFCURVE",
"330 949 OFFCURVE",
"261 912 CURVE SMOOTH",
"176 867 OFFCURVE",
"113 802 OFFCURVE",
"110 737 CURVE SMOOTH",
"106 672 OFFCURVE",
"151 639 OFFCURVE",
"196 639 CURVE SMOOTH",
"241 639 OFFCURVE",
"286 670 OFFCURVE",
"290 731 CURVE SMOOTH",
"292 768 OFFCURVE",
"272 790 OFFCURVE",
"272 813 CURVE SMOOTH",
"272 866 OFFCURVE",
"366 912 OFFCURVE",
"437 912 CURVE SMOOTH",
"525 912 OFFCURVE",
"605 859 OFFCURVE",
"605 780 CURVE SMOOTH",
"605 662 OFFCURVE",
"481 615 OFFCURVE",
"334 539 CURVE SMOOTH",
"176 458 OFFCURVE",
"68 361 OFFCURVE",
"68 217 CURVE SMOOTH",
"68 75 OFFCURVE",
"174 -27 OFFCURVE",
"311 -27 CURVE SMOOTH",
"440 -27 OFFCURVE",
"541 41 OFFCURVE",
"613 176 CURVE",
"621 199 LINE",
"625 206 LINE",
"625 207 OFFCURVE",
"628 207 OFFCURVE",
"628 206 CURVE",
"634 211 LINE",
"636 213 OFFCURVE",
"637 211 OFFCURVE",
"637 211 CURVE",
"637 210 LINE",
"635 207 LINE",
"632 204 LINE",
"643 211 LINE",
"646 211 LINE",
"645 209 LINE",
"634 201 LINE",
"640 201 LINE",
"644 199 LINE",
"645 198 OFFCURVE",
"644 196 OFFCURVE",
"644 196 CURVE SMOOTH",
"644 196 OFFCURVE",
"643 194 OFFCURVE",
"642 193 CURVE",
"643 193 LINE",
"644 192 OFFCURVE",
"643 188 OFFCURVE",
"643 188 CURVE",
"642 186 OFFCURVE",
"639 184 OFFCURVE",
"635 184 CURVE SMOOTH",
"623 184 OFFCURVE",
"619 178 OFFCURVE",
"619 167 CURVE",
"627 33 OFFCURVE",
"704 -11 OFFCURVE",
"784 -11 CURVE SMOOTH",
"873 -11 OFFCURVE",
"967 47 OFFCURVE",
"975 194 CURVE",
"942 194 LINE",
"932 120 OFFCURVE"
);
},
{
closed = 1;
nodes = (
"618 325 OFFCURVE",
"597 247 OFFCURVE",
"554 191 CURVE SMOOTH",
"511 134 OFFCURVE",
"449 106 OFFCURVE",
"388 106 CURVE SMOOTH",
"292 106 OFFCURVE",
"240 171 OFFCURVE",
"240 248 CURVE SMOOTH",
"240 309 OFFCURVE",
"273 378 OFFCURVE",
"343 426 CURVE SMOOTH",
"410 472 OFFCURVE",
"469 501 OFFCURVE",
"618 588 CURVE",
"618 424 LINE SMOOTH"
);
},
{
closed = 1;
nodes = (
"634 196 LINE",
"630 193 LINE",
"630 191 LINE SMOOTH",
"630 190 OFFCURVE",
"630 189 OFFCURVE",
"632 188 CURVE",
"635 187 OFFCURVE",
"638 188 OFFCURVE",
"640 191 CURVE",
"641 192 LINE",
"640 192 OFFCURVE",
"640 194 OFFCURVE",
"640 196 CURVE",
"638 197 LINE"
);
}
);
width = 993;
}
);
note = a;
unicode = 0061;
},
{
glyphname = b;
lastChange = "2019-08-28 12:40:13 +0000";
layers = (
{
layerId = "500BB636-1048-4D7F-B62E-A2796C57CEF4";
paths = (
{
closed = 1;
nodes = (
"562 973 OFFCURVE",
"504 964 OFFCURVE",
"437 905 CURVE",
"340 784 LINE",
"335 776 OFFCURVE",
"335 769 OFFCURVE",
"332 762 CURVE SMOOTH",
"331 759 OFFCURVE",
"330 756 OFFCURVE",
"328 754 CURVE SMOOTH",
"327 753 OFFCURVE",
"325 753 OFFCURVE",
"325 754 CURVE",
"319 749 LINE",
"317 747 OFFCURVE",
"316 748 OFFCURVE",
"316 749 CURVE SMOOTH",
"316 750 LINE",
"318 753 LINE",
"321 756 LINE",
"310 749 LINE",
"309 748 OFFCURVE",
"308 748 OFFCURVE",
"307 749 CURVE",
"307 750 OFFCURVE",
"307 750 OFFCURVE",
"308 751 CURVE",
"319 759 LINE",
"313 759 LINE SMOOTH",
"312 759 OFFCURVE",
"311 759 OFFCURVE",
"310 760 CURVE",
"309 763 OFFCURVE",
"309 765 OFFCURVE",
"311 767 CURVE",
"310 767 LINE",
"309 768 OFFCURVE",
"309 776 OFFCURVE",
"318 776 CURVE SMOOTH",
"330 776 OFFCURVE",
"336 784 OFFCURVE",
"336 795 CURVE SMOOTH",
"336 1468 LINE",
"301 1468 LINE",
"14 1350 LINE",
"26 1315 LINE",
"41 1320 OFFCURVE",
"56 1323 OFFCURVE",
"71 1323 CURVE SMOOTH",
"95 1323 OFFCURVE",
"114 1318 OFFCURVE",
"128 1309 CURVE",
"156 1289 OFFCURVE",
"170 1246 OFFCURVE",
"170 1171 CURVE SMOOTH",
"170 268 LINE SMOOTH",
"170 228 OFFCURVE",
"139 176 OFFCURVE",
"110 138 CURVE",
"264 38 OFFCURVE",
"393 -28 OFFCURVE",
"531 -28 CURVE SMOOTH",
"805 -28 OFFCURVE",
"1028 222 OFFCURVE",
"1028 510 CURVE SMOOTH",
"1028 752 OFFCURVE",
"869 973 OFFCURVE",
"643 973 CURVE SMOOTH"
);
},
{
closed = 1;
nodes = (
"479 39 OFFCURVE",
"404 76 OFFCURVE",
"336 150 CURVE",
"336 723 LINE",
"417 800 OFFCURVE",
"472 827 OFFCURVE",
"555 827 CURVE SMOOTH",
"740 827 OFFCURVE",
"854 646 OFFCURVE",
"854 438 CURVE SMOOTH",
"854 238 OFFCURVE",
"739 39 OFFCURVE",
"561 39 CURVE SMOOTH"
);
},
{
closed = 1;
nodes = (
"323 766 LINE",
"323 768 LINE SMOOTH",
"323 769 OFFCURVE",
"321 771 OFFCURVE",
"319 772 CURVE",
"316 772 OFFCURVE",
"314 771 OFFCURVE",
"313 768 CURVE",
"312 767 LINE",
"313 767 OFFCURVE",
"313 765 OFFCURVE",
"313 763 CURVE",
"315 762 LINE",
"319 763 LINE"
);
}
);
width = 1100;
}
);
note = b;
unicode = 0062;
},
{
glyphname = c;
lastChange = "2019-08-28 12:41:40 +0000";
layers = (
{
layerId = "500BB636-1048-4D7F-B62E-A2796C57CEF4";
paths = (
{
closed = 1;
nodes = (
"968 338 LINE SMOOTH",
"967 335 OFFCURVE",
"966 332 OFFCURVE",
"964 330 CURVE SMOOTH",
"963 329 OFFCURVE",
"961 329 OFFCURVE",
"961 330 CURVE",
"955 325 LINE",
"953 323 OFFCURVE",
"952 324 OFFCURVE",
"952 325 CURVE SMOOTH",
"952 326 LINE",
"954 329 LINE",
"957 332 LINE",
"946 325 LINE",
"945 324 OFFCURVE",
"944 324 OFFCURVE",
"943 325 CURVE",
"943 326 OFFCURVE",
"943 326 OFFCURVE",
"944 327 CURVE",
"955 335 LINE",
"949 335 LINE SMOOTH",
"948 335 OFFCURVE",
"947 335 OFFCURVE",
"946 336 CURVE",
"945 339 OFFCURVE",
"945 341 OFFCURVE",
"947 343 CURVE",
"946 343 LINE",
"945 344 OFFCURVE",
"945 352 OFFCURVE",
"954 352 CURVE SMOOTH",
"964 352 OFFCURVE",
"965 359 OFFCURVE",
"970 370 CURVE",
"962 376 LINE",
"835 187 OFFCURVE",
"721 115 OFFCURVE",
"582 115 CURVE SMOOTH",
"350 115 OFFCURVE",
"212 311 OFFCURVE",
"212 547 CURVE SMOOTH",
"212 738 OFFCURVE",
"280 909 OFFCURVE",
"480 909 CURVE SMOOTH",
"569 909 OFFCURVE",
"633 884 OFFCURVE",
"633 819 CURVE SMOOTH",
"633 804 OFFCURVE",
"628 787 OFFCURVE",
"630 764 CURVE SMOOTH",
"637 694 OFFCURVE",
"685 662 OFFCURVE",
"733 662 CURVE SMOOTH",
"791 662 OFFCURVE",
"831 701 OFFCURVE",
"831 768 CURVE SMOOTH",
"831 895 OFFCURVE",
"656 973 OFFCURVE",
"515 973 CURVE SMOOTH",
"240 973 OFFCURVE",
"48 777 OFFCURVE",
"48 463 CURVE SMOOTH",
"48 184 OFFCURVE",
"214 -29 OFFCURVE",
"478 -29 CURVE SMOOTH",
"671 -29 OFFCURVE",
"841 87 OFFCURVE",
"984 359 CURVE",
"977 364 LINE"
);
},
{
closed = 1;
nodes = (
"959 342 LINE",
"959 344 LINE SMOOTH",
"959 345 OFFCURVE",
"957 347 OFFCURVE",
"955 348 CURVE",
"952 348 OFFCURVE",
"950 347 OFFCURVE",
"949 344 CURVE",
"948 343 LINE",
"949 343 OFFCURVE",
"949 341 OFFCURVE",
"949 339 CURVE",
"951 338 LINE",
"955 339 LINE"
);
}
);
width = 995;
}
);
note = c;
unicode = 0063;
},
{
glyphname = d;
lastChange = "2019-03-06 14:50:47 +0000";
layers = (
{
layerId = "500BB636-1048-4D7F-B62E-A2796C57CEF4";
paths = (
{
closed = 1;
nodes = (
"1093 94 LINE",
"1080 127 LINE",
"1054 118 OFFCURVE",
"1033 113 OFFCURVE",
"1017 113 CURVE SMOOTH",
"983 113 OFFCURVE",
"960 125 OFFCURVE",
"949 149 CURVE SMOOTH",
"937 173 OFFCURVE",
"931 218 OFFCURVE",
"931 285 CURVE SMOOTH",
"931 1468 LINE",
"896 1468 LINE",
"601 1343 LINE",
"617 1309 LINE",
"643 1318 OFFCURVE",
"663 1323 OFFCURVE",
"677 1323 CURVE SMOOTH",
"736 1323 OFFCURVE",
"765 1279 OFFCURVE",
"765 1192 CURVE SMOOTH",
"765 916 LINE",
"769 912 LINE SMOOTH",
"772 909 OFFCURVE",
"777 907 OFFCURVE",
"786 907 CURVE",
"790 906 OFFCURVE",
"793 905 OFFCURVE",
"795 904 CURVE",
"796 903 OFFCURVE",
"796 902 OFFCURVE",
"796 901 CURVE SMOOTH",
"796 899 LINE SMOOTH",
"796 898 OFFCURVE",
"798 897 OFFCURVE",
"798 897 CURVE",
"799 896 OFFCURVE",
"799 894 OFFCURVE",
"798 893 CURVE",
"796 890 LINE",
"794 889 LINE",
"790 889 LINE",
"802 884 LINE",
"803 883 OFFCURVE",
"803 882 OFFCURVE",
"803 881 CURVE",
"802 880 OFFCURVE",
"802 880 OFFCURVE",
"802 881 CURVE",
"801 881 OFFCURVE",
"801 881 OFFCURVE",
"800 881 CURVE",
"794 883 LINE",
"788 885 LINE",
"792 882 LINE",
"794 880 LINE",
"794 880 OFFCURVE",
"794 880 OFFCURVE",
"795 879 CURVE",
"795 878 OFFCURVE",
"794 877 OFFCURVE",
"793 877 CURVE SMOOTH",
"793 877 OFFCURVE",
"793 877 OFFCURVE",
"793 878 CURVE",
"793 878 OFFCURVE",
"793 878 OFFCURVE",
"792 878 CURVE",
"785 883 LINE",
"785 882 LINE SMOOTH",
"785 881 OFFCURVE",
"783 880 OFFCURVE",
"782 881 CURVE",
"776 888 LINE",
"773 893 OFFCURVE",
"770 898 OFFCURVE",
"765 901 CURVE",
"694 949 OFFCURVE",
"622 973 OFFCURVE",
"548 973 CURVE SMOOTH",
"463 973 OFFCURVE",
"383 949 OFFCURVE",
"309 901 CURVE SMOOTH",
"161 804 OFFCURVE",
"67 625 OFFCURVE",
"67 440 CURVE SMOOTH",
"67 357 OFFCURVE",
"86 279 OFFCURVE",
"123 207 CURVE SMOOTH",
"198 63 OFFCURVE",
"333 -27 OFFCURVE",
"478 -27 CURVE SMOOTH",
"579 -27 OFFCURVE",
"675 19 OFFCURVE",
"765 111 CURVE",
"765 -25 LINE"
);
},
{
closed = 1;
nodes = (
"514 86 OFFCURVE",
"460 105 OFFCURVE",
"410 144 CURVE SMOOTH",
"310 220 OFFCURVE",
"247 361 OFFCURVE",
"247 514 CURVE SMOOTH",
"247 587 OFFCURVE",
"259 654 OFFCURVE",
"284 716 CURVE SMOOTH",
"333 839 OFFCURVE",
"425 915 OFFCURVE",
"525 915 CURVE SMOOTH",
"558 915 OFFCURVE",
"590 908 OFFCURVE",
"621 893 CURVE SMOOTH",
"683 863 OFFCURVE",
"733 804 OFFCURVE",
"753 739 CURVE",
"761 708 OFFCURVE",
"765 672 OFFCURVE",
"765 629 CURVE SMOOTH",
"765 180 LINE",
"712 117 OFFCURVE",
"648 86 OFFCURVE",
"572 86 CURVE SMOOTH"
);
},
{
closed = 1;
nodes = (
"789 902 OFFCURVE",
"786 902 OFFCURVE",
"784 900 CURVE SMOOTH",
"783 899 OFFCURVE",
"783 898 OFFCURVE",
"783 897 CURVE",
"784 895 LINE",
"788 893 LINE",
"793 893 LINE",
"794 895 LINE",
"793 897 OFFCURVE",
"793 898 OFFCURVE",
"794 899 CURVE",
"792 900 LINE"
);
}
);
width = 1130;
}
);
note = d;
unicode = 0064;
},
{
glyphname = e;
lastChange = "2019-08-28 12:36:01 +0000";
layers = (
{
layerId = "500BB636-1048-4D7F-B62E-A2796C57CEF4";
paths = (
{
closed = 1;
nodes = (
"813 210 OFFCURVE",
"704 130 OFFCURVE",
"559 130 CURVE SMOOTH",
"352 130 OFFCURVE",
"196 334 OFFCURVE",
"196 559 CURVE SMOOTH",
"196 592 LINE",
"839 592 LINE",
"839 667 OFFCURVE",
"824 734 OFFCURVE",
"794 792 CURVE SMOOTH",
"734 907 OFFCURVE",
"619 973 OFFCURVE",
"478 973 CURVE SMOOTH",
"395 973 OFFCURVE",
"322 952 OFFCURVE",
"259 910 CURVE SMOOTH",
"131 825 OFFCURVE",
"56 663 OFFCURVE",
"56 463 CURVE SMOOTH",
"56 207 OFFCURVE",
"220 -3 OFFCURVE",
"462 -3 CURVE SMOOTH",
"666 -3 OFFCURVE",
"818 120 OFFCURVE",
"950 369 CURVE",
"930 385 LINE"
);
},
{
closed = 1;
nodes = (
"183 629 LINE",
"182 628 OFFCURVE",
"180 629 OFFCURVE",
"180 630 CURVE SMOOTH",
"180 631 LINE",
"173 626 LINE",
"172 625 OFFCURVE",
"170 627 OFFCURVE",
"171 628 CURVE SMOOTH",
"173 630 LINE",
"177 633 LINE",
"165 629 LINE",
"164 629 LINE",
"163 628 OFFCURVE",
"163 628 OFFCURVE",
"162 629 CURVE",
"162 630 OFFCURVE",
"162 631 OFFCURVE",
"163 632 CURVE",
"175 637 LINE",
"171 637 LINE",
"169 638 LINE",
"167 641 LINE",
"166 642 OFFCURVE",
"166 644 OFFCURVE",
"167 645 CURVE",
"167 645 OFFCURVE",
"169 646 OFFCURVE",
"169 647 CURVE SMOOTH",
"169 649 LINE SMOOTH",
"169 650 OFFCURVE",
"169 651 OFFCURVE",
"170 652 CURVE",
"172 653 OFFCURVE",
"175 654 OFFCURVE",
"180 655 CURVE",
"188 655 OFFCURVE",
"199 655 OFFCURVE",
"200 659 CURVE",
"201 664 LINE",
"207 708 OFFCURVE",
"218 747 OFFCURVE",
"238 782 CURVE SMOOTH",
"278 857 OFFCURVE",
"344 899 OFFCURVE",
"423 899 CURVE SMOOTH",
"533 899 OFFCURVE",
"622 792 OFFCURVE",
"622 720 CURVE SMOOTH",
"622 683 OFFCURVE",
"598 655 OFFCURVE",
"543 655 CURVE SMOOTH",
"209 655 LINE SMOOTH",
"204 655 OFFCURVE",
"200 651 OFFCURVE",
"195 644 CURVE SMOOTH",
"189 636 LINE"
);
},
{
closed = 1;
nodes = (
"171 647 LINE",
"172 646 OFFCURVE",
"172 645 OFFCURVE",
"171 643 CURVE",
"172 641 LINE",
"177 641 LINE",
"181 643 LINE",
"182 645 LINE",
"182 646 OFFCURVE",
"182 647 OFFCURVE",
"181 648 CURVE SMOOTH",
"179 650 OFFCURVE",
"176 650 OFFCURVE",
"173 648 CURVE"
);
}
);
width = 961;
}
);
note = e;
unicode = 0065;
},
{
glyphname = f;
lastChange = "2019-08-28 12:45:27 +0000";
layers = (
{
layerId = "500BB636-1048-4D7F-B62E-A2796C57CEF4";
paths = (
{
closed = 1;
nodes = (
"540 0 LINE",
"540 37 LINE",
"523 37 LINE SMOOTH",
"481 37 OFFCURVE",
"450 43 OFFCURVE",
"429 54 CURVE SMOOTH",
"387 76 OFFCURVE",
"372 122 OFFCURVE",
"372 227 CURVE SMOOTH",
"372 887 LINE",
"525 887 LINE",
"564 950 LINE",
"372 950 LINE",
"372 1145 LINE SMOOTH",
"372 1312 OFFCURVE",
"398 1397 OFFCURVE",
"505 1397 CURVE SMOOTH",
"573 1397 OFFCURVE",
"633 1374 OFFCURVE",
"650 1296 CURVE SMOOTH",
"665 1225 OFFCURVE",
"709 1203 OFFCURVE",
"750 1203 CURVE SMOOTH",
"793 1203 OFFCURVE",
"833 1235 OFFCURVE",
"839 1298 CURVE SMOOTH",
"849 1399 OFFCURVE",
"723 1481 OFFCURVE",
"579 1468 CURVE SMOOTH",
"354 1448 OFFCURVE",
"204 1260 OFFCURVE",
"204 1034 CURVE SMOOTH",
"204 950 LINE",
"73 950 LINE",
"34 887 LINE",
"204 887 LINE",
"204 227 LINE SMOOTH",
"204 177 OFFCURVE",
"200 139 OFFCURVE",
"192 112 CURVE SMOOTH",
"175 59 OFFCURVE",
"140 40 OFFCURVE",
"67 37 CURVE",
"48 37 LINE",
"48 0 LINE"
);
},
{
closed = 1;
nodes = (
"381 950 LINE",
"375 950 OFFCURVE",
"371 946 OFFCURVE",
"367 939 CURVE",
"361 931 LINE",
"355 924 LINE",
"354 923 OFFCURVE",
"352 924 OFFCURVE",
"352 925 CURVE SMOOTH",
"352 926 LINE",
"345 921 LINE",
"344 920 OFFCURVE",
"342 922 OFFCURVE",
"343 923 CURVE SMOOTH",
"345 925 LINE",
"349 928 LINE",
"337 924 LINE",
"336 924 LINE",
"335 923 OFFCURVE",
"335 923 OFFCURVE",
"334 924 CURVE",
"334 925 OFFCURVE",
"334 926 OFFCURVE",
"335 927 CURVE",
"347 932 LINE",
"343 932 LINE",
"341 933 LINE",
"339 936 LINE",
"338 937 OFFCURVE",
"338 939 OFFCURVE",
"339 940 CURVE",
"339 940 OFFCURVE",
"341 941 OFFCURVE",
"341 942 CURVE SMOOTH",
"341 944 LINE SMOOTH",
"341 945 OFFCURVE",
"341 946 OFFCURVE",
"342 947 CURVE",
"344 948 OFFCURVE",
"347 949 OFFCURVE",
"352 950 CURVE",
"360 950 OFFCURVE",
"372 952 OFFCURVE",
"372 956 CURVE SMOOTH",
"372 959 LINE",
"372 950 LINE"
);
},
{
closed = 1;
nodes = (
"343 938 LINE",
"344 940 OFFCURVE",
"344 941 OFFCURVE",
"343 942 CURVE",
"345 943 LINE",
"348 945 OFFCURVE",
"351 945 OFFCURVE",
"353 943 CURVE SMOOTH",
"354 942 OFFCURVE",
"354 941 OFFCURVE",
"354 940 CURVE",
"353 938 LINE",
"349 936 LINE",
"344 936 LINE"
);
}
);
width = 681;
}
);
note = f;
unicode = 0066;
},
{
glyphname = g;
lastChange = "2019-08-28 12:44:46 +0000";
layers = (
{
layerId = "500BB636-1048-4D7F-B62E-A2796C57CEF4";
paths = (
{
closed = 1;
nodes = (
"944 111 OFFCURVE",
"836 162 OFFCURVE",
"622 158 CURVE SMOOTH",
"513 156 LINE SMOOTH",
"402 154 OFFCURVE",
"290 140 OFFCURVE",
"290 213 CURVE SMOOTH",
"290 246 OFFCURVE",
"317 287 OFFCURVE",
"372 336 CURVE",
"417 322 OFFCURVE",
"462 315 OFFCURVE",
"505 315 CURVE SMOOTH",
"707 315 OFFCURVE",
"861 445 OFFCURVE",
"861 641 CURVE SMOOTH",
"861 698 OFFCURVE",
"845 754 OFFCURVE",
"813 809 CURVE",
"805 816 OFFCURVE",
"801 817 OFFCURVE",
"793 818 CURVE",
"788 818 OFFCURVE",
"785 819 OFFCURVE",
"783 820 CURVE",
"782 821 OFFCURVE",
"782 822 OFFCURVE",
"782 823 CURVE SMOOTH",
"782 825 LINE SMOOTH",
"782 826 OFFCURVE",
"780 827 OFFCURVE",
"780 827 CURVE",
"779 828 OFFCURVE",
"779 830 OFFCURVE",
"780 831 CURVE",
"782 834 LINE",
"784 835 LINE",
"788 835 LINE",
"776 840 LINE",
"775 841 OFFCURVE",
"775 842 OFFCURVE",
"775 843 CURVE",
"776 844 OFFCURVE",
"776 844 OFFCURVE",
"777 844 CURVE",
"777 843 OFFCURVE",
"777 843 OFFCURVE",
"778 843 CURVE",
"790 839 LINE",
"786 842 LINE",
"784 844 LINE",
"784 846 LINE",
"783 847 OFFCURVE",
"784 847 OFFCURVE",
"785 847 CURVE SMOOTH",
"786 847 LINE",
"786 846 LINE",
"793 841 LINE",
"793 842 LINE SMOOTH",
"793 843 OFFCURVE",
"795 844 OFFCURVE",
"796 843 CURVE",
"802 836 LINE",
"808 828 LINE",
"814 822 OFFCURVE",
"818 819 OFFCURVE",
"819 818 CURVE",
"821 817 LINE",
"937 817 LINE",
"997 909 LINE",
"730 909 LINE",
"665 952 OFFCURVE",
"594 973 OFFCURVE",
"517 973 CURVE SMOOTH",
"312 973 OFFCURVE",
"146 834 OFFCURVE",
"146 635 CURVE SMOOTH",
"146 516 OFFCURVE",
"212 411 OFFCURVE",
"321 356 CURVE",
"206 264 OFFCURVE",
"155 194 OFFCURVE",
"155 129 CURVE SMOOTH",
"155 84 OFFCURVE",
"190 50 OFFCURVE",
"259 27 CURVE",
"141 -18 OFFCURVE",
"77 -119 OFFCURVE",
"77 -213 CURVE SMOOTH",
"77 -368 OFFCURVE",
"236 -427 OFFCURVE",
"418 -427 CURVE SMOOTH",
"671 -427 OFFCURVE",
"944 -306 OFFCURVE",
"944 -68 CURVE SMOOTH"
);
},
{
closed = 1;
nodes = (
"318 825 OFFCURVE",
"375 915 OFFCURVE",
"474 915 CURVE SMOOTH",
"604 915 OFFCURVE",
"685 752 OFFCURVE",
"685 596 CURVE SMOOTH",
"685 476 OFFCURVE",
"634 367 OFFCURVE",
"531 367 CURVE SMOOTH",
"394 367 OFFCURVE",
"318 548 OFFCURVE",
"318 719 CURVE SMOOTH"
);
},
{
closed = 1;
nodes = (
"789 822 OFFCURVE",
"792 822 OFFCURVE",
"794 824 CURVE SMOOTH",
"795 825 OFFCURVE",
"795 826 OFFCURVE",
"795 827 CURVE",
"794 829 LINE",
"790 831 LINE",
"785 831 LINE",
"784 829 LINE",
"785 827 OFFCURVE",
"785 826 OFFCURVE",
"784 825 CURVE",
"786 824 LINE"
);
},
{
closed = 1;
nodes = (
"879 -234 OFFCURVE",
"702 -288 OFFCURVE",
"514 -288 CURVE SMOOTH",
"362 -288 OFFCURVE",
"188 -256 OFFCURVE",
"188 -125 CURVE SMOOTH",
"188 -66 OFFCURVE",
"231 -5 OFFCURVE",
"306 16 CURVE",
"335 8 OFFCURVE",
"380 3 OFFCURVE",
"443 2 CURVE SMOOTH",
"624 -2 LINE SMOOTH",
"756 -5 OFFCURVE",
"879 -8 OFFCURVE",
"879 -106 CURVE SMOOTH"
);
}
);
width = 1024;
}
);
note = g;
unicode = 0067;
},
{
glyphname = h;
lastChange = "2019-08-28 12:42:43 +0000";
layers = (
{
layerId = "500BB636-1048-4D7F-B62E-A2796C57CEF4";
paths = (
{
closed = 1;
nodes = (
"973 40 OFFCURVE",
"941 71 OFFCURVE",
"941 227 CURVE SMOOTH",
"941 575 LINE SMOOTH",
"941 819 OFFCURVE",
"893 967 OFFCURVE",
"695 973 CURVE SMOOTH",
"624 975 OFFCURVE",
"536 943 OFFCURVE",
"467 888 CURVE",
"370 772 LINE",
"365 764 OFFCURVE",
"365 757 OFFCURVE",
"362 750 CURVE SMOOTH",
"361 747 OFFCURVE",
"360 744 OFFCURVE",
"358 742 CURVE SMOOTH",
"357 741 OFFCURVE",
"355 741 OFFCURVE",
"355 742 CURVE",
"349 737 LINE",
"347 735 OFFCURVE",
"346 736 OFFCURVE",
"346 737 CURVE SMOOTH",
"346 738 LINE",
"348 741 LINE",
"351 744 LINE",
"340 737 LINE",
"339 736 OFFCURVE",
"338 736 OFFCURVE",
"337 737 CURVE",
"337 738 OFFCURVE",
"337 738 OFFCURVE",
"338 739 CURVE",
"349 747 LINE",
"343 747 LINE SMOOTH",
"342 747 OFFCURVE",
"341 747 OFFCURVE",
"340 748 CURVE",
"339 751 OFFCURVE",
"339 753 OFFCURVE",
"341 755 CURVE",
"340 755 LINE",
"339 756 OFFCURVE",
"339 764 OFFCURVE",
"348 764 CURVE SMOOTH",
"360 764 OFFCURVE",
"366 772 OFFCURVE",
"366 783 CURVE SMOOTH",
"366 1468 LINE",
"38 1346 LINE",
"50 1311 LINE",
"163 1344 OFFCURVE",
"198 1304 OFFCURVE",
"198 1169 CURVE SMOOTH",
"198 227 LINE SMOOTH",
"198 80 OFFCURVE",
"167 39 OFFCURVE",
"50 37 CURVE",
"50 0 LINE",
"529 0 LINE",
"529 37 LINE",
"397 40 OFFCURVE",
"366 68 OFFCURVE",
"366 227 CURVE SMOOTH",
"366 714 LINE",
"427 782 OFFCURVE",
"501 848 OFFCURVE",
"609 848 CURVE SMOOTH",
"706 848 OFFCURVE",
"771 781 OFFCURVE",
"771 678 CURVE SMOOTH",
"771 227 LINE SMOOTH",
"771 75 OFFCURVE",
"742 42 OFFCURVE",
"620 37 CURVE",
"620 0 LINE",
"1095 0 LINE",
"1095 37 LINE"
);
},
{
closed = 1;
nodes = (
"353 754 LINE",
"353 756 LINE SMOOTH",
"353 757 OFFCURVE",
"351 759 OFFCURVE",
"349 760 CURVE",
"346 760 OFFCURVE",
"344 759 OFFCURVE",
"343 756 CURVE",
"342 755 LINE",
"343 755 OFFCURVE",
"343 753 OFFCURVE",
"343 751 CURVE",
"345 750 LINE",
"349 751 LINE"
);
}
);
width = 1130;
}
);
note = h;
unicode = 0068;
},
{
glyphname = i;
lastChange = "2019-03-06 14:43:32 +0000";
layers = (
{
layerId = "500BB636-1048-4D7F-B62E-A2796C57CEF4";
paths = (
{
closed = 1;
nodes = (
"175 1221 OFFCURVE",
"223 1174 OFFCURVE",
"280 1174 CURVE SMOOTH",
"339 1174 OFFCURVE",
"386 1221 OFFCURVE",
"386 1278 CURVE SMOOTH",
"386 1337 OFFCURVE",
"339 1385 OFFCURVE",
"280 1385 CURVE SMOOTH",
"223 1385 OFFCURVE",
"175 1337 OFFCURVE",
"175 1278 CURVE SMOOTH"
);
},
{
closed = 1;
nodes = (
"509 0 LINE",
"509 37 LINE",
"470 40 OFFCURVE",
"441 47 OFFCURVE",
"421 59 CURVE SMOOTH",
"381 82 OFFCURVE",
"366 128 OFFCURVE",
"366 227 CURVE SMOOTH",
"366 973 LINE",
"48 864 LINE",
"58 827 LINE",
"74 834 OFFCURVE",
"89 838 OFFCURVE",
"103 838 CURVE SMOOTH",
"129 838 OFFCURVE",
"149 833 OFFCURVE",
"164 823 CURVE SMOOTH",
"193 803 OFFCURVE",
"206 761 OFFCURVE",
"206 680 CURVE SMOOTH",
"206 227 LINE SMOOTH",
"206 178 OFFCURVE",
"201 140 OFFCURVE",
"192 113 CURVE SMOOTH",
"172 58 OFFCURVE",
"129 37 OFFCURVE",
"50 37 CURVE SMOOTH",
"48 37 LINE",
"48 0 LINE"
);
}
);
width = 555;
}
);
note = i;
unicode = 0069;
},
{
glyphname = j;
lastChange = "2019-03-06 14:48:50 +0000";
layers = (
{
layerId = "500BB636-1048-4D7F-B62E-A2796C57CEF4";
paths = (
{
closed = 1;
nodes = (
"195 1241 OFFCURVE",
"242 1194 OFFCURVE",
"301 1194 CURVE SMOOTH",
"358 1194 OFFCURVE",
"408 1242 OFFCURVE",
"408 1298 CURVE SMOOTH",
"408 1357 OFFCURVE",
"358 1405 OFFCURVE",
"301 1405 CURVE SMOOTH",
"244 1405 OFFCURVE",
"195 1357 OFFCURVE",
"195 1298 CURVE SMOOTH"
);
},
{
closed = 1;
nodes = (
"-150 -352 OFFCURVE",
"-142 -370 OFFCURVE",
"-126 -386 CURVE SMOOTH",
"-94 -418 OFFCURVE",
"-35 -438 OFFCURVE",
"33 -438 CURVE SMOOTH",
"269 -438 OFFCURVE",
"393 -269 OFFCURVE",
"393 47 CURVE SMOOTH",
"393 973 LINE",
"59 868 LINE",
"72 831 LINE",
"101 840 OFFCURVE",
"120 844 OFFCURVE",
"131 844 CURVE SMOOTH",
"199 844 OFFCURVE",
"227 795 OFFCURVE",
"227 678 CURVE SMOOTH",
"227 -43 LINE SMOOTH",
"227 -150 OFFCURVE",
"224 -225 OFFCURVE",
"217 -270 CURVE SMOOTH",
"214 -292 OFFCURVE",
"209 -308 OFFCURVE",
"202 -319 CURVE SMOOTH",
"189 -341 OFFCURVE",
"165 -352 OFFCURVE",
"133 -352 CURVE SMOOTH",
"120 -352 OFFCURVE",
"108 -349 OFFCURVE",
"97 -342 CURVE SMOOTH",
"86 -335 OFFCURVE",
"68 -320 OFFCURVE",
"41 -295 CURVE SMOOTH",
"4 -262 OFFCURVE",
"-30 -246 OFFCURVE",
"-61 -246 CURVE SMOOTH",
"-108 -246 OFFCURVE",
"-150 -287 OFFCURVE",
"-150 -332 CURVE SMOOTH"
);
}
);
width = 555;
}
);
note = j;
unicode = 006A;
},
{
glyphname = k;
lastChange = "2019-08-28 12:53:56 +0000";
layers = (
{
layerId = "500BB636-1048-4D7F-B62E-A2796C57CEF4";
paths = (
{
closed = 1;
nodes = (
"536 0 LINE",
"536 37 LINE",
"517 37 LINE SMOOTH",
"477 38 OFFCURVE",
"447 46 OFFCURVE",
"428 61 CURVE SMOOTH",
"388 91 OFFCURVE",
"380 139 OFFCURVE",
"380 227 CURVE SMOOTH",
"380 527 LINE",
"384 522 LINE",
"669 147 LINE",
"672 142 OFFCURVE",
"677 136 OFFCURVE",
"683 128 CURVE SMOOTH",
"695 112 OFFCURVE",
"704 99 OFFCURVE",
"704 80 CURVE SMOOTH",
"704 53 OFFCURVE",
"682 39 OFFCURVE",
"638 37 CURVE",
"638 0 LINE",
"1093 0 LINE",
"1093 37 LINE",
"1062 37 OFFCURVE",
"1037 40 OFFCURVE",
"1017 47 CURVE SMOOTH",
"948 70 OFFCURVE",
"895 120 OFFCURVE",
"792 254 CURVE SMOOTH",
"546 574 LINE",
"536 586 LINE",
"738 778 LINE SMOOTH",
"811 849 OFFCURVE",
"864 883 OFFCURVE",
"925 899 CURVE SMOOTH",
"961 908 OFFCURVE",
"990 912 OFFCURVE",
"1050 915 CURVE",
"1050 950 LINE",
"630 950 LINE",
"630 915 LINE",
"681 915 OFFCURVE",
"706 900 OFFCURVE",
"706 870 CURVE SMOOTH",
"706 853 OFFCURVE",
"695 833 OFFCURVE",
"673 811 CURVE SMOOTH",
"380 532 LINE",
"380 1468 LINE",
"52 1356 LINE",
"65 1321 LINE",
"89 1329 OFFCURVE",
"109 1333 OFFCURVE",
"124 1333 CURVE SMOOTH",
"179 1333 OFFCURVE",
"208 1291 OFFCURVE",
"208 1184 CURVE SMOOTH",
"210 1124 LINE",
"210 227 LINE SMOOTH",
"210 179 OFFCURVE",
"206 142 OFFCURVE",
"198 115 CURVE SMOOTH",
"181 62 OFFCURVE",
"144 40 OFFCURVE",
"73 37 CURVE",
"52 37 LINE",
"52 0 LINE"
);
},
{
closed = 1;
nodes = (
"535 571 OFFCURVE",
"523 564 OFFCURVE",
"526 552 CURVE SMOOTH",
"528 544 OFFCURVE",
"521 542 OFFCURVE",
"519 542 CURVE",
"519 543 LINE",
"518 541 OFFCURVE",
"516 540 OFFCURVE",
"513 541 CURVE",
"511 541 OFFCURVE",
"511 542 OFFCURVE",
"511 543 CURVE SMOOTH",
"509 549 LINE",
"504 536 LINE",
"504 535 OFFCURVE",
"504 535 OFFCURVE",
"503 535 CURVE",
"501 536 OFFCURVE",
"501 537 OFFCURVE",
"502 538 CURVE",
"506 550 LINE",
"504 547 LINE",
"501 544 LINE",
"500 544 LINE SMOOTH",
"499 544 OFFCURVE",
"498 544 OFFCURVE",
"500 546 CURVE",
"503 554 LINE",
"502 553 OFFCURVE",
"501 555 OFFCURVE",
"502 556 CURVE SMOOTH",
"504 558 OFFCURVE",
"506 561 OFFCURVE",
"509 562 CURVE SMOOTH",
"516 564 OFFCURVE",
"530 579 OFFCURVE",
"536 586 CURVE",
"546 574 LINE"
);
},
{
closed = 1;
nodes = (
"513 546 LINE",
"515 544 LINE",
"517 545 OFFCURVE",
"519 545 OFFCURVE",
"519 544 CURVE",
"519 546 LINE",
"522 547 OFFCURVE",
"523 550 OFFCURVE",
"522 552 CURVE",
"520 554 OFFCURVE",
"518 555 OFFCURVE",
"517 555 CURVE SMOOTH",
"515 555 LINE",
"513 550 LINE"
);
}
);
width = 1130;
}
);
note = k;
unicode = 006B;
},
{
glyphname = l;
lastChange = "2019-03-06 14:03:00 +0000";
layers = (
{
layerId = "500BB636-1048-4D7F-B62E-A2796C57CEF4";
paths = (
{
closed = 1;
nodes = (
"507 0 LINE",
"507 37 LINE",
"503 37 LINE SMOOTH",
"467 38 OFFCURVE",
"440 45 OFFCURVE",
"421 56 CURVE SMOOTH",
"384 79 OFFCURVE",
"370 126 OFFCURVE",
"370 225 CURVE SMOOTH",
"370 1468 LINE",
"335 1468 LINE",
"46 1346 LINE",
"58 1311 LINE",
"75 1318 OFFCURVE",
"92 1321 OFFCURVE",
"108 1321 CURVE SMOOTH",
"157 1321 OFFCURVE",
"182 1301 OFFCURVE",
"194 1253 CURVE",
"199 1226 OFFCURVE",
"202 1192 OFFCURVE",
"202 1149 CURVE SMOOTH",
"202 225 LINE SMOOTH",
"202 176 OFFCURVE",
"198 139 OFFCURVE",
"189 113 CURVE SMOOTH",
"172 60 OFFCURVE",
"133 38 OFFCURVE",
"62 37 CURVE SMOOTH",
"46 37 LINE",
"46 0 LINE"
);
}
);
width = 555;
}
);
note = l;
unicode = 006C;
},
{
glyphname = m;
lastChange = "2019-03-06 14:03:00 +0000";
layers = (
{
layerId = "500BB636-1048-4D7F-B62E-A2796C57CEF4";
paths = (
{
closed = 1;
nodes = (
"1660 0 LINE",
"1660 37 LINE",
"1641 37 LINE SMOOTH",
"1605 38 OFFCURVE",
"1577 45 OFFCURVE",
"1558 57 CURVE SMOOTH",
"1519 81 OFFCURVE",
"1504 128 OFFCURVE",
"1504 227 CURVE SMOOTH",
"1504 602 LINE SMOOTH",
"1504 723 OFFCURVE",
"1495 784 OFFCURVE",
"1467 840 CURVE SMOOTH",
"1428 924 OFFCURVE",
"1349 973 OFFCURVE",
"1254 973 CURVE SMOOTH",
"1184 973 OFFCURVE",
"1123 954 OFFCURVE",
"1070 915 CURVE",
"1007 875 OFFCURVE",
"955 825 OFFCURVE",
"914 766 CURVE",
"914 766 OFFCURVE",
"911 763 OFFCURVE",
"906 758 CURVE",
"900 750 LINE",
"894 743 LINE",
"893 742 OFFCURVE",
"891 743 OFFCURVE",
"891 744 CURVE SMOOTH",
"891 745 LINE",
"884 740 LINE",
"883 739 OFFCURVE",
"881 741 OFFCURVE",
"882 742 CURVE",
"882 742 OFFCURVE",
"882 742 OFFCURVE",
"882 742 CURVE",
"884 744 LINE",
"888 747 LINE",
"882 745 LINE",
"876 743 LINE",
"875 743 OFFCURVE",
"875 743 OFFCURVE",
"875 743 CURVE",
"874 742 OFFCURVE",
"874 742 OFFCURVE",
"873 743 CURVE",
"873 744 OFFCURVE",
"873 745 OFFCURVE",
"874 746 CURVE",
"886 751 LINE",
"882 751 LINE",
"880 752 LINE",
"878 755 LINE",
"877 756 OFFCURVE",
"877 758 OFFCURVE",
"878 759 CURVE",
"878 759 OFFCURVE",
"880 760 OFFCURVE",
"880 761 CURVE SMOOTH",
"880 763 LINE SMOOTH",
"880 764 OFFCURVE",
"880 765 OFFCURVE",
"881 766 CURVE",
"883 767 OFFCURVE",
"886 768 OFFCURVE",
"891 769 CURVE",
"899 769 OFFCURVE",
"904 771 OFFCURVE",
"907 774 CURVE SMOOTH",
"911 778 LINE",
"877 908 OFFCURVE",
"799 973 OFFCURVE",
"677 973 CURVE SMOOTH",
"597 973 OFFCURVE",
"499 924 OFFCURVE",
"423 844 CURVE SMOOTH",
"357 778 LINE",
"357 973 LINE",
"15 864 LINE",
"30 829 LINE",
"51 836 OFFCURVE",
"70 840 OFFCURVE",
"87 840 CURVE SMOOTH",
"113 840 OFFCURVE",
"133 834 OFFCURVE",
"148 823 CURVE",
"177 800 OFFCURVE",
"189 751 OFFCURVE",
"189 659 CURVE SMOOTH",
"189 227 LINE SMOOTH",
"189 177 OFFCURVE",
"185 139 OFFCURVE",
"177 112 CURVE SMOOTH",
"160 59 OFFCURVE",
"123 38 OFFCURVE",
"50 37 CURVE SMOOTH",
"30 37 LINE",
"30 0 LINE",
"509 0 LINE",
"509 37 LINE",
"495 37 LINE SMOOTH",
"458 38 OFFCURVE",
"430 45 OFFCURVE",
"411 57 CURVE SMOOTH",
"372 80 OFFCURVE",
"357 127 OFFCURVE",
"357 227 CURVE SMOOTH",
"357 723 LINE",
"364 729 LINE",
"400 764 LINE SMOOTH",
"451 813 OFFCURVE",
"534 850 OFFCURVE",
"595 850 CURVE SMOOTH",
"714 850 OFFCURVE",
"763 774 OFFCURVE",
"763 594 CURVE SMOOTH",
"763 227 LINE SMOOTH",
"763 177 OFFCURVE",
"759 139 OFFCURVE",
"751 112 CURVE SMOOTH",
"734 59 OFFCURVE",
"699 40 OFFCURVE",
"626 37 CURVE",
"601 37 LINE",
"601 0 LINE",
"1086 0 LINE",
"1086 37 LINE",
"1068 37 LINE SMOOTH",
"1032 38 OFFCURVE",
"1004 44 OFFCURVE",
"985 56 CURVE SMOOTH",
"946 79 OFFCURVE",
"931 127 OFFCURVE",
"931 227 CURVE SMOOTH",
"931 596 LINE SMOOTH",
"931 621 OFFCURVE",
"928 666 OFFCURVE",
"927 686 CURVE",
"923 719 LINE",
"923 723 LINE",
"957 758 LINE SMOOTH",
"1010 811 OFFCURVE",
"1100 850 OFFCURVE",
"1168 850 CURVE SMOOTH",
"1269 850 OFFCURVE",
"1336 779 OFFCURVE",
"1336 670 CURVE SMOOTH",
"1336 227 LINE SMOOTH",
"1336 177 OFFCURVE",
"1332 139 OFFCURVE",
"1324 112 CURVE SMOOTH",
"1307 59 OFFCURVE",
"1272 40 OFFCURVE",
"1199 37 CURVE",
"1177 37 LINE",
"1177 0 LINE"
);
},
{
closed = 1;
nodes = (
"888 755 LINE",
"892 757 LINE",
"893 759 LINE",
"893 760 OFFCURVE",
"893 761 OFFCURVE",
"892 762 CURVE SMOOTH",
"890 764 OFFCURVE",
"887 764 OFFCURVE",
"884 762 CURVE",
"882 761 LINE",
"883 760 OFFCURVE",
"883 759 OFFCURVE",
"882 757 CURVE",
"883 755 LINE"
);
}
);
width = 1685;
}
);
note = m;
unicode = 006D;
},
{
glyphname = n;
lastChange = "2019-03-06 14:47:34 +0000";
layers = (
{
layerId = "500BB636-1048-4D7F-B62E-A2796C57CEF4";
paths = (
{
closed = 1;
nodes = (
"36 860 LINE",
"50 821 LINE",
"79 832 OFFCURVE",
"100 838 OFFCURVE",
"114 838 CURVE SMOOTH",
"175 838 OFFCURVE",
"198 797 OFFCURVE",
"198 688 CURVE SMOOTH",
"198 227 LINE SMOOTH",
"198 176 OFFCURVE",
"194 138 OFFCURVE",
"185 111 CURVE SMOOTH",
"168 58 OFFCURVE",
"129 38 OFFCURVE",
"50 37 CURVE",
"50 0 LINE",
"521 0 LINE",
"521 37 LINE",
"479 38 OFFCURVE",
"447 44 OFFCURVE",
"426 55 CURVE SMOOTH",
"382 77 OFFCURVE",
"366 128 OFFCURVE",
"366 227 CURVE SMOOTH",
"366 715 LINE",
"451 811 OFFCURVE",
"524 852 OFFCURVE",
"607 852 CURVE SMOOTH",
"720 852 OFFCURVE",
"773 780 OFFCURVE",
"773 627 CURVE SMOOTH",
"773 223 LINE SMOOTH",
"773 174 OFFCURVE",
"768 136 OFFCURVE",
"759 110 CURVE SMOOTH",
"740 57 OFFCURVE",
"698 37 OFFCURVE",
"617 37 CURVE SMOOTH",
"605 37 LINE",
"605 0 LINE",
"1084 0 LINE",
"1084 37 LINE",
"1045 38 OFFCURVE",
"1016 45 OFFCURVE",
"996 56 CURVE SMOOTH",
"956 79 OFFCURVE",
"941 126 OFFCURVE",
"941 223 CURVE SMOOTH",
"941 639 LINE SMOOTH",
"941 852 OFFCURVE",
"849 973 OFFCURVE",
"689 973 CURVE SMOOTH",
"651 973 OFFCURVE",
"617 967 OFFCURVE",
"586 955 CURVE SMOOTH",
"524 931 OFFCURVE",
"458 876 OFFCURVE",
"366 772 CURVE",
"366 973 LINE"
);
}
);
width = 1110;
}
);
note = n;
unicode = 006E;
},
{
glyphname = o;
lastChange = "2019-03-06 14:48:47 +0000";
layers = (
{
layerId = "500BB636-1048-4D7F-B62E-A2796C57CEF4";
paths = (
{
closed = 1;
nodes = (
"93 364 OFFCURVE",
"114 285 OFFCURVE",
"155 212 CURVE SMOOTH",
"237 64 OFFCURVE",
"388 -29 OFFCURVE",
"548 -29 CURVE SMOOTH",
"673 -29 OFFCURVE",
"801 30 OFFCURVE",
"893 129 CURVE SMOOTH",
"985 226 OFFCURVE",
"1041 365 OFFCURVE",
"1041 498 CURVE SMOOTH",
"1041 583 OFFCURVE",
"1021 663 OFFCURVE",
"980 736 CURVE SMOOTH",
"898 883 OFFCURVE",
"747 973 OFFCURVE",
"583 973 CURVE SMOOTH",
"497 973 OFFCURVE",
"416 949 OFFCURVE",
"341 902 CURVE SMOOTH",
"189 806 OFFCURVE",
"93 633 OFFCURVE",
"93 449 CURVE SMOOTH"
);
},
{
closed = 1;
nodes = (
"278 604 OFFCURVE",
"289 669 OFFCURVE",
"310 725 CURVE SMOOTH",
"352 837 OFFCURVE",
"432 901 OFFCURVE",
"536 901 CURVE SMOOTH",
"596 901 OFFCURVE",
"650 880 OFFCURVE",
"699 839 CURVE SMOOTH",
"796 756 OFFCURVE",
"855 601 OFFCURVE",
"855 418 CURVE SMOOTH",
"855 344 OFFCURVE",
"844 279 OFFCURVE",
"823 222 CURVE SMOOTH",
"780 108 OFFCURVE",
"699 43 OFFCURVE",
"595 43 CURVE SMOOTH",
"536 43 OFFCURVE",
"482 64 OFFCURVE",
"434 107 CURVE SMOOTH",
"338 192 OFFCURVE",
"278 351 OFFCURVE",
"278 530 CURVE SMOOTH"
);
}
);
width = 1130;
}
);
note = o;
unicode = 006F;
},
{
glyphname = p;
lastChange = "2019-03-06 14:50:21 +0000";
layers = (
{
layerId = "500BB636-1048-4D7F-B62E-A2796C57CEF4";
paths = (
{
closed = 1;
nodes = (
"544 -432 LINE",
"544 -393 LINE",
"495 -393 OFFCURVE",
"459 -388 OFFCURVE",
"435 -377 CURVE SMOOTH",
"387 -356 OFFCURVE",
"370 -308 OFFCURVE",
"370 -201 CURVE SMOOTH",
"370 59 LINE",
"431 0 OFFCURVE",
"506 -29 OFFCURVE",
"595 -29 CURVE SMOOTH",
"681 -29 OFFCURVE",
"761 -5 OFFCURVE",
"835 42 CURVE SMOOTH",
"982 137 OFFCURVE",
"1070 309 OFFCURVE",
"1070 504 CURVE SMOOTH",
"1070 588 OFFCURVE",
"1053 667 OFFCURVE",
"1020 740 CURVE SMOOTH",
"952 886 OFFCURVE",
"831 973 OFFCURVE",
"695 973 CURVE SMOOTH",
"604 973 OFFCURVE",
"509 926 OFFCURVE",
"437 846 CURVE",
"419 828 OFFCURVE",
"398 798 OFFCURVE",
"374 756 CURVE",
"370 756 LINE",
"370 973 LINE",
"34 860 LINE",
"50 823 LINE",
"73 832 OFFCURVE",
"94 836 OFFCURVE",
"112 836 CURVE SMOOTH",
"176 836 OFFCURVE",
"201 797 OFFCURVE",
"204 692 CURVE SMOOTH",
"204 -203 LINE SMOOTH",
"204 -257 OFFCURVE",
"199 -297 OFFCURVE",
"190 -323 CURVE SMOOTH",
"171 -375 OFFCURVE",
"130 -393 OFFCURVE",
"34 -393 CURVE",
"34 -432 LINE"
);
},
{
closed = 1;
nodes = (
"444 782 OFFCURVE",
"524 827 OFFCURVE",
"609 827 CURVE SMOOTH",
"664 827 OFFCURVE",
"714 810 OFFCURVE",
"757 777 CURVE SMOOTH",
"843 710 OFFCURVE",
"892 585 OFFCURVE",
"892 430 CURVE SMOOTH",
"892 351 OFFCURVE",
"880 281 OFFCURVE",
"856 222 CURVE SMOOTH",
"808 102 OFFCURVE",
"718 35 OFFCURVE",
"601 35 CURVE SMOOTH",
"506 35 OFFCURVE",
"435 85 OFFCURVE",
"403 141 CURVE SMOOTH",
"378 186 OFFCURVE",
"370 239 OFFCURVE",
"370 340 CURVE SMOOTH",
"370 692 LINE"
);
}
);
width = 1130;
}
);
note = p;
unicode = 0070;
},
{
glyphname = q;
lastChange = "2019-08-28 12:56:43 +0000";
layers = (
{
layerId = "500BB636-1048-4D7F-B62E-A2796C57CEF4";
paths = (
{
closed = 1;
nodes = (
"75 353 OFFCURVE",
"91 273 OFFCURVE",
"123 202 CURVE SMOOTH",
"186 59 OFFCURVE",
"303 -27 OFFCURVE",
"443 -27 CURVE SMOOTH",
"552 -27 OFFCURVE",
"669 39 OFFCURVE",
"765 154 CURVE",
"765 -205 LINE SMOOTH",
"765 -262 OFFCURVE",
"761 -302 OFFCURVE",
"753 -327 CURVE SMOOTH",
"736 -377 OFFCURVE",
"694 -393 OFFCURVE",
"595 -393 CURVE",
"595 -432 LINE",
"1091 -432 LINE",
"1091 -393 LINE",
"1068 -393 LINE SMOOTH",
"1032 -392 OFFCURVE",
"1005 -385 OFFCURVE",
"986 -373 CURVE SMOOTH",
"948 -350 OFFCURVE",
"933 -302 OFFCURVE",
"933 -205 CURVE SMOOTH",
"933 973 LINE",
"898 973 LINE",
"870 933 OFFCURVE",
"831 911 OFFCURVE",
"781 907 CURVE",
"707 951 OFFCURVE",
"632 973 OFFCURVE",
"556 973 CURVE SMOOTH",
"467 973 OFFCURVE",
"385 950 OFFCURVE",
"312 904 CURVE SMOOTH",
"165 811 OFFCURVE",
"75 637 OFFCURVE",
"75 440 CURVE SMOOTH"
);
},
{
closed = 1;
nodes = (
"247 588 OFFCURVE",
"259 659 OFFCURVE",
"283 720 CURVE SMOOTH",
"331 843 OFFCURVE",
"423 913 OFFCURVE",
"538 913 CURVE SMOOTH",
"689 913 OFFCURVE",
"765 831 OFFCURVE",
"765 666 CURVE SMOOTH",
"765 213 LINE",
"759 207 LINE SMOOTH",
"687 135 OFFCURVE",
"642 115 OFFCURVE",
"554 115 CURVE SMOOTH",
"494 115 OFFCURVE",
"441 131 OFFCURVE",
"394 164 CURVE SMOOTH",
"301 228 OFFCURVE",
"247 352 OFFCURVE",
"247 508 CURVE SMOOTH"
);
}
);
width = 1130;
}
);
note = q;
unicode = 0071;
},
{
glyphname = r;
lastChange = "2019-03-06 14:50:25 +0000";
layers = (
{
layerId = "500BB636-1048-4D7F-B62E-A2796C57CEF4";
paths = (
{
closed = 1;
nodes = (
"678 968 OFFCURVE",
"657 973 OFFCURVE",
"634 973 CURVE SMOOTH",
"542 973 OFFCURVE",
"472 918 OFFCURVE",
"385 771 CURVE",
"384 769 OFFCURVE",
"381 766 OFFCURVE",
"377 763 CURVE SMOOTH",
"373 760 OFFCURVE",
"370 757 OFFCURVE",
"368 754 CURVE",
"365 748 OFFCURVE",
"362 745 OFFCURVE",
"359 745 CURVE",
"358 747 LINE",
"358 748 LINE",
"351 743 LINE",
"350 742 OFFCURVE",
"348 744 OFFCURVE",
"349 745 CURVE",
"349 745 OFFCURVE",
"349 745 OFFCURVE",
"349 745 CURVE",
"351 747 LINE",
"355 750 LINE",
"349 748 LINE",
"343 746 LINE",
"342 746 OFFCURVE",
"342 746 OFFCURVE",
"342 746 CURVE",
"341 745 OFFCURVE",
"341 745 OFFCURVE",
"340 746 CURVE",
"340 747 OFFCURVE",
"340 748 OFFCURVE",
"341 749 CURVE",
"353 754 LINE",
"349 754 LINE",
"347 755 LINE",
"345 758 LINE",
"344 759 OFFCURVE",
"344 761 OFFCURVE",
"345 762 CURVE",
"345 762 OFFCURVE",
"347 763 OFFCURVE",
"347 764 CURVE SMOOTH",
"347 766 LINE SMOOTH",
"347 767 OFFCURVE",
"347 768 OFFCURVE",
"348 769 CURVE",
"350 770 OFFCURVE",
"353 771 OFFCURVE",
"358 772 CURVE",
"362 772 OFFCURVE",
"365 772 OFFCURVE",
"368 773 CURVE",
"369 773 OFFCURVE",
"376 774 OFFCURVE",
"377 778 CURVE",
"378 781 LINE",
"378 930 LINE",
"339 973 LINE",
"54 854 LINE",
"67 819 LINE",
"94 830 OFFCURVE",
"116 836 OFFCURVE",
"135 836 CURVE SMOOTH",
"158 836 OFFCURVE",
"174 828 OFFCURVE",
"185 813 CURVE",
"206 782 OFFCURVE",
"210 739 OFFCURVE",
"210 664 CURVE SMOOTH",
"210 227 LINE SMOOTH",
"210 175 OFFCURVE",
"206 136 OFFCURVE",
"198 111 CURVE SMOOTH",
"181 59 OFFCURVE",
"141 38 OFFCURVE",
"60 37 CURVE SMOOTH",
"54 37 LINE",
"54 0 LINE",
"558 0 LINE",
"558 37 LINE",
"527 37 LINE SMOOTH",
"486 38 OFFCURVE",
"456 45 OFFCURVE",
"435 56 CURVE SMOOTH",
"394 79 OFFCURVE",
"378 126 OFFCURVE",
"378 229 CURVE SMOOTH",
"378 696 LINE",
"415 767 OFFCURVE",
"458 818 OFFCURVE",
"501 835 CURVE SMOOTH",
"514 840 OFFCURVE",
"526 843 OFFCURVE",
"537 843 CURVE SMOOTH",
"562 843 OFFCURVE",
"581 831 OFFCURVE",
"594 806 CURVE SMOOTH",
"609 777 OFFCURVE",
"636 762 OFFCURVE",
"667 762 CURVE SMOOTH",
"718 762 OFFCURVE",
"763 800 OFFCURVE",
"763 856 CURVE SMOOTH",
"763 896 OFFCURVE",
"737 934 OFFCURVE",
"697 957 CURVE SMOOTH"
);
},
{
closed = 1;
nodes = (
"355 758 LINE",
"359 760 LINE",
"360 762 LINE",
"360 763 OFFCURVE",
"360 764 OFFCURVE",
"359 765 CURVE SMOOTH",
"357 767 OFFCURVE",
"354 767 OFFCURVE",
"351 765 CURVE",
"349 764 LINE",
"350 763 OFFCURVE",
"350 762 OFFCURVE",
"349 760 CURVE",
"350 758 LINE"
);
}
);
width = 788;
}
);
note = r;
unicode = 0072;
},
{
glyphname = s;
lastChange = "2019-08-28 12:53:22 +0000";
layers = (
{
layerId = "500BB636-1048-4D7F-B62E-A2796C57CEF4";
paths = (
{
closed = 1;
nodes = (
"99 570 OFFCURVE",
"183 509 OFFCURVE",
"323 430 CURVE SMOOTH",
"425 373 OFFCURVE",
"493 328 OFFCURVE",
"526 295 CURVE SMOOTH",
"558 262 OFFCURVE",
"574 222 OFFCURVE",
"574 174 CURVE SMOOTH",
"574 98 OFFCURVE",
"499 35 OFFCURVE",
"413 35 CURVE SMOOTH",
"272 35 OFFCURVE",
"167 143 OFFCURVE",
"140 319 CURVE",
"105 319 LINE",
"105 0 LINE",
"149 0 LINE",
"158 9 OFFCURVE",
"170 14 OFFCURVE",
"185 14 CURVE SMOOTH",
"244 14 OFFCURVE",
"308 -29 OFFCURVE",
"409 -29 CURVE SMOOTH",
"577 -29 OFFCURVE",
"720 91 OFFCURVE",
"720 254 CURVE SMOOTH",
"720 301 OFFCURVE",
"711 342 OFFCURVE",
"692 377 CURVE SMOOTH",
"654 447 OFFCURVE",
"573 507 OFFCURVE",
"413 586 CURVE SMOOTH",
"268 657 OFFCURVE",
"216 709 OFFCURVE",
"216 788 CURVE SMOOTH",
"216 812 OFFCURVE",
"223 834 OFFCURVE",
"237 853 CURVE SMOOTH",
"265 892 OFFCURVE",
"316 915 OFFCURVE",
"380 915 CURVE SMOOTH",
"419 915 OFFCURVE",
"456 905 OFFCURVE",
"489 884 CURVE SMOOTH",
"555 842 OFFCURVE",
"600 761 OFFCURVE",
"613 662 CURVE",
"650 662 LINE",
"650 950 LINE",
"613 950 LINE",
"602 942 OFFCURVE",
"589 938 OFFCURVE",
"572 938 CURVE SMOOTH",
"559 938 OFFCURVE",
"545 940 OFFCURVE",
"531 944 CURVE SMOOTH",
"468 963 LINE SMOOTH",
"445 970 OFFCURVE",
"419 973 OFFCURVE",
"388 973 CURVE SMOOTH",
"333 973 OFFCURVE",
"283 961 OFFCURVE",
"239 938 CURVE SMOOTH",
"151 891 OFFCURVE",
"99 806 OFFCURVE",
"99 702 CURVE SMOOTH"
);
},
{
closed = 1;
nodes = (
"625 950 LINE",
"620 942 OFFCURVE",
"611 924 OFFCURVE",
"609 917 CURVE SMOOTH",
"608 914 OFFCURVE",
"607 911 OFFCURVE",
"605 909 CURVE SMOOTH",
"604 908 OFFCURVE",
"602 908 OFFCURVE",
"602 909 CURVE",
"596 904 LINE",
"594 902 OFFCURVE",
"593 903 OFFCURVE",
"593 904 CURVE SMOOTH",
"593 905 LINE",
"595 908 LINE",
"598 911 LINE",
"587 904 LINE",
"586 903 OFFCURVE",
"585 903 OFFCURVE",
"584 904 CURVE",
"584 905 OFFCURVE",
"584 905 OFFCURVE",
"585 906 CURVE",
"596 914 LINE",
"590 914 LINE SMOOTH",
"589 914 OFFCURVE",
"588 914 OFFCURVE",
"587 915 CURVE",
"586 918 OFFCURVE",
"586 920 OFFCURVE",
"588 922 CURVE",
"587 922 LINE",
"586 923 OFFCURVE",
"586 931 OFFCURVE",
"595 931 CURVE SMOOTH",
"607 931 OFFCURVE",
"613 939 OFFCURVE",
"613 950 CURVE"
);
},
{
closed = 1;
nodes = (
"600 921 LINE",
"600 923 LINE SMOOTH",
"600 924 OFFCURVE",
"598 926 OFFCURVE",
"596 927 CURVE",
"593 927 OFFCURVE",
"591 926 OFFCURVE",
"590 923 CURVE",
"589 922 LINE",
"590 922 OFFCURVE",
"590 920 OFFCURVE",
"590 918 CURVE",
"592 917 LINE",
"596 918 LINE"
);
}
);
width = 788;
}
);
note = s;
unicode = 0073;
},
{
glyphname = t;
lastChange = "2019-03-06 14:50:36 +0000";
layers = (
{
layerId = "500BB636-1048-4D7F-B62E-A2796C57CEF4";
paths = (
{
closed = 1;
nodes = (
"171 891 LINE",
"171 244 LINE SMOOTH",
"171 63 OFFCURVE",
"235 -27 OFFCURVE",
"364 -27 CURVE SMOOTH",
"469 -27 OFFCURVE",
"552 33 OFFCURVE",
"624 168 CURVE",
"583 168 LINE",
"540 112 OFFCURVE",
"506 90 OFFCURVE",
"458 90 CURVE SMOOTH",
"386 90 OFFCURVE",
"337 147 OFFCURVE",
"337 231 CURVE SMOOTH",
"337 891 LINE",
"556 891 LINE",
"556 950 LINE",
"337 950 LINE",
"337 1251 LINE",
"306 1251 LINE",
"261 1099 OFFCURVE",
"163 985 OFFCURVE",
"26 928 CURVE",
"26 891 LINE"
);
}
);
width = 649;
}
);
note = t;
unicode = 0074;
},
{
glyphname = u;
lastChange = "2019-03-06 14:46:44 +0000";
layers = (
{
layerId = "500BB636-1048-4D7F-B62E-A2796C57CEF4";
paths = (
{
closed = 1;
nodes = (
"36 911 LINE",
"62 911 LINE SMOOTH",
"100 911 OFFCURVE",
"130 907 OFFCURVE",
"151 898 CURVE SMOOTH",
"193 881 OFFCURVE",
"208 843 OFFCURVE",
"208 770 CURVE SMOOTH",
"208 240 LINE",
"212 145 OFFCURVE",
"246 59 OFFCURVE",
"321 11 CURVE",
"360 -16 OFFCURVE",
"403 -29 OFFCURVE",
"450 -29 CURVE SMOOTH",
"554 -29 OFFCURVE",
"654 35 OFFCURVE",
"775 176 CURVE",
"775 -25 LINE",
"814 -25 LINE",
"1103 86 LINE",
"1103 125 LINE",
"1072 114 OFFCURVE",
"1049 109 OFFCURVE",
"1035 109 CURVE SMOOTH",
"970 109 OFFCURVE",
"946 147 OFFCURVE",
"943 256 CURVE",
"943 950 LINE",
"615 950 LINE",
"615 911 LINE",
"636 911 LINE SMOOTH",
"672 911 OFFCURVE",
"700 907 OFFCURVE",
"720 898 CURVE SMOOTH",
"759 881 OFFCURVE",
"775 845 OFFCURVE",
"775 774 CURVE SMOOTH",
"775 227 LINE",
"694 144 OFFCURVE",
"612 102 OFFCURVE",
"531 102 CURVE SMOOTH",
"422 102 OFFCURVE",
"374 168 OFFCURVE",
"374 315 CURVE SMOOTH",
"374 950 LINE",
"36 950 LINE"
);
}
);
width = 1130;
}
);
note = u;
unicode = 0075;
},
{
glyphname = v;
lastChange = "2019-03-06 14:50:31 +0000";
layers = (
{
layerId = "500BB636-1048-4D7F-B62E-A2796C57CEF4";
paths = (
{
closed = 1;
nodes = (
"28 950 LINE",
"28 911 LINE",
"71 909 OFFCURVE",
"106 892 OFFCURVE",
"131 860 CURVE SMOOTH",
"158 825 OFFCURVE",
"192 754 OFFCURVE",
"235 647 CURVE SMOOTH",
"511 -27 LINE",
"550 -27 LINE",
"876 780 LINE SMOOTH",
"889 813 OFFCURVE",
"901 839 OFFCURVE",
"912 857 CURVE SMOOTH",
"934 892 OFFCURVE",
"955 904 OFFCURVE",
"998 911 CURVE",
"998 950 LINE",
"714 950 LINE",
"714 911 LINE",
"791 910 OFFCURVE",
"818 893 OFFCURVE",
"818 848 CURVE SMOOTH",
"818 839 OFFCURVE",
"811 813 OFFCURVE",
"798 772 CURVE",
"579 231 LINE",
"388 698 LINE",
"380 717 LINE",
"361 768 OFFCURVE",
"351 806 OFFCURVE",
"351 831 CURVE SMOOTH",
"351 880 OFFCURVE",
"385 907 OFFCURVE",
"454 911 CURVE",
"454 950 LINE"
);
}
);
width = 1024;
}
);
note = v;
unicode = 0076;
},
{
glyphname = w;
lastChange = "2019-03-06 14:48:32 +0000";
layers = (
{
layerId = "500BB636-1048-4D7F-B62E-A2796C57CEF4";
paths = (
{
closed = 1;
nodes = (
"1170 915 LINE",
"1275 914 OFFCURVE",
"1294 875 OFFCURVE",
"1263 776 CURVE",
"1060 244 LINE",
"861 774 LINE SMOOTH",
"825 865 OFFCURVE",
"857 915 OFFCURVE",
"955 915 CURVE SMOOTH",
"964 915 LINE",
"964 950 LINE",
"28 950 LINE",
"28 915 LINE",
"105 910 OFFCURVE",
"129 860 OFFCURVE",
"165 758 CURVE SMOOTH",
"454 -25 LINE",
"491 -25 LINE",
"761 582 LINE",
"990 -25 LINE",
"1031 -25 LINE",
"1318 729 LINE SMOOTH",
"1356 830 OFFCURVE",
"1385 910 OFFCURVE",
"1451 915 CURVE",
"1451 950 LINE",
"1170 950 LINE"
);
},
{
closed = 1;
nodes = (
"527 228 OFFCURVE",
"526 225 OFFCURVE",
"522 218 CURVE",
"516 210 LINE",
"510 203 LINE",
"509 202 OFFCURVE",
"507 203 OFFCURVE",
"507 204 CURVE SMOOTH",
"507 205 LINE",
"500 200 LINE",
"499 199 OFFCURVE",
"497 201 OFFCURVE",
"498 202 CURVE SMOOTH",
"500 204 LINE",
"504 207 LINE",
"492 203 LINE",
"491 203 LINE",
"490 202 OFFCURVE",
"490 202 OFFCURVE",
"489 203 CURVE",
"489 204 OFFCURVE",
"489 205 OFFCURVE",
"490 206 CURVE",
"502 211 LINE",
"498 211 LINE",
"496 212 LINE",
"494 215 LINE",
"493 216 OFFCURVE",
"493 218 OFFCURVE",
"494 219 CURVE",
"494 219 OFFCURVE",
"496 220 OFFCURVE",
"496 221 CURVE SMOOTH",
"496 223 LINE SMOOTH",
"496 228 OFFCURVE",
"503 229 OFFCURVE",
"507 229 CURVE SMOOTH",
"522 229 OFFCURVE",
"524 235 OFFCURVE",
"523 241 CURVE SMOOTH",
"522 244 LINE",
"335 760 LINE SMOOTH",
"286 896 OFFCURVE",
"381 923 OFFCURVE",
"476 923 CURVE SMOOTH",
"617 923 OFFCURVE",
"633 900 OFFCURVE",
"726 672 CURVE",
"532 239 LINE SMOOTH"
);
},
{
closed = 1;
nodes = (
"498 221 LINE",
"499 220 OFFCURVE",
"499 219 OFFCURVE",
"498 217 CURVE",
"499 215 LINE",
"504 215 LINE",
"508 217 LINE",
"509 219 LINE",
"509 220 OFFCURVE",
"509 221 OFFCURVE",
"508 222 CURVE SMOOTH",
"506 224 OFFCURVE",
"503 224 OFFCURVE",
"500 222 CURVE"
);
}
);
width = 1472;
}
);
note = w;
unicode = 0077;
},
{
glyphname = x;
lastChange = "2019-03-06 14:03:00 +0000";
layers = (
{
layerId = "500BB636-1048-4D7F-B62E-A2796C57CEF4";
paths = (
{
closed = 1;
nodes = (
"345 0 LINE",
"345 37 LINE",
"284 37 OFFCURVE",
"253 54 OFFCURVE",
"253 88 CURVE SMOOTH",
"253 107 OFFCURVE",
"265 133 OFFCURVE",
"288 166 CURVE SMOOTH",
"462 426 LINE",
"597 209 LINE",
"634 152 LINE",
"649 127 OFFCURVE",
"656 106 OFFCURVE",
"656 88 CURVE SMOOTH",
"656 54 OFFCURVE",
"627 37 OFFCURVE",
"570 37 CURVE",
"570 0 LINE",
"990 0 LINE",
"990 37 LINE",
"969 38 OFFCURVE",
"948 46 OFFCURVE",
"925 59 CURVE",
"874 95 OFFCURVE",
"805 182 OFFCURVE",
"720 319 CURVE SMOOTH",
"562 573 LINE",
"661 721 LINE SMOOTH",
"694 770 OFFCURVE",
"722 807 OFFCURVE",
"747 834 CURVE SMOOTH",
"795 886 OFFCURVE",
"835 908 OFFCURVE",
"896 915 CURVE",
"896 950 LINE",
"581 950 LINE",
"581 915 LINE",
"631 913 OFFCURVE",
"656 895 OFFCURVE",
"656 862 CURVE SMOOTH",
"656 839 OFFCURVE",
"644 811 OFFCURVE",
"620 778 CURVE SMOOTH",
"523 635 LINE",
"435 772 LINE SMOOTH",
"409 811 OFFCURVE",
"396 841 OFFCURVE",
"396 862 CURVE SMOOTH",
"396 893 OFFCURVE",
"421 911 OFFCURVE",
"472 915 CURVE",
"472 950 LINE",
"46 950 LINE",
"46 915 LINE",
"77 914 OFFCURVE",
"103 908 OFFCURVE",
"124 898 CURVE SMOOTH",
"167 877 OFFCURVE",
"202 838 OFFCURVE",
"263 739 CURVE SMOOTH",
"423 487 LINE",
"241 217 LINE SMOOTH",
"162 101 OFFCURVE",
"93 41 OFFCURVE",
"34 37 CURVE",
"34 0 LINE"
);
}
);
width = 1024;
}
);
note = x;
unicode = 0078;
},
{
glyphname = y;
lastChange = "2019-03-06 14:48:36 +0000";
layers = (
{
layerId = "500BB636-1048-4D7F-B62E-A2796C57CEF4";
paths = (
{
closed = 1;
nodes = (
"34 950 LINE",
"34 915 LINE",
"97 908 OFFCURVE",
"142 863 OFFCURVE",
"189 758 CURVE SMOOTH",
"519 20 LINE",
"486 -61 LINE SMOOTH",
"435 -198 OFFCURVE",
"381 -266 OFFCURVE",
"323 -266 CURVE SMOOTH",
"308 -266 OFFCURVE",
"286 -260 OFFCURVE",
"259 -248 CURVE SMOOTH",
"236 -238 OFFCURVE",
"219 -232 OFFCURVE",
"206 -229 CURVE",
"197 -228 OFFCURVE",
"188 -227 OFFCURVE",
"181 -227 CURVE SMOOTH",
"116 -227 OFFCURVE",
"73 -266 OFFCURVE",
"73 -326 CURVE SMOOTH",
"73 -391 OFFCURVE",
"130 -438 OFFCURVE",
"210 -438 CURVE SMOOTH",
"293 -438 OFFCURVE",
"374 -395 OFFCURVE",
"427 -326 CURVE SMOOTH",
"479 -256 OFFCURVE",
"523 -173 OFFCURVE",
"560 -76 CURVE SMOOTH",
"882 795 LINE SMOOTH",
"913 874 OFFCURVE",
"943 907 OFFCURVE",
"990 915 CURVE",
"990 950 LINE",
"720 950 LINE",
"720 915 LINE",
"738 915 LINE",
"789 911 OFFCURVE",
"814 891 OFFCURVE",
"814 854 CURVE SMOOTH",
"814 837 OFFCURVE",
"810 816 OFFCURVE",
"802 791 CURVE",
"597 238 LINE",
"366 754 LINE SMOOTH",
"352 788 OFFCURVE",
"345 816 OFFCURVE",
"345 838 CURVE SMOOTH",
"345 889 OFFCURVE",
"377 914 OFFCURVE",
"445 915 CURVE SMOOTH",
"458 915 LINE",
"458 950 LINE"
);
}
);
width = 1024;
}
);
note = y;
unicode = 0079;
},
{
glyphname = z;
lastChange = "2019-03-06 14:03:00 +0000";
layers = (
{
layerId = "500BB636-1048-4D7F-B62E-A2796C57CEF4";
paths = (
{
closed = 1;
nodes = (
"833 0 LINE",
"847 285 LINE",
"808 285 LINE",
"808 272 LINE SMOOTH",
"807 221 OFFCURVE",
"799 181 OFFCURVE",
"785 152 CURVE SMOOTH",
"756 94 OFFCURVE",
"696 68 OFFCURVE",
"593 68 CURVE SMOOTH",
"249 68 LINE",
"857 913 LINE",
"857 950 LINE",
"95 950 LINE",
"95 698 LINE",
"128 698 LINE",
"134 750 OFFCURVE",
"143 788 OFFCURVE",
"154 813 CURVE SMOOTH",
"177 862 OFFCURVE",
"217 879 OFFCURVE",
"302 879 CURVE SMOOTH",
"634 879 LINE",
"28 37 LINE",
"28 0 LINE"
);
}
);
width = 897;
}
);
note = z;
unicode = 007A;
},
{
glyphname = braceleft;
lastChange = "2019-03-06 14:03:00 +0000";
layers = (
{
layerId = "500BB636-1048-4D7F-B62E-A2796C57CEF4";
paths = (
{
closed = 1;
nodes = (
"354 444 OFFCURVE",
"437 365 OFFCURVE",
"437 254 CURVE SMOOTH",
"437 225 OFFCURVE",
"429 174 OFFCURVE",
"413 102 CURVE SMOOTH",
"399 45 OFFCURVE",
"392 -6 OFFCURVE",
"392 -53 CURVE SMOOTH",
"392 -117 OFFCURVE",
"408 -177 OFFCURVE",
"440 -233 CURVE SMOOTH",
"504 -345 OFFCURVE",
"623 -422 OFFCURVE",
"767 -442 CURVE",
"767 -408 LINE",
"615 -369 OFFCURVE",
"536 -283 OFFCURVE",
"536 -160 CURVE SMOOTH",
"536 -121 OFFCURVE",
"542 -71 OFFCURVE",
"554 -12 CURVE SMOOTH",
"567 60 OFFCURVE",
"574 116 OFFCURVE",
"574 156 CURVE SMOOTH",
"574 301 OFFCURVE",
"474 419 OFFCURVE",
"290 494 CURVE",
"378 525 OFFCURVE",
"412 545 OFFCURVE",
"468 598 CURVE SMOOTH",
"539 665 OFFCURVE",
"574 741 OFFCURVE",
"574 827 CURVE SMOOTH",
"574 870 OFFCURVE",
"567 926 OFFCURVE",
"552 995 CURVE SMOOTH",
"540 1054 OFFCURVE",
"534 1104 OFFCURVE",
"534 1145 CURVE SMOOTH",
"534 1270 OFFCURVE",
"619 1357 OFFCURVE",
"767 1384 CURVE",
"767 1423 LINE",
"696 1414 OFFCURVE",
"631 1391 OFFCURVE",
"574 1354 CURVE SMOOTH",
"459 1280 OFFCURVE",
"390 1161 OFFCURVE",
"390 1032 CURVE SMOOTH",
"390 985 OFFCURVE",
"397 931 OFFCURVE",
"411 870 CURVE SMOOTH",
"427 804 OFFCURVE",
"435 754 OFFCURVE",
"435 721 CURVE SMOOTH",
"435 687 OFFCURVE",
"426 655 OFFCURVE",
"407 626 CURVE SMOOTH",
"370 567 OFFCURVE",
"299 523 OFFCURVE",
"210 510 CURVE",
"210 471 LINE"
);
}
);
width = 980;
}
);
note = braceleft;
unicode = 007B;
},
{
glyphname = bar;
lastChange = "2019-03-06 14:03:00 +0000";
layers = (
{
layerId = "500BB636-1048-4D7F-B62E-A2796C57CEF4";
paths = (
{
closed = 1;
nodes = (
"243 -442 LINE",
"243 1423 LINE",
"161 1423 LINE",
"161 -442 LINE"
);
}
);
width = 405;
}
);
note = bar;
unicode = 007C;
},
{
glyphname = braceright;
lastChange = "2019-03-06 14:03:00 +0000";
layers = (
{
layerId = "500BB636-1048-4D7F-B62E-A2796C57CEF4";
paths = (
{
closed = 1;
nodes = (
"283 -433 OFFCURVE",
"347 -410 OFFCURVE",
"405 -373 CURVE SMOOTH",
"521 -299 OFFCURVE",
"591 -180 OFFCURVE",
"591 -51 CURVE SMOOTH",
"591 -13 OFFCURVE",
"583 40 OFFCURVE",
"568 109 CURVE SMOOTH",
"552 177 OFFCURVE",
"544 227 OFFCURVE",
"544 260 CURVE SMOOTH",
"544 363 OFFCURVE",
"634 446 OFFCURVE",
"771 471 CURVE",
"771 510 LINE",
"627 537 OFFCURVE",
"542 616 OFFCURVE",
"542 727 CURVE SMOOTH",
"542 756 OFFCURVE",
"550 807 OFFCURVE",
"566 879 CURVE SMOOTH",
"581 946 OFFCURVE",
"589 997 OFFCURVE",
"589 1034 CURVE SMOOTH",
"589 1098 OFFCURVE",
"573 1158 OFFCURVE",
"541 1214 CURVE SMOOTH",
"477 1325 OFFCURVE",
"359 1403 OFFCURVE",
"212 1423 CURVE",
"212 1386 LINE",
"364 1349 OFFCURVE",
"443 1264 OFFCURVE",
"443 1141 CURVE SMOOTH",
"443 1102 OFFCURVE",
"437 1052 OFFCURVE",
"425 993 CURVE SMOOTH",
"412 921 OFFCURVE",
"405 865 OFFCURVE",
"405 825 CURVE SMOOTH",
"405 680 OFFCURVE",
"505 562 OFFCURVE",
"689 487 CURVE",
"600 455 OFFCURVE",
"568 436 OFFCURVE",
"511 383 CURVE SMOOTH",
"440 316 OFFCURVE",
"405 240 OFFCURVE",
"405 154 CURVE SMOOTH",
"405 111 OFFCURVE",
"412 55 OFFCURVE",
"427 -14 CURVE SMOOTH",
"439 -73 OFFCURVE",
"445 -123 OFFCURVE",
"445 -164 CURVE SMOOTH",
"445 -289 OFFCURVE",
"360 -376 OFFCURVE",
"212 -403 CURVE",
"212 -442 LINE"
);
}
);
width = 980;
}
);
note = braceright;
unicode = 007D;
},
{
glyphname = asciitilde;
lastChange = "2019-03-06 14:03:00 +0000";
layers = (
{
layerId = "500BB636-1048-4D7F-B62E-A2796C57CEF4";
paths = (
{
closed = 1;
nodes = (
"94 552 OFFCURVE",
"103 585 OFFCURVE",
"120 614 CURVE SMOOTH",
"152 672 OFFCURVE",
"207 705 OFFCURVE",
"271 705 CURVE SMOOTH",
"314 705 OFFCURVE",
"385 678 OFFCURVE",
"484 625 CURVE SMOOTH",
"635 542 OFFCURVE",
"710 516 OFFCURVE",
"794 516 CURVE SMOOTH",
"842 516 OFFCURVE",
"886 530 OFFCURVE",
"926 558 CURVE SMOOTH",
"1006 614 OFFCURVE",
"1058 719 OFFCURVE",
"1062 840 CURVE",
"1013 840 LINE",
"1000 724 OFFCURVE",
"930 655 OFFCURVE",
"830 655 CURVE SMOOTH",
"780 655 OFFCURVE",
"706 682 OFFCURVE",
"609 735 CURVE SMOOTH",
"465 816 OFFCURVE",
"404 838 OFFCURVE",
"323 838 CURVE SMOOTH",
"273 838 OFFCURVE",
"227 824 OFFCURVE",
"185 796 CURVE SMOOTH",
"101 739 OFFCURVE",
"46 633 OFFCURVE",
"46 516 CURVE",
"91 516 LINE"
);
}
);
width = 1110;
}
);
note = asciitilde;
unicode = 007E;
},
{
glyphname = exclamdown;
lastChange = "2019-03-06 14:03:00 +0000";
layers = (
{
layerId = "500BB636-1048-4D7F-B62E-A2796C57CEF4";
paths = (
{
closed = 1;
nodes = (
"175 887 OFFCURVE",
"227 836 OFFCURVE",
"290 836 CURVE SMOOTH",
"351 836 OFFCURVE",
"402 887 OFFCURVE",
"402 950 CURVE SMOOTH",
"402 1011 OFFCURVE",
"351 1063 OFFCURVE",
"290 1063 CURVE SMOOTH",
"227 1063 OFFCURVE",
"175 1011 OFFCURVE",
"175 950 CURVE SMOOTH"
);
},
{
closed = 1;
nodes = (
"167 -342 OFFCURVE",
"212 -399 OFFCURVE",
"284 -399 CURVE SMOOTH",
"352 -399 OFFCURVE",
"400 -338 OFFCURVE",
"400 -250 CURVE SMOOTH",
"400 -232 OFFCURVE",
"399 -210 OFFCURVE",
"396 -184 CURVE SMOOTH",
"392 -154 LINE",
"306 664 LINE",
"269 664 LINE",
"177 -147 LINE",
"171 -190 LINE SMOOTH",
"168 -209 OFFCURVE",
"167 -229 OFFCURVE",
"167 -250 CURVE SMOOTH"
);
}
);
width = 555;
}
);
note = exclamdown;
unicode = 00A1;
},
{
glyphname = cent;
lastChange = "2019-03-06 14:03:00 +0000";
layers = (
{
layerId = "500BB636-1048-4D7F-B62E-A2796C57CEF4";
paths = (
{
closed = 1;
nodes = (
"48 388 OFFCURVE",
"61 315 OFFCURVE",
"87 248 CURVE SMOOTH",
"122 157 OFFCURVE",
"152 119 OFFCURVE",
"237 51 CURVE",
"81 -387 LINE",
"144 -387 LINE",
"290 16 LINE",
"367 -17 OFFCURVE",
"397 -25 OFFCURVE",
"460 -25 CURVE SMOOTH",
"523 -25 OFFCURVE",
"583 -9 OFFCURVE",
"640 23 CURVE SMOOTH",
"752 86 OFFCURVE",
"834 203 OFFCURVE",
"869 354 CURVE",
"837 367 LINE",
"788 216 OFFCURVE",
"683 135 OFFCURVE",
"538 135 CURVE SMOOTH",
"459 135 OFFCURVE",
"426 147 OFFCURVE",
"357 199 CURVE",
"599 870 LINE",
"618 849 OFFCURVE",
"631 818 OFFCURVE",
"636 778 CURVE SMOOTH",
"645 697 OFFCURVE",
"674 670 OFFCURVE",
"749 670 CURVE SMOOTH",
"804 670 OFFCURVE",
"845 703 OFFCURVE",
"845 750 CURVE SMOOTH",
"845 834 OFFCURVE",
"760 918 OFFCURVE",
"632 961 CURVE",
"781 1374 LINE",
"716 1374 LINE",
"570 971 LINE",
"539 972 OFFCURVE",
"520 973 OFFCURVE",
"513 973 CURVE SMOOTH",
"426 973 OFFCURVE",
"347 951 OFFCURVE",
"276 908 CURVE SMOOTH",
"135 820 OFFCURVE",
"48 658 OFFCURVE",
"48 467 CURVE SMOOTH"
);
},
{
closed = 1;
nodes = (
"212 628 OFFCURVE",
"223 690 OFFCURVE",
"246 743 CURVE SMOOTH",
"291 849 OFFCURVE",
"375 909 OFFCURVE",
"486 909 CURVE SMOOTH",
"498 909 OFFCURVE",
"517 906 OFFCURVE",
"544 901 CURVE",
"308 246 LINE",
"244 327 OFFCURVE",
"212 432 OFFCURVE",
"212 559 CURVE SMOOTH"
);
}
);
width = 897;
}
);
note = cent;
unicode = 00A2;
},
{
glyphname = sterling;
lastChange = "2019-03-06 14:03:00 +0000";
layers = (
{
layerId = "500BB636-1048-4D7F-B62E-A2796C57CEF4";
paths = (
{
closed = 1;
nodes = (
"38 26 OFFCURVE",
"84 -25 OFFCURVE",
"155 -25 CURVE SMOOTH",
"225 -25 OFFCURVE",
"288 30 OFFCURVE",
"345 141 CURVE",
"372 121 LINE SMOOTH",
"425 80 OFFCURVE",
"469 50 OFFCURVE",
"502 30 CURVE SMOOTH",
"569 -10 OFFCURVE",
"614 -25 OFFCURVE",
"685 -25 CURVE SMOOTH",
"837 -25 OFFCURVE",
"945 102 OFFCURVE",
"982 319 CURVE",
"945 319 LINE",
"929 209 OFFCURVE",
"860 154 OFFCURVE",
"738 154 CURVE SMOOTH",
"641 154 OFFCURVE",
"545 176 OFFCURVE",
"386 236 CURVE",
"429 328 OFFCURVE",
"450 447 OFFCURVE",
"450 592 CURVE",
"448 662 LINE",
"448 686 LINE",
"714 686 LINE",
"714 780 LINE",
"445 780 LINE",
"443 809 LINE",
"437 907 LINE",
"431 1044 LINE",
"431 1075 LINE SMOOTH",
"431 1138 OFFCURVE",
"434 1185 OFFCURVE",
"441 1214 CURVE",
"458 1314 OFFCURVE",
"528 1374 OFFCURVE",
"624 1374 CURVE SMOOTH",
"704 1374 OFFCURVE",
"743 1336 OFFCURVE",
"747 1255 CURVE SMOOTH",
"754 1171 OFFCURVE",
"776 1137 OFFCURVE",
"824 1137 CURVE SMOOTH",
"867 1137 OFFCURVE",
"902 1176 OFFCURVE",
"902 1225 CURVE SMOOTH",
"902 1263 OFFCURVE",
"891 1298 OFFCURVE",
"869 1329 CURVE SMOOTH",
"825 1392 OFFCURVE",
"743 1430 OFFCURVE",
"646 1430 CURVE SMOOTH",
"570 1430 OFFCURVE",
"503 1411 OFFCURVE",
"445 1374 CURVE SMOOTH",
"328 1298 OFFCURVE",
"261 1155 OFFCURVE",
"261 971 CURVE SMOOTH",
"261 926 LINE",
"271 801 LINE",
"271 780 LINE",
"71 780 LINE",
"71 686 LINE",
"275 686 LINE",
"278 655 LINE",
"282 592 LINE",
"290 475 LINE",
"294 350 LINE",
"292 270 LINE",
"292 256 LINE",
"264 264 OFFCURVE",
"238 268 OFFCURVE",
"214 268 CURVE SMOOTH",
"110 268 OFFCURVE",
"38 201 OFFCURVE",
"38 102 CURVE SMOOTH"
);
},
{
closed = 1;
nodes = (
"95 164 OFFCURVE",
"136 207 OFFCURVE",
"187 207 CURVE SMOOTH",
"211 207 OFFCURVE",
"240 197 OFFCURVE",
"273 178 CURVE",
"248 83 OFFCURVE",
"210 35 OFFCURVE",
"159 35 CURVE SMOOTH",
"124 35 OFFCURVE",
"95 72 OFFCURVE",
"95 113 CURVE SMOOTH"
);
}
);
width = 1024;
}
);
note = sterling;
unicode = 00A3;
},
{
glyphname = currency;
lastChange = "2019-03-06 14:03:00 +0000";
layers = (
{
layerId = "500BB636-1048-4D7F-B62E-A2796C57CEF4";
paths = (
{
closed = 1;
nodes = (
"83 199 LINE",
"228 342 LINE",
"283 282 OFFCURVE",
"408 238 OFFCURVE",
"521 238 CURVE SMOOTH",
"614 238 OFFCURVE",
"705 273 OFFCURVE",
"792 342 CURVE",
"937 199 LINE",
"994 254 LINE",
"851 397 LINE",
"919 483 OFFCURVE",
"953 578 OFFCURVE",
"953 682 CURVE SMOOTH",
"953 783 OFFCURVE",
"919 876 OFFCURVE",
"851 963 CURVE",
"994 1104 LINE",
"937 1161 LINE",
"792 1018 LINE",
"720 1082 OFFCURVE",
"614 1120 OFFCURVE",
"513 1120 CURVE SMOOTH",
"413 1120 OFFCURVE",
"295 1078 OFFCURVE",
"228 1018 CURVE",
"83 1161 LINE",
"26 1104 LINE",
"169 963 LINE",
"102 880 OFFCURVE",
"69 786 OFFCURVE",
"69 680 CURVE SMOOTH",
"69 570 OFFCURVE",
"102 476 OFFCURVE",
"169 397 CURVE",
"26 254 LINE"
);
},
{
closed = 1;
nodes = (
"149 743 OFFCURVE",
"165 804 OFFCURVE",
"198 859 CURVE SMOOTH",
"262 970 OFFCURVE",
"379 1040 OFFCURVE",
"511 1040 CURVE SMOOTH",
"576 1040 OFFCURVE",
"637 1024 OFFCURVE",
"692 992 CURVE SMOOTH",
"803 927 OFFCURVE",
"873 810 OFFCURVE",
"873 678 CURVE SMOOTH",
"873 614 OFFCURVE",
"857 554 OFFCURVE",
"824 499 CURVE SMOOTH",
"759 387 OFFCURVE",
"642 317 OFFCURVE",
"511 317 CURVE SMOOTH",
"446 317 OFFCURVE",
"385 333 OFFCURVE",
"330 366 CURVE SMOOTH",
"219 430 OFFCURVE",
"149 547 OFFCURVE",
"149 678 CURVE SMOOTH"
);
}
);
width = 1024;
}
);
note = currency;
unicode = 00A4;
},
{
glyphname = yen;
lastChange = "2019-03-06 14:03:00 +0000";
layers = (
{
layerId = "500BB636-1048-4D7F-B62E-A2796C57CEF4";
paths = (
{
closed = 1;
nodes = (
"371 692 LINE",
"426 569 LINE",
"426 244 LINE SMOOTH",
"426 171 OFFCURVE",
"425 143 OFFCURVE",
"417 114 CURVE SMOOTH",
"409 81 OFFCURVE",
"399 67 OFFCURVE",
"376 55 CURVE",
"356 43 OFFCURVE",
"334 41 OFFCURVE",
"285 41 CURVE SMOOTH",
"252 41 LINE",
"252 0 LINE",
"768 0 LINE",
"768 41 LINE",
"727 41 LINE SMOOTH",
"651 41 OFFCURVE",
"620 60 OFFCURVE",
"607 116 CURVE SMOOTH",
"600 145 OFFCURVE",
"596 188 OFFCURVE",
"596 244 CURVE SMOOTH",
"596 590 LINE",
"641 692 LINE",
"1022 692 LINE",
"1022 766 LINE",
"676 766 LINE",
"768 971 LINE",
"1022 971 LINE",
"1022 1044 LINE",
"797 1044 LINE",
"850 1163 LINE SMOOTH",
"869 1205 OFFCURVE",
"886 1237 OFFCURVE",
"901 1259 CURVE SMOOTH",
"932 1302 OFFCURVE",
"962 1317 OFFCURVE",
"1018 1317 CURVE SMOOTH",
"1022 1317 LINE",
"1022 1356 LINE",
"676 1356 LINE",
"676 1317 LINE",
"684 1317 OFFCURVE",
"690 1317 OFFCURVE",
"693 1316 CURVE",
"705 1315 LINE SMOOTH",
"764 1311 OFFCURVE",
"788 1292 OFFCURVE",
"788 1255 CURVE SMOOTH",
"788 1241 OFFCURVE",
"781 1217 OFFCURVE",
"768 1182 CURVE",
"711 1044 LINE",
"403 1044 LINE",
"340 1196 LINE SMOOTH",
"328 1225 OFFCURVE",
"322 1244 OFFCURVE",
"322 1253 CURVE SMOOTH",
"322 1292 OFFCURVE",
"363 1313 OFFCURVE",
"444 1317 CURVE",
"444 1356 LINE",
"2 1356 LINE",
"2 1317 LINE",
"30 1317 OFFCURVE",
"53 1313 OFFCURVE",
"71 1305 CURVE SMOOTH",
"107 1288 OFFCURVE",
"134 1250 OFFCURVE",
"166 1174 CURVE SMOOTH",
"221 1044 LINE",
"2 1044 LINE",
"2 971 LINE",
"252 971 LINE",
"340 766 LINE",
"2 766 LINE",
"2 692 LINE"
);
},
{
closed = 1;
nodes = (
"676 971 LINE",
"555 678 LINE",
"434 971 LINE"
);
}
);
width = 1024;
}
);
note = yen;
unicode = 00A5;
},
{
glyphname = brokenbar;
lastChange = "2019-03-06 14:03:00 +0000";
layers = (
{
layerId = "500BB636-1048-4D7F-B62E-A2796C57CEF4";
paths = (
{
closed = 1;
nodes = (
"243 801 LINE",
"243 1423 LINE",
"161 1423 LINE",
"161 801 LINE"
);
},
{
closed = 1;
nodes = (
"161 -442 LINE",
"243 -442 LINE",
"243 180 LINE",
"161 180 LINE"
);
}
);
width = 405;
}
);
note = brokenbar;
unicode = 00A6;
},
{
glyphname = section;
lastChange = "2019-03-06 14:03:00 +0000";
layers = (
{
layerId = "500BB636-1048-4D7F-B62E-A2796C57CEF4";
paths = (
{
closed = 1;
nodes = (
"36 393 OFFCURVE",
"109 283 OFFCURVE",
"284 152 CURVE SMOOTH",
"395 68 OFFCURVE",
"468 6 OFFCURVE",
"501 -35 CURVE SMOOTH",
"538 -80 OFFCURVE",
"556 -127 OFFCURVE",
"556 -178 CURVE SMOOTH",
"556 -209 OFFCURVE",
"548 -239 OFFCURVE",
"531 -266 CURVE SMOOTH",
"497 -321 OFFCURVE",
"435 -356 OFFCURVE",
"368 -356 CURVE SMOOTH",
"303 -356 OFFCURVE",
"251 -315 OFFCURVE",
"251 -262 CURVE SMOOTH",
"251 -252 OFFCURVE",
"253 -237 OFFCURVE",
"257 -217 CURVE SMOOTH",
"262 -192 OFFCURVE",
"265 -173 OFFCURVE",
"265 -160 CURVE SMOOTH",
"265 -111 OFFCURVE",
"235 -78 OFFCURVE",
"192 -78 CURVE SMOOTH",
"149 -78 OFFCURVE",
"114 -119 OFFCURVE",
"114 -172 CURVE SMOOTH",
"114 -210 OFFCURVE",
"126 -246 OFFCURVE",
"149 -281 CURVE SMOOTH",
"196 -350 OFFCURVE",
"279 -395 OFFCURVE",
"368 -395 CURVE SMOOTH",
"422 -395 OFFCURVE",
"471 -382 OFFCURVE",
"515 -357 CURVE SMOOTH",
"603 -306 OFFCURVE",
"656 -215 OFFCURVE",
"656 -106 CURVE SMOOTH",
"656 -11 OFFCURVE",
"614 77 OFFCURVE",
"531 158 CURVE",
"672 238 OFFCURVE",
"753 365 OFFCURVE",
"753 506 CURVE SMOOTH",
"753 647 OFFCURVE",
"669 768 OFFCURVE",
"466 915 CURVE SMOOTH",
"408 957 OFFCURVE",
"363 994 OFFCURVE",
"331 1027 CURVE SMOOTH",
"266 1091 OFFCURVE",
"239 1145 OFFCURVE",
"239 1212 CURVE SMOOTH",
"239 1243 OFFCURVE",
"248 1273 OFFCURVE",
"265 1301 CURVE SMOOTH",
"300 1356 OFFCURVE",
"360 1391 OFFCURVE",
"427 1391 CURVE SMOOTH",
"492 1391 OFFCURVE",
"540 1351 OFFCURVE",
"540 1298 CURVE SMOOTH",
"540 1287 OFFCURVE",
"537 1270 OFFCURVE",
"531 1247 CURVE",
"528 1228 OFFCURVE",
"527 1211 OFFCURVE",
"527 1196 CURVE SMOOTH",
"527 1149 OFFCURVE",
"558 1112 OFFCURVE",
"599 1112 CURVE SMOOTH",
"646 1112 OFFCURVE",
"679 1153 OFFCURVE",
"679 1206 CURVE SMOOTH",
"679 1246 OFFCURVE",
"668 1283 OFFCURVE",
"645 1317 CURVE SMOOTH",
"600 1385 OFFCURVE",
"514 1427 OFFCURVE",
"423 1427 CURVE SMOOTH",
"370 1427 OFFCURVE",
"321 1414 OFFCURVE",
"277 1389 CURVE SMOOTH",
"189 1338 OFFCURVE",
"134 1243 OFFCURVE",
"134 1139 CURVE SMOOTH",
"134 1050 OFFCURVE",
"176 962 OFFCURVE",
"259 877 CURVE",
"115 794 OFFCURVE",
"36 668 OFFCURVE",
"36 524 CURVE SMOOTH"
);
},
{
closed = 1;
nodes = (
"134 718 OFFCURVE",
"178 779 OFFCURVE",
"294 846 CURVE",
"327 817 OFFCURVE",
"370 782 OFFCURVE",
"423 741 CURVE SMOOTH",
"484 692 OFFCURVE",
"532 651 OFFCURVE",
"565 616 CURVE SMOOTH",
"632 547 OFFCURVE",
"658 491 OFFCURVE",
"658 418 CURVE SMOOTH",
"658 321 OFFCURVE",
"606 244 OFFCURVE",
"503 188 CURVE",
"450 231 OFFCURVE",
"402 268 OFFCURVE",
"357 301 CURVE SMOOTH",
"196 424 OFFCURVE",
"134 512 OFFCURVE",
"134 621 CURVE SMOOTH"
);
}
);
width = 788;
}
);
note = section;
unicode = 00A7;
},
{
glyphname = dieresis;
lastChange = "2019-03-06 14:03:00 +0000";
layers = (
{
layerId = "500BB636-1048-4D7F-B62E-A2796C57CEF4";
paths = (
{
closed = 1;
nodes = (
"108 1094 OFFCURVE",
"134 1083 OFFCURVE",
"165 1083 CURVE SMOOTH",
"224 1083 OFFCURVE",
"273 1133 OFFCURVE",
"273 1192 CURVE SMOOTH",
"273 1251 OFFCURVE",
"224 1300 OFFCURVE",
"165 1300 CURVE SMOOTH",
"104 1300 OFFCURVE",
"54 1251 OFFCURVE",
"54 1192 CURVE SMOOTH",
"54 1163 OFFCURVE",
"65 1137 OFFCURVE",
"87 1116 CURVE"
);
},
{
closed = 1;
nodes = (
"462 1094 OFFCURVE",
"487 1083 OFFCURVE",
"517 1083 CURVE SMOOTH",
"576 1083 OFFCURVE",
"626 1133 OFFCURVE",
"626 1192 CURVE SMOOTH",
"626 1251 OFFCURVE",
"576 1300 OFFCURVE",
"517 1300 CURVE SMOOTH",
"458 1300 OFFCURVE",
"409 1251 OFFCURVE",
"409 1192 CURVE SMOOTH",
"409 1163 OFFCURVE",
"420 1137 OFFCURVE",
"441 1116 CURVE SMOOTH"
);
}
);
width = 681;
}
);
note = dieresis;
unicode = 00A8;
},
{
glyphname = copyright;
lastChange = "2019-03-06 14:03:00 +0000";
layers = (
{
layerId = "500BB636-1048-4D7F-B62E-A2796C57CEF4";
paths = (
{
closed = 1;
nodes = (
"162 316 OFFCURVE",
"212 240 OFFCURVE",
"277 176 CURVE SMOOTH",
"405 47 OFFCURVE",
"585 -31 OFFCURVE",
"777 -31 CURVE SMOOTH",
"965 -31 OFFCURVE",
"1151 47 OFFCURVE",
"1280 176 CURVE SMOOTH",
"1411 307 OFFCURVE",
"1488 490 OFFCURVE",
"1488 678 CURVE SMOOTH",
"1488 865 OFFCURVE",
"1411 1048 OFFCURVE",
"1280 1179 CURVE SMOOTH",
"1151 1308 OFFCURVE",
"965 1386 OFFCURVE",
"777 1386 CURVE SMOOTH",
"589 1386 OFFCURVE",
"405 1310 OFFCURVE",
"276 1179 CURVE SMOOTH",
"145 1048 OFFCURVE",
"69 866 OFFCURVE",
"69 678 CURVE SMOOTH",
"69 583 OFFCURVE",
"88 492 OFFCURVE",
"125 403 CURVE SMOOTH"
);
},
{
closed = 1;
nodes = (
"333 1203 OFFCURVE",
"542 1325 OFFCURVE",
"777 1325 CURVE SMOOTH",
"932 1325 OFFCURVE",
"1078 1271 OFFCURVE",
"1195 1175 CURVE SMOOTH",
"1311 1078 OFFCURVE",
"1426 910 OFFCURVE",
"1426 678 CURVE SMOOTH",
"1426 561 OFFCURVE",
"1397 453 OFFCURVE",
"1340 354 CURVE SMOOTH",
"1224 154 OFFCURVE",
"1010 31 OFFCURVE",
"777 31 CURVE SMOOTH",
"622 31 OFFCURVE",
"476 86 OFFCURVE",
"360 183 CURVE SMOOTH",
"244 279 OFFCURVE",
"130 445 OFFCURVE",
"130 678 CURVE SMOOTH",
"130 796 OFFCURVE",
"159 904 OFFCURVE",
"217 1003 CURVE SMOOTH"
);
},
{
closed = 1;
nodes = (
"318 590 OFFCURVE",
"338 515 OFFCURVE",
"379 447 CURVE SMOOTH",
"460 311 OFFCURVE",
"609 227 OFFCURVE",
"781 227 CURVE SMOOTH",
"944 227 OFFCURVE",
"1072 295 OFFCURVE",
"1166 430 CURVE",
"1127 451 LINE",
"1051 343 OFFCURVE",
"947 289 OFFCURVE",
"816 289 CURVE SMOOTH",
"604 289 OFFCURVE",
"484 437 OFFCURVE",
"484 700 CURVE SMOOTH",
"484 779 OFFCURVE",
"497 848 OFFCURVE",
"524 907 CURVE SMOOTH",
"576 1025 OFFCURVE",
"677 1090 OFFCURVE",
"806 1090 CURVE SMOOTH",
"961 1090 OFFCURVE",
"1062 1011 OFFCURVE",
"1109 854 CURVE",
"1148 854 LINE",
"1127 1135 LINE",
"1089 1135 LINE",
"1074 1099 OFFCURVE",
"1064 1090 OFFCURVE",
"1039 1090 CURVE SMOOTH",
"1033 1090 OFFCURVE",
"1021 1093 OFFCURVE",
"1003 1098 CURVE",
"904 1131 OFFCURVE",
"882 1135 OFFCURVE",
"818 1135 CURVE SMOOTH",
"725 1135 OFFCURVE",
"640 1115 OFFCURVE",
"564 1075 CURVE SMOOTH",
"412 995 OFFCURVE",
"318 845 OFFCURVE",
"318 672 CURVE SMOOTH"
);
}
);
width = 1556;
}
);
note = copyright;
unicode = 00A9;
},
{
glyphname = ordfeminine;
lastChange = "2019-03-06 14:03:00 +0000";
layers = (
{
layerId = "500BB636-1048-4D7F-B62E-A2796C57CEF4";
paths = (
{
closed = 1;
nodes = (
"36 944 OFFCURVE",
"42 920 OFFCURVE",
"55 898 CURVE SMOOTH",
"80 854 OFFCURVE",
"128 825 OFFCURVE",
"179 825 CURVE SMOOTH",
"242 825 OFFCURVE",
"305 850 OFFCURVE",
"366 899 CURVE SMOOTH",
"382 911 LINE",
"384 899 LINE SMOOTH",
"391 855 OFFCURVE",
"426 825 OFFCURVE",
"474 825 CURVE SMOOTH",
"525 825 OFFCURVE",
"578 857 OFFCURVE",
"632 922 CURVE",
"632 981 LINE",
"609 958 LINE",
"580 925 OFFCURVE",
"556 909 OFFCURVE",
"536 909 CURVE SMOOTH",
"518 909 OFFCURVE",
"509 926 OFFCURVE",
"509 961 CURVE SMOOTH",
"509 1272 LINE SMOOTH",
"509 1381 OFFCURVE",
"445 1430 OFFCURVE",
"300 1430 CURVE SMOOTH",
"256 1430 OFFCURVE",
"216 1424 OFFCURVE",
"179 1411 CURVE SMOOTH",
"106 1386 OFFCURVE",
"60 1337 OFFCURVE",
"60 1284 CURVE SMOOTH",
"60 1248 OFFCURVE",
"87 1225 OFFCURVE",
"128 1225 CURVE SMOOTH",
"168 1225 OFFCURVE",
"192 1246 OFFCURVE",
"192 1282 CURVE SMOOTH",
"192 1287 OFFCURVE",
"191 1292 OFFCURVE",
"189 1298 CURVE",
"189 1317 LINE SMOOTH",
"189 1364 OFFCURVE",
"225 1391 OFFCURVE",
"286 1391 CURVE SMOOTH",
"339 1391 OFFCURVE",
"364 1376 OFFCURVE",
"373 1335 CURVE",
"378 1316 OFFCURVE",
"380 1284 OFFCURVE",
"380 1241 CURVE SMOOTH",
"380 1217 LINE",
"305 1193 OFFCURVE",
"245 1170 OFFCURVE",
"198 1148 CURVE SMOOTH",
"105 1104 OFFCURVE",
"36 1046 OFFCURVE",
"36 971 CURVE SMOOTH"
);
},
{
closed = 1;
nodes = (
"167 1034 OFFCURVE",
"181 1062 OFFCURVE",
"208 1083 CURVE SMOOTH",
"233 1103 OFFCURVE",
"291 1132 OFFCURVE",
"380 1169 CURVE",
"376 958 LINE SMOOTH",
"376 953 OFFCURVE",
"358 941 OFFCURVE",
"323 924 CURVE",
"292 913 OFFCURVE",
"269 907 OFFCURVE",
"253 907 CURVE SMOOTH",
"205 907 OFFCURVE",
"167 949 OFFCURVE",
"167 1001 CURVE SMOOTH"
);
}
);
width = 641;
}
);
note = ordfeminine;
unicode = 00AA;
},
{
glyphname = guillemotleft;
lastChange = "2019-03-06 14:03:00 +0000";
layers = (
{
layerId = "500BB636-1048-4D7F-B62E-A2796C57CEF4";
paths = (
{
closed = 1;
nodes = (
"452 37 LINE",
"511 37 LINE",
"263 518 LINE",
"511 991 LINE",
"452 991 LINE",
"62 518 LINE"
);
},
{
closed = 1;
nodes = (
"906 37 LINE",
"966 37 LINE",
"720 518 LINE",
"966 991 LINE",
"906 991 LINE",
"511 518 LINE"
);
}
);
width = 1024;
}
);
note = guillemotleft;
unicode = 00AB;
},
{
glyphname = logicalnot;
lastChange = "2019-03-06 14:03:00 +0000";
layers = (
{
layerId = "500BB636-1048-4D7F-B62E-A2796C57CEF4";
paths = (
{
closed = 1;
nodes = (
"1127 856 LINE",
"1127 369 LINE",
"1220 369 LINE",
"1220 948 LINE",
"142 948 LINE",
"142 856 LINE"
);
}
);
width = 1366;
}
);
note = logicalnot;
unicode = 00AC;
},
{
glyphname = uni00AD;
lastChange = "2019-03-06 14:03:00 +0000";
layers = (
{
layerId = "500BB636-1048-4D7F-B62E-A2796C57CEF4";
paths = (
{
closed = 1;
nodes = (
"595 395 LINE",
"595 557 LINE",
"85 557 LINE",
"85 395 LINE"
);
}
);
width = 681;
}
);
note = uni00AD;
unicode = 00AD;
},
